{
  "asset": {
    "generator": "Khronos glTF Blender I/O v5.1.18",
    "version": "2.0"
  },
  "scene": 0,
  "scenes": [
    {
      "name": "Scene",
      "nodes": [
        0
      ]
    }
  ],
  "nodes": [
    {
      "mesh": 0,
      "name": "metal_stool_02",
      "rotation": [
        0,
        0.7071068286895752,
        0,
        0.7071068286895752
      ]
    }
  ],
  "materials": [
    {
      "doubleSided": true,
      "name": "metal_stool_02",
      "normalTexture": {
        "index": 0
      },
      "pbrMetallicRoughness": {
        "baseColorTexture": {
          "index": 1
        },
        "metallicRoughnessTexture": {
          "index": 2
        }
      }
    }
  ],
  "meshes": [
    {
      "name": "Cylinder.009",
      "primitives": [
        {
          "attributes": {
            "POSITION": 0,
            "NORMAL": 1,
            "TEXCOORD_0": 2
          },
          "indices": 3,
          "material": 0
        }
      ]
    }
  ],
  "textures": [
    {
      "sampler": 0,
      "source": 0
    },
    {
      "sampler": 0,
      "source": 1
    },
    {
      "sampler": 0,
      "source": 2
    }
  ],
  "images": [
    {
      "mimeType": "image/jpeg",
      "name": "metal_stool_02_nor_gl",
      "uri": "textures/metal_stool_02_nor_gl_1k.jpg"
    },
    {
      "mimeType": "image/jpeg",
      "name": "metal_stool_02_diff",
      "uri": "textures/metal_stool_02_diff_1k.jpg"
    },
    {
      "mimeType": "image/jpeg",
      "name": "metal_stool_02_metal-metal_stool_02_rough",
      "uri": "textures/metal_stool_02_arm_1k.jpg"
    }
  ],
  "accessors": [
    {
      "bufferView": 0,
      "componentType": 5126,
      "count": 4490,
      "max": [
        0.23518557846546173,
        0.458111435174942,
        0.22406147420406342
      ],
      "min": [
        -0.23790471255779266,
        -0.000011295080184936523,
        -0.22403834760189056
      ],
      "type": "VEC3"
    },
    {
      "bufferView": 1,
      "componentType": 5126,
      "count": 4490,
      "type": "VEC3"
    },
    {
      "bufferView": 2,
      "componentType": 5126,
      "count": 4490,
      "type": "VEC2"
    },
    {
      "bufferView": 3,
      "componentType": 5123,
      "count": 19596,
      "type": "SCALAR"
    }
  ],
  "bufferViews": [
    {
      "buffer": 0,
      "byteLength": 53880,
      "byteOffset": 0,
      "target": 34962
    },
    {
      "buffer": 0,
      "byteLength": 53880,
      "byteOffset": 53880,
      "target": 34962
    },
    {
      "buffer": 0,
      "byteLength": 35920,
      "byteOffset": 107760,
      "target": 34962
    },
    {
      "buffer": 0,
      "byteLength": 39192,
      "byteOffset": 143680,
      "target": 34963
    }
  ],
  "samplers": [
    {
      "magFilter": 9729,
      "minFilter": 9987
    }
  ],
  "buffers": [
    {
      "byteLength": 182872,
      "uri": "metal_stool_02.bin"
    }
  ]
}