# This is a clothes file for MakeHuman Community, exported by MakeClothes 2
#
# author: Elvaerwyn
# license: CC-BY
#
v 1.5056 1.2193 0.3590
v 1.5342 1.0774 0.3260
v 1.5518 0.9330 0.2931
v 1.4341 0.9983 -0.0127
v 1.2135 1.0579 -0.2533
v 0.9114 1.0707 -0.4096
v 0.5644 1.0810 -0.4760
v 0.2119 1.0860 -0.5002
v -0.1337 1.0703 -0.5106
v -0.4744 1.0593 -0.4996
v -0.8123 1.0441 -0.4492
v -1.1301 1.0139 -0.3322
v -1.3737 0.9415 -0.1133
v -1.5219 0.8514 0.1713
v -1.5477 0.7595 0.4959
v -1.5247 0.9009 0.5247
v -1.5040 1.0406 0.5556
v -1.4827 1.1374 0.2191
v -1.3173 1.2217 -0.0747
v -1.0143 1.2923 -0.2615
v -0.6631 1.3090 -0.3383
v -0.3043 1.3060 -0.3853
v 0.0548 1.3039 -0.4004
v 0.4183 1.3171 -0.3648
v 0.7922 1.3256 -0.3143
v 1.1377 1.3075 -0.2061
v 1.3985 1.2727 0.0189
v 1.3326 1.1411 -0.1110
v 0.7331 1.1738 -0.3950
v 0.3846 1.1702 -0.4455
v 1.0646 1.1731 -0.2994
v 0.0398 1.1661 -0.4639
v -0.2991 1.1633 -0.4568
v -0.6345 1.1566 -0.4207
v -1.2619 1.0987 -0.1966
v -1.4581 1.0229 0.0586
v -0.9628 1.1409 -0.3458
v 1.4799 1.1270 0.1105
v -1.5252 0.9725 0.3090
v -1.4624 3.6848 0.5097
v -1.4842 3.7028 0.4039
v -1.5272 3.8252 0.0143
v -1.5359 4.0473 -0.2959
v -1.5332 4.3662 -0.4635
v -1.5440 4.7159 -0.4443
v -1.5646 4.9979 -0.2560
v -1.5722 5.1341 0.0543
v -1.5056 5.1630 0.0409
v -1.4989 5.0471 -0.2526
v -1.4744 4.8004 -0.4425
v -1.4634 4.4879 -0.4971
v -1.4705 4.1951 -0.4083
v -1.4968 3.9400 -0.1970
v -1.5119 3.7583 0.1147
v 1.5149 5.1614 0.0337
v 1.5822 5.1312 0.0416
v 1.5496 4.9946 -0.2735
v 1.5080 4.7122 -0.4601
v 1.4855 4.3727 -0.4781
v 1.4822 4.0588 -0.3226
v 1.4966 3.8285 -0.0426
v 1.4656 3.6885 0.3301
v 1.4471 3.6678 0.4314
v 1.4727 3.7556 0.0518
v 1.4296 3.9448 -0.2261
v 1.4072 4.1944 -0.4173
v 1.4132 4.4958 -0.5072
v 1.4409 4.7949 -0.4539
v 1.4876 5.0397 -0.2703
v 1.4844 0.8751 0.6225
v 1.3145 0.7998 0.9040
v 1.0756 0.7180 1.1248
v 0.7709 0.6439 1.2547
v 0.4386 0.5979 1.3211
v 0.0974 0.5738 1.3499
v -0.2441 0.5787 1.3414
v -0.5806 0.5959 1.3010
v -0.9059 0.6346 1.2096
v -1.1983 0.6983 1.0540
v -1.4129 0.7295 0.8085
v -1.3348 0.9873 0.8641
v -1.1040 0.9380 1.1280
v -0.7930 0.9012 1.3010
v -0.4484 0.8735 1.4018
v -0.0903 0.8568 1.4381
v 0.2706 0.8643 1.4244
v 0.6220 0.9048 1.3553
v 0.9507 0.9778 1.2203
v 1.2084 1.0672 0.9877
v 1.4032 1.1472 0.6939
v -1.2964 0.8248 0.9514
v -0.7364 0.7296 1.2833
v -0.4115 0.7025 1.3596
v -1.0460 0.7738 1.1604
v -0.0748 0.6892 1.3842
v 0.2636 0.6968 1.3739
v 0.5953 0.7339 1.3214
v 1.1819 0.8833 1.0415
v 1.3846 0.9695 0.7869
v 0.9084 0.7990 1.2155
v -1.4396 0.8783 0.7354
v 1.4911 1.0482 0.5500
v -1.4483 3.7512 0.5974
v -1.4702 4.0178 0.7932
v -1.4605 4.3050 0.8703
v -1.4258 4.5974 0.7996
v -1.4264 4.8749 0.6388
v -1.4799 5.0873 0.3873
v -1.4159 5.1148 0.3570
v -1.3544 4.9346 0.5975
v -1.3417 4.6868 0.7774
v -1.3712 4.4271 0.8871
v -1.4090 4.1543 0.9007
v -1.4195 3.8986 0.7795
v 1.5241 5.0786 0.3835
v 1.4945 4.8596 0.6412
v 1.4956 4.5695 0.7809
v 1.5165 4.2668 0.8264
v 1.4908 3.9899 0.7223
v 1.4423 3.7313 0.5225
v 1.4263 3.8744 0.7103
v 1.4561 4.1147 0.8485
v 1.4368 4.3972 0.8579
v 1.4164 4.6683 0.7720
v 1.4206 4.9230 0.6083
v 1.4591 5.1068 0.3622
v -0.3855 4.3129 1.2249
v -0.1781 4.2619 1.2515
v 0.0331 4.2278 1.2690
v 0.2542 4.2466 1.2573
v 0.4694 4.2851 1.2367
v 0.6944 4.4256 1.1304
v 0.8671 4.5901 0.9657
v 0.9938 4.7946 0.7550
v 1.0775 5.0068 0.5326
v 1.1145 5.1729 0.2779
v 1.1014 5.2573 0.0029
v 0.9996 5.2753 -0.0050
v 1.0256 5.1608 0.3128
v 0.9809 4.9503 0.5987
v 0.8650 4.7165 0.8509
v 0.6814 4.5293 1.0711
v 0.4347 4.3700 1.2002
v 0.2403 4.3356 1.2154
v 0.0407 4.3178 1.2231
v -0.1549 4.3490 1.2081
v -0.3440 4.3948 1.1861
v -0.5882 4.5511 1.0544
v -0.7901 4.7414 0.8460
v -0.9310 4.9636 0.5951
v -1.0010 5.1622 0.3066
v -0.9921 5.2769 -0.0115
v -1.0933 5.2525 0.0000
v -1.0965 5.1650 0.2839
v -1.0341 5.0073 0.5310
v -0.9263 4.8106 0.7544
v -0.7813 4.6183 0.9596
v -0.5996 4.4540 1.1246
v -1.2994 5.2119 0.0227
v -1.3933 3.4216 0.5654
v -1.3277 3.1569 0.6031
v -1.2852 2.8896 0.6262
v -1.2566 2.6252 0.6520
v -1.2327 2.3849 0.6718
v -1.2132 2.2081 0.6768
v -1.2402 2.0514 0.6552
v -1.2584 1.9506 0.6555
v -1.2609 1.8267 0.6517
v -1.3320 1.5691 0.6205
v -1.4197 1.3058 0.5914
v 1.4208 1.4651 0.4032
v 1.3493 1.6893 0.4403
v 1.2938 1.8992 0.4640
v 1.2456 2.1019 0.4616
v 1.2332 2.1870 0.4812
v 1.2337 2.2083 0.5658
v 1.2385 2.3434 0.5764
v 1.2545 2.6030 0.5518
v 1.2724 2.8712 0.5222
v 1.3142 3.1377 0.4977
v 1.3780 3.4026 0.4714
v 1.3087 5.2153 0.0181
v -0.2982 3.1083 1.5552
v -0.1951 3.6974 1.5847
v -0.1234 3.9788 1.4153
v 0.5770 3.7300 1.5991
v 0.4554 4.0063 1.4092
v -1.0037 4.3075 1.1428
v -1.2195 5.0921 0.3895
v -1.1408 4.8924 0.6454
v -1.0643 4.6282 0.8867
v 1.1363 4.6070 0.8709
v 1.2526 5.1037 0.3873
v 1.1979 4.8881 0.6384
v -0.8307 4.4347 1.0946
v -0.7047 4.1397 1.3353
v -0.5863 4.2857 1.2326
v -1.3957 1.1344 0.7106
v -0.9041 1.5223 1.2181
v 0.3430 1.8955 1.4513
v 1.0318 1.5866 1.1161
v 1.4338 1.2985 0.5322
v 1.0814 4.1256 1.2539
v 0.9601 4.3669 1.1118
v -1.0953 3.4094 1.5553
v -0.8419 2.6739 1.3410
v 0.6773 2.6940 1.4294
v 1.2035 3.3637 1.3804
v 0.1972 3.8245 1.5026
v -1.2305 4.2379 1.0617
v -1.1623 4.4498 0.9864
v -1.1956 4.7628 0.7558
v 1.2839 4.5108 0.8823
v 1.2543 4.2592 1.0277
v 1.1362 4.3955 1.0140
v 1.2613 4.7524 0.7419
v -1.0738 1.8110 1.0214
v -0.9286 1.2043 1.2336
v -1.1968 1.2409 0.9784
v -0.2379 1.4730 1.4522
v 0.9300 2.1239 1.1696
v 1.0517 1.2882 1.1252
v 1.2827 1.3660 0.8303
v 1.2508 1.6764 0.7929
v 0.7635 4.1357 1.3367
v 1.2997 3.8772 1.1190
v 1.2345 4.0624 1.1434
v -1.2812 3.3541 1.0789
v -1.1188 2.8602 1.0720
v -1.0383 2.3522 1.0941
v 1.1044 2.5906 1.0676
v 1.2895 3.3205 0.9074
v 0.4089 3.8533 1.5034
v 0.1769 4.0380 1.3773
v -0.0352 3.8239 1.5049
v -1.1917 1.8602 0.8161
v -1.1753 1.6221 0.9126
v -1.1163 1.9429 0.9282
v -0.9460 1.0274 1.2298
v -0.6118 1.1331 1.3782
v -1.2129 1.0650 1.0037
v -1.0575 1.3805 1.1103
v -1.2987 1.3859 0.7887
v 0.0821 1.1876 1.4772
v 1.1679 2.0833 0.8755
v 1.0712 1.1247 1.1200
v 0.7680 1.1734 1.3245
v 1.2919 1.2087 0.8494
v 1.3381 1.5224 0.6208
v 1.1736 1.4615 0.9791
v 1.2994 1.7493 0.5873
v 1.2323 1.9392 0.7590
v 0.5639 4.1411 1.3299
v 0.7311 3.9057 1.4983
v 0.9974 3.6213 1.6159
v 0.9462 3.9871 1.4291
v 0.8039 3.7381 1.6084
v 0.9288 4.2062 1.2574
v 1.3739 3.9477 0.9159
v 1.3566 3.6318 0.8554
v -1.3248 3.3197 0.7840
v -1.2250 3.0862 0.9355
v -1.3581 3.6486 0.9719
v -1.2971 3.9349 1.1174
v -1.2288 2.8009 0.8310
v -1.1491 2.5714 0.9699
v -1.1599 2.3070 0.8707
v 1.2201 2.5245 0.8055
v 1.1909 2.8593 0.9109
v 1.1410 2.2911 0.9574
v 1.1786 2.6848 0.9237
v 1.2152 2.3535 0.7976
v 1.3223 3.2929 0.6494
v -1.0369 1.6538 1.0839
v -0.5498 1.9254 1.3803
v -0.7294 1.3533 1.3397
v -0.4843 1.3120 1.4371
v -0.5172 1.6179 1.3843
v -0.8312 1.7609 1.2359
v -0.7082 1.5371 1.3312
v -1.1846 1.4446 0.9472
v 0.0858 0.9934 1.4554
v 1.2303 2.1255 0.6424
v 1.1830 2.1620 0.8204
v 0.8747 1.3971 1.2509
v 0.6575 1.6617 1.3359
v 0.8395 1.5859 1.2584
v 1.0392 1.8893 1.0837
v 1.2775 3.6095 1.2308
v 1.3874 3.5541 0.6159
v -1.0528 3.1349 1.3210
v -1.4065 3.7386 0.7571
v -1.2322 3.6840 1.3748
v -1.0046 2.5510 1.1744
v -1.0041 2.7467 1.1991
v 1.2390 2.7698 0.6954
v 1.2436 3.0536 0.7688
v 1.1218 3.1165 1.1398
v -0.2713 1.0941 1.4576
v -0.6181 1.7935 1.3413
v -0.8317 1.9603 1.2149
v -0.7721 1.8634 1.2511
v 1.1952 2.2023 0.7980
v 1.1101 2.1182 0.9801
v 0.9893 2.0172 1.0985
v 0.6588 2.0118 1.3342
v 0.8056 1.8466 1.2499
v 0.5533 1.7989 1.3749
v 1.1587 1.7935 0.9421
v 1.1556 1.9838 0.9271
v 1.1695 3.8131 1.4023
v 1.1827 3.5642 1.4683
v 1.2789 3.4231 1.1499
v -1.1820 3.2094 1.1613
v -1.1262 3.0376 1.1176
v -1.3021 3.7574 1.1583
v -1.2989 3.5342 1.2079
v -0.8167 3.7571 1.5873
v -1.0458 3.9928 1.3627
v -1.1076 4.1521 1.2166
v 1.2224 3.1782 0.9672
v 0.7138 3.1641 1.5117
v 0.9753 2.8755 1.2241
v -0.1440 1.2530 1.4816
v -0.9938 1.8857 1.0882
v 0.5989 2.2912 1.4093
v -1.0563 3.6296 1.5766
v -1.2056 3.8797 1.3125
v 0.9974 3.1939 1.4475
v 1.0115 3.3899 1.6012
v 0.8587 3.0289 1.3803
v 0.6118 2.9391 1.4530
v 0.7987 2.8446 1.3587
v 0.9103 2.6345 1.2718
v 0.2026 3.1740 1.5155
v 0.7568 2.4515 1.3727
v 0.1844 2.7485 1.5629
v 0.4567 3.1121 1.4991
v 0.5002 3.4130 1.6351
v 0.7573 3.5184 1.6921
v 0.2683 2.9578 1.5245
v 0.9408 2.2498 1.2210
v 0.3956 2.5158 1.4994
v 0.7826 3.3266 1.6383
v -0.0191 3.0166 1.5397
v 0.4415 2.7824 1.5151
v 0.9950 2.4271 1.1766
v 1.0957 2.9523 1.0983
v 0.6950 2.1553 1.3436
v 0.2051 2.1171 1.5253
v 0.4729 2.0979 1.4447
v 0.3466 2.0253 1.4735
v -0.1354 1.9873 1.5208
v 0.3237 3.6122 1.6089
v 0.1774 3.4015 1.5870
v 0.0462 3.5893 1.5935
v -0.2636 3.4001 1.6215
v -0.0807 3.2326 1.5539
v 1.0792 2.1733 1.0359
v 0.2874 2.2781 1.5213
v -0.5423 3.5882 1.6665
v -0.8344 3.4765 1.6889
v -0.3614 2.3443 1.5231
v -0.3229 2.7446 1.5550
v -0.2219 2.9159 1.5588
v -0.0696 2.7496 1.5724
v -0.1571 2.5160 1.5687
v -0.0461 2.2596 1.5600
v 0.4568 2.1762 1.4628
v -0.3243 3.5615 1.6413
v -0.5862 3.2747 1.6291
v 0.0992 2.5744 1.5645
v -0.3132 2.1523 1.5155
v -0.3723 3.2597 1.6044
v -0.4851 3.4227 1.6590
v -0.6440 2.9698 1.4713
v 0.1183 2.4109 1.5576
v -0.0908 2.0730 1.5400
v -0.7155 2.2061 1.3513
v -0.8003 2.4166 1.3487
v -0.3127 2.0120 1.4907
v -0.5297 2.0828 1.4275
v -0.5103 2.2228 1.4609
v -0.7152 2.0453 1.3179
v -1.0407 2.0823 1.0445
v -0.5254 3.1069 1.5496
v -0.9017 2.2625 1.2333
v -0.5234 2.5551 1.4870
v -1.1538 2.0863 0.8327
v -0.8966 2.1056 1.2093
v -0.5366 2.7889 1.5196
v -0.5906 2.3549 1.4460
v -0.4304 2.9421 1.5373
v -0.4135 4.0690 1.3780
v -0.6324 3.9390 1.4818
v -0.8406 3.9897 1.4319
v -0.3754 3.8601 1.5163
v -0.5835 3.7678 1.6004
v 0.4249 1.1309 1.4296
v 0.5544 1.4064 1.4014
v 0.5971 1.2450 1.3926
v 0.2630 1.6615 1.4513
v 0.0728 1.4165 1.4672
v 0.3249 1.4622 1.4433
v -0.1616 1.7566 1.4765
v -0.0379 1.6277 1.4727
v 0.0626 1.8119 1.4883
v -0.3906 1.7777 1.4307
v -0.2010 1.8964 1.4875
v 0.4758 1.6001 1.4037
v 0.2897 1.2541 1.4732
v -0.8844 3.2287 1.5485
v -0.8668 3.0481 1.4137
v -1.0208 1.9753 1.0552
v -0.2752 1.6475 1.4505
v 0.0770 1.9749 1.5159
v -0.0237 4.5926 -0.6730
v 0.2633 4.6146 -0.6727
v 0.5475 4.6758 -0.6698
v 0.8160 4.8057 -0.6256
v 1.0357 5.0119 -0.5092
v 1.1367 5.2026 -0.2833
v -1.1445 5.1974 -0.2817
v -1.0500 5.0021 -0.4960
v -0.8461 4.8037 -0.6181
v -0.5875 4.6757 -0.6730
v -0.3083 4.6141 -0.6750
v 0.2255 3.2397 -0.4141
v 1.1183 4.6872 -0.5612
v 1.2606 5.0363 -0.3767
v -0.9476 4.2403 -0.6072
v -1.2786 5.0332 -0.3723
v -1.1564 4.6851 -0.5536
v 0.1632 3.9094 -0.6135
v 1.0049 4.8213 -0.5723
v 1.3414 5.1420 -0.1860
v -0.8243 4.5060 -0.6517
v -1.3481 5.1435 -0.1860
v -1.1817 4.8812 -0.5000
v 0.1386 4.2679 -0.6581
v 0.1275 4.4626 -0.6682
v 0.4528 4.3677 -0.6674
v -0.1940 4.3137 -0.6621
v 1.2362 1.6165 0.0079
v 1.4315 1.3539 0.2244
v 0.2529 2.0938 -0.2726
v -0.7977 1.9903 -0.1797
v -1.3555 1.5205 0.1612
v -1.4768 1.2041 0.4220
v 0.9623 3.5524 -0.4503
v 0.8411 2.7480 -0.2024
v -0.4400 2.3492 -0.2477
v -0.8884 3.2938 -0.3554
v 1.2982 4.6555 -0.5178
v -1.2158 4.0046 -0.4311
v -1.2183 4.3319 -0.5214
v -1.3383 4.6575 -0.5024
v -0.9644 4.6571 -0.6137
v 0.3670 4.1037 -0.6458
v -0.0681 4.0716 -0.6396
v -0.5709 4.2191 -0.6573
v -0.4901 4.4487 -0.6720
v 1.2331 1.8480 0.1485
v 1.3502 1.6038 0.2341
v 1.2612 1.4302 -0.0595
v 0.9554 1.5482 -0.2204
v 0.8597 2.2346 -0.1299
v 0.2371 1.7856 -0.2692
v -0.8209 1.6553 -0.2316
v -1.1929 1.9974 0.1670
v -1.3950 1.3257 0.1081
v -1.3926 1.4746 0.4106
v -1.3268 1.7541 0.3298
v -1.1525 1.4797 -0.1194
v 1.2595 3.7161 -0.2874
v 1.2224 3.2424 -0.0633
v 1.1436 2.7229 0.1161
v -1.0248 2.3003 0.0410
v -1.1847 3.0094 0.0434
v -1.3704 4.0471 -0.3495
v -1.3714 3.7572 -0.1856
v -1.1190 4.1679 -0.5320
v -1.0418 4.4488 -0.5963
v 0.5655 3.7472 -0.5812
v -0.3302 3.5713 -0.5305
v -0.7574 4.3085 -0.6527
v -0.3403 4.0919 -0.6445
v -0.2384 3.8351 -0.5992
v 0.9682 1.4023 -0.2525
v 0.6019 1.5178 -0.2979
v 1.0011 1.8250 -0.1330
v 1.1138 2.2333 0.1641
v -0.1216 1.5863 -0.2994
v -0.8394 1.4346 -0.2799
v -0.4928 1.5547 -0.2963
v -1.2571 1.9484 0.4360
v -1.2008 2.0882 0.2934
v 1.3790 3.7940 -0.1764
v 1.3876 3.5372 0.0419
v 1.1874 4.0110 -0.4536
v 1.3152 3.2587 0.2293
v 1.2099 3.0041 0.1151
v 1.3289 3.3755 0.0461
v 1.1914 3.4613 -0.2396
v 1.2248 2.7290 0.3531
v 1.1557 2.4701 0.2515
v -1.1836 2.2999 0.3571
v -1.2835 3.0139 0.3386
v -1.0096 3.6785 -0.4438
v -0.9524 3.9530 -0.5472
v -0.6277 3.8992 -0.6055
v -1.4185 3.5158 0.1347
v 0.3926 3.8938 -0.6135
v 0.0137 3.6393 -0.5493
v 0.3016 3.6589 -0.5584
v 0.5947 3.4016 -0.4729
v 0.1783 3.4594 -0.4925
v 0.5035 3.5727 -0.5383
v 0.3759 3.3707 -0.4644
v -0.1539 3.3011 -0.4325
v -0.0467 3.4615 -0.4911
v 1.1754 1.7750 -0.0115
v 0.7429 1.7246 -0.2461
v 0.4748 1.6934 -0.2819
v 0.6641 2.0214 -0.2339
v 0.5658 1.8824 -0.2500
v 0.8069 1.9225 -0.2002
v 0.3413 2.0042 -0.2567
v -0.2317 1.9873 -0.2435
v 0.0530 2.0051 -0.2567
v 0.1371 1.9226 -0.2528
v -0.1241 1.4139 -0.3537
v -0.4822 1.3987 -0.3383
v -1.2515 2.0226 0.5066
v -1.2022 2.1635 0.3843
v -0.8701 2.2183 -0.1149
v -1.0914 2.1808 0.1013
v -1.1056 2.2412 0.1643
v -0.9467 2.1227 -0.0812
v -0.9050 2.2530 -0.0807
v -1.0960 2.1242 0.0862
v -0.7667 2.3189 -0.1748
v -0.4661 2.2483 -0.2387
v -0.7166 2.2432 -0.1875
v -0.1985 2.2039 -0.2660
v -0.5507 2.1955 -0.2373
v -0.0105 2.1131 -0.2681
v 1.4101 3.5183 0.2913
v 1.0130 3.8195 -0.4928
v 1.0503 2.8808 -0.0809
v 0.8137 3.0944 -0.3232
v 0.5162 3.1503 -0.3823
v 0.8957 2.9347 -0.2306
v 1.0492 3.1158 -0.2041
v 0.1206 2.6691 -0.2872
v 0.9449 3.3110 -0.3674
v 0.2499 2.9476 -0.3310
v 0.7389 3.2588 -0.4094
v 0.8023 3.4460 -0.4636
v 1.2684 2.9979 0.3413
v 1.3086 3.5687 -0.1645
v 1.1065 2.2964 0.1594
v 0.9750 2.5194 -0.0585
v -1.1507 2.5827 0.1957
v -1.1864 3.7951 -0.3776
v -1.2490 3.5162 -0.1998
v -0.7552 4.0761 -0.6192
v -0.4199 3.9138 -0.6182
v -0.8313 3.8032 -0.5457
v -0.6197 3.6402 -0.5378
v -0.4210 3.7293 -0.5754
v -0.5729 3.3777 -0.4515
v -1.4331 3.5366 0.3756
v -1.4661 3.6680 0.0356
v -1.3151 3.2554 0.1428
v -0.0260 3.8221 -0.5956
v 0.2352 1.5130 -0.3190
v 1.0214 2.1192 -0.0229
v 1.0346 2.0097 -0.0583
v 0.8673 2.0691 -0.1622
v 0.8219 2.1675 -0.1645
v 1.1869 2.0388 0.1971
v 1.0093 2.1992 0.0017
v 1.1521 2.1609 0.2127
v 0.5216 2.2100 -0.2607
v 0.1664 2.2382 -0.2853
v -0.3191 1.8061 -0.2525
v -0.0421 1.7978 -0.2583
v -1.0297 2.0324 -0.0485
v -1.0033 1.8388 -0.1014
v -0.7229 2.7666 -0.2341
v -0.5666 2.2706 -0.2263
v -0.3263 2.2293 -0.2493
v -0.4420 2.0868 -0.2439
v -0.7748 2.1668 -0.1796
v 1.1061 3.6575 -0.3896
v 0.8103 3.7355 -0.5442
v 0.7612 4.1082 -0.6341
v 0.8400 3.9240 -0.5825
v 0.6120 3.9510 -0.6218
v 0.5758 2.8810 -0.3107
v -0.2062 2.9322 -0.3212
v 1.1772 2.3471 0.3355
v 1.1589 2.2486 0.2916
v 1.0052 2.2547 0.0081
v 0.5585 2.2829 -0.2579
v 0.8717 2.3076 -0.1178
v 0.7860 2.2597 -0.1856
v 0.5161 2.2472 -0.2679
v 1.0444 2.3843 0.0564
v -1.1312 2.3969 0.1974
v -1.2237 2.4801 0.4301
v -1.2442 2.7484 0.3871
v -1.1698 2.7980 0.1334
v -0.9917 2.8546 -0.1124
v -0.9285 2.5046 -0.0744
v -1.0457 3.4617 -0.3524
v -0.8442 3.5528 -0.4726
v -1.1586 3.2364 -0.1617
v -0.3451 3.3908 -0.4659
v -0.4447 3.1280 -0.3697
v -1.3417 3.1954 0.3643
v -1.3392 3.4011 -0.0155
v 0.1018 1.6491 -0.2884
v 0.5724 2.1113 -0.2488
v 0.2930 2.1990 -0.2739
v -0.5737 1.7396 -0.2561
v -0.5286 1.9330 -0.2356
v -0.7589 1.8633 -0.2007
v -0.5859 2.0230 -0.2274
v -1.0490 1.6639 -0.1397
v -1.2255 1.7382 0.0597
v -1.1442 1.9007 0.0381
v -0.2190 2.0495 -0.2585
v 0.7023 3.6003 -0.5327
v 0.5638 4.1911 -0.6586
v 0.8020 4.4565 -0.6562
v 0.7281 4.6236 -0.6637
v 0.5195 2.5327 -0.2777
v 0.3633 2.7509 -0.2960
v 0.0157 3.0806 -0.3598
v 0.0243 2.8602 -0.3084
v -0.7938 3.0353 -0.2771
v -0.9133 2.3640 -0.0736
v -1.0331 2.6756 -0.0030
v -0.6550 2.4978 -0.2133
v -0.2871 2.6119 -0.2711
v -0.4433 2.4920 -0.2550
v -1.0442 3.0547 -0.1500
v -0.2133 3.1210 -0.3714
v -0.4904 2.8966 -0.3073
v -0.3280 2.7858 -0.2905
v -0.6738 3.1995 -0.3724
v 0.6323 2.6980 -0.2712
v 0.7649 2.5277 -0.2057
v 0.8579 2.3871 -0.1281
v 1.1243 4.3406 -0.5619
v 1.2990 4.3404 -0.5121
v 0.1792 2.3439 -0.2735
v -0.0422 2.2600 -0.2543
v -0.2856 2.2674 -0.2440
v -0.1292 2.3628 -0.2638
v 0.2678 2.2603 -0.2725
v 0.0023 2.2965 -0.2582
v 0.0536 2.4817 -0.2778
v 0.3438 2.2930 -0.2732
v 0.5571 2.3531 -0.2601
v -0.5239 2.6700 -0.2642
v 0.9958 4.1297 -0.5763
v 0.9386 4.3198 -0.6241
v -0.0633 2.2437 -0.2637
v -1.0597 5.2088 -0.3232
v -0.9284 4.9848 -0.5446
v -0.6596 4.8014 -0.6365
v -0.3469 4.7186 -0.6582
v -0.0228 4.6921 -0.6606
v 0.3054 4.7193 -0.6564
v 0.6271 4.8019 -0.6365
v 0.9094 4.9885 -0.5484
v 1.0525 5.2142 -0.3243
vt 0.0863 0.1140
vt 0.0759 0.1355
vt 0.0512 0.1140
vt 0.0863 0.1140
vt 0.1214 0.1140
vt 0.1039 0.1323
vt 0.1565 0.1140
vt 0.1916 0.1140
vt 0.1741 0.1308
vt 0.4198 0.1323
vt 0.4478 0.1355
vt 0.4328 0.1541
vt 0.4708 0.1541
vt 0.4478 0.1355
vt 0.4717 0.1340
vt 0.1916 0.1140
vt 0.2267 0.1140
vt 0.2092 0.1304
vt 0.1214 0.1140
vt 0.1565 0.1140
vt 0.1390 0.1315
vt 0.0759 0.1355
vt 0.0529 0.1541
vt 0.0520 0.1340
vt 0.1741 0.1308
vt 0.2092 0.1304
vt 0.2048 0.1541
vt 0.2443 0.1302
vt 0.1669 0.1541
vt 0.1289 0.1541
vt 0.0909 0.1541
vt 0.1669 0.1541
vt 0.2428 0.1541
vt 0.2618 0.1140
vt 0.2618 0.1140
vt 0.2970 0.1140
vt 0.2794 0.1302
vt 0.3496 0.1308
vt 0.3568 0.1541
vt 0.3188 0.1541
vt 0.2970 0.1140
vt 0.3321 0.1140
vt 0.3145 0.1304
vt 0.3672 0.1140
vt 0.4023 0.1140
vt 0.3847 0.1315
vt 0.3948 0.1541
vt 0.4725 0.1140
vt 0.3568 0.1541
vt 0.3847 0.1315
vt 0.3948 0.1541
vt 0.4374 0.1140
vt 0.4023 0.1140
vt 0.3496 0.1308
vt 0.3321 0.1140
vt 0.3145 0.1304
vt 0.2794 0.1302
vt 0.3145 0.1304
vt 0.2808 0.1541
vt 0.2428 0.1541
vt 0.4583 0.7148
vt 0.4512 0.6908
vt 0.4653 0.6771
vt 0.4467 0.7265
vt 0.4473 0.7624
vt 0.4467 0.7265
vt 0.4574 0.7531
vt 0.4622 0.7911
vt 0.4528 0.7980
vt 0.4606 0.6561
vt 0.4779 0.6409
vt 0.4779 0.6409
vt 0.4744 0.6230
vt 0.4954 0.6068
vt 0.4919 0.5916
vt 0.4725 0.8280
vt 0.4627 0.8325
vt 0.0283 0.6068
vt 0.0317 0.5916
vt 0.0493 0.6230
vt 0.0458 0.6409
vt 0.0512 0.8280
vt 0.0709 0.7980
vt 0.0610 0.8325
vt 0.0584 0.6771
vt 0.0458 0.6409
vt 0.0631 0.6561
vt 0.0584 0.6771
vt 0.0725 0.6908
vt 0.0653 0.7148
vt 0.0770 0.7265
vt 0.0663 0.7531
vt 0.0615 0.7911
vt 0.0663 0.7531
vt 0.0764 0.7624
vt 0.0709 0.7980
vt 0.5718 0.1101
vt 0.5614 0.1316
vt 0.5367 0.1101
vt 0.5718 0.1101
vt 0.6070 0.1101
vt 0.5894 0.1284
vt 0.6421 0.1101
vt 0.6772 0.1101
vt 0.6596 0.1269
vt 0.9054 0.1284
vt 0.9334 0.1316
vt 0.9184 0.1501
vt 0.9564 0.1501
vt 0.9334 0.1316
vt 0.9572 0.1301
vt 0.6772 0.1101
vt 0.7123 0.1101
vt 0.6947 0.1265
vt 0.6070 0.1101
vt 0.6421 0.1101
vt 0.6245 0.1275
vt 0.5614 0.1316
vt 0.5384 0.1501
vt 0.5376 0.1301
vt 0.6596 0.1269
vt 0.6947 0.1265
vt 0.6904 0.1501
vt 0.7298 0.1263
vt 0.5764 0.1501
vt 0.5894 0.1284
vt 0.6144 0.1501
vt 0.6524 0.1501
vt 0.7298 0.1263
vt 0.7474 0.1101
vt 0.7649 0.1263
vt 0.6524 0.1501
vt 0.6144 0.1501
vt 0.6245 0.1275
vt 0.7284 0.1501
vt 0.7825 0.1101
vt 0.8352 0.1269
vt 0.8424 0.1501
vt 0.8044 0.1501
vt 0.7825 0.1101
vt 0.8176 0.1101
vt 0.8001 0.1265
vt 0.8527 0.1101
vt 0.8878 0.1101
vt 0.8703 0.1275
vt 0.8804 0.1501
vt 0.9580 0.1101
vt 0.8424 0.1501
vt 0.8703 0.1275
vt 0.8804 0.1501
vt 0.9229 0.1101
vt 0.8878 0.1101
vt 0.8352 0.1269
vt 0.8176 0.1101
vt 0.8001 0.1265
vt 0.7664 0.1501
vt 0.7649 0.1263
vt 0.8001 0.1265
vt 0.7284 0.1501
vt 0.5138 0.6029
vt 0.5173 0.5876
vt 0.5348 0.6190
vt 0.5314 0.6370
vt 0.5367 0.8241
vt 0.5565 0.7940
vt 0.5465 0.8286
vt 0.5439 0.6732
vt 0.5314 0.6370
vt 0.5487 0.6522
vt 0.5439 0.6732
vt 0.5581 0.6869
vt 0.5509 0.7109
vt 0.5625 0.7226
vt 0.5519 0.7492
vt 0.5470 0.7872
vt 0.5519 0.7492
vt 0.5619 0.7585
vt 0.5565 0.7940
vt 0.9439 0.7109
vt 0.9367 0.6869
vt 0.9508 0.6732
vt 0.9323 0.7226
vt 0.9328 0.7585
vt 0.9323 0.7226
vt 0.9429 0.7492
vt 0.9478 0.7872
vt 0.9383 0.7940
vt 0.9461 0.6522
vt 0.9634 0.6370
vt 0.9634 0.6370
vt 0.9599 0.6190
vt 0.9810 0.6029
vt 0.9775 0.5876
vt 0.9580 0.8241
vt 0.9483 0.8286
vt 0.6677 0.7182
vt 0.6660 0.7022
vt 0.6995 0.6956
vt 0.6415 0.7258
vt 0.6677 0.7182
vt 0.6420 0.7473
vt 0.6943 0.6832
vt 0.7233 0.6904
vt 0.7206 0.6774
vt 0.7474 0.6869
vt 0.6995 0.6956
vt 0.6159 0.8201
vt 0.5995 0.8529
vt 0.6026 0.8189
vt 0.6127 0.8589
vt 0.6097 0.7856
vt 0.6225 0.7541
vt 0.6420 0.7473
vt 0.6249 0.7822
vt 0.6249 0.7822
vt 0.7474 0.6734
vt 0.7474 0.6869
vt 0.7741 0.6772
vt 0.7716 0.6903
vt 0.7954 0.6953
vt 0.8006 0.6829
vt 0.8291 0.7017
vt 0.8275 0.7177
vt 0.7954 0.6953
vt 0.8275 0.7177
vt 0.8538 0.7253
vt 0.8534 0.7468
vt 0.8534 0.7468
vt 0.8728 0.7536
vt 0.8704 0.7819
vt 0.8854 0.7853
vt 0.8791 0.8199
vt 0.8704 0.7819
vt 0.8953 0.8529
vt 0.8791 0.8199
vt 0.8924 0.8188
vt 0.8821 0.8589
vt 0.9077 0.4775
vt 0.8893 0.5137
vt 0.8868 0.4897
vt 0.5430 0.1872
vt 0.5384 0.1501
vt 0.5574 0.1666
vt 0.6362 0.6958
vt 0.6694 0.6768
vt 0.6660 0.7022
vt 0.5954 0.1643
vt 0.5574 0.1666
vt 0.5764 0.1501
vt 0.5925 0.1878
vt 0.5676 0.2030
vt 0.5574 0.1666
vt 0.9374 0.1666
vt 0.5672 0.4672
vt 0.5417 0.4802
vt 0.5499 0.4445
vt 0.5569 0.2986
vt 0.5523 0.2615
vt 0.5745 0.2776
vt 0.5892 0.4346
vt 0.5580 0.4087
vt 0.5834 0.3956
vt 0.5925 0.7603
vt 0.9106 0.7976
vt 0.9025 0.7602
vt 0.9328 0.7585
vt 0.7206 0.6774
vt 0.6934 0.6467
vt 0.7280 0.6348
vt 0.8651 0.6886
vt 0.5993 0.6144
vt 0.6049 0.6507
vt 0.5755 0.6218
vt 0.6334 0.1651
vt 0.7407 0.4957
vt 0.7344 0.5260
vt 0.7093 0.5079
vt 0.9518 0.1872
vt 0.9471 0.2244
vt 0.9272 0.2030
vt 0.9114 0.7367
vt 0.8507 0.5564
vt 0.8575 0.5273
vt 0.8804 0.5533
vt 0.7229 0.2037
vt 0.6854 0.2092
vt 0.7094 0.1815
vt 0.5730 0.8407
vt 0.5843 0.7976
vt 0.6026 0.8189
vt 0.8780 0.6106
vt 0.9016 0.6427
vt 0.8771 0.6521
vt 0.5845 0.2386
vt 0.5523 0.2615
vt 0.5477 0.2244
vt 0.6334 0.1893
vt 0.6334 0.1651
vt 0.6714 0.1835
vt 0.6177 0.4301
vt 0.6165 0.4571
vt 0.5892 0.4346
vt 0.7407 0.4957
vt 0.7737 0.4886
vt 0.7661 0.5179
vt 0.6018 0.2742
vt 0.5745 0.2776
vt 0.5845 0.2386
vt 0.7028 0.5302
vt 0.6797 0.5333
vt 0.6831 0.5073
vt 0.5709 0.5057
vt 0.5901 0.5232
vt 0.5748 0.5442
vt 0.8728 0.7536
vt 0.9114 0.7367
vt 0.9025 0.7602
vt 0.7086 0.3630
vt 0.6991 0.3355
vt 0.7334 0.3520
vt 0.5662 0.3729
vt 0.5600 0.5844
vt 0.5254 0.5518
vt 0.5486 0.5383
vt 0.9166 0.3148
vt 0.8968 0.3500
vt 0.8900 0.3115
vt 0.5823 0.6617
vt 0.5394 0.5959
vt 0.9140 0.7022
vt 0.5843 0.7976
vt 0.8349 0.6577
vt 0.8574 0.6659
vt 0.8291 0.7017
vt 0.6225 0.7541
vt 0.5834 0.7367
vt 0.6022 0.7199
vt 0.6934 0.6467
vt 0.6694 0.6768
vt 0.6576 0.6540
vt 0.6022 0.7199
vt 0.6362 0.6958
vt 0.6415 0.7258
vt 0.5925 0.7603
vt 0.5843 0.7976
vt 0.5619 0.7585
vt 0.5823 0.6617
vt 0.6150 0.6738
vt 0.5899 0.6916
vt 0.7386 0.6115
vt 0.7642 0.6127
vt 0.7635 0.6452
vt 0.5755 0.6218
vt 0.9288 0.5046
vt 0.9077 0.4775
vt 0.9311 0.4664
vt 0.6049 0.6507
vt 0.6450 0.6312
vt 0.6150 0.6738
vt 0.5899 0.6916
vt 0.5394 0.5959
vt 0.6362 0.6958
vt 0.6150 0.6738
vt 0.6576 0.6540
vt 0.9113 0.4072
vt 0.9286 0.3729
vt 0.9368 0.4087
vt 0.5569 0.2986
vt 0.5938 0.3129
vt 0.5615 0.3357
vt 0.8211 0.4538
vt 0.8386 0.4744
vt 0.8148 0.4870
vt 0.5336 0.5160
vt 0.7618 0.5517
vt 0.7956 0.5553
vt 0.7767 0.5823
vt 0.8345 0.2388
vt 0.8002 0.2202
vt 0.8383 0.2117
vt 0.6566 0.2373
vt 0.6317 0.2328
vt 0.6563 0.2120
vt 0.8234 0.1836
vt 0.8424 0.1501
vt 0.8614 0.1654
vt 0.8929 0.7196
vt 0.8914 0.6889
vt 0.9140 0.7022
vt 0.9076 0.6683
vt 0.9076 0.6683
vt 0.8853 0.2581
vt 0.9052 0.2380
vt 0.9073 0.2760
vt 0.8994 0.1643
vt 0.9374 0.1666
vt 0.9023 0.1878
vt 0.8286 0.4209
vt 0.7870 0.4255
vt 0.8117 0.3917
vt 0.8046 0.5998
vt 0.8253 0.6258
vt 0.7881 0.6178
vt 0.7635 0.6452
vt 0.8614 0.1898
vt 0.8614 0.1654
vt 0.8994 0.1643
vt 0.9368 0.4087
vt 0.9449 0.4445
vt 0.9143 0.4326
vt 0.8914 0.6889
vt 0.8823 0.4399
vt 0.9143 0.4326
vt 0.9023 0.4538
vt 0.7217 0.5922
vt 0.7005 0.6157
vt 0.6793 0.6014
vt 0.9425 0.2615
vt 0.9294 0.2410
vt 0.9471 0.2244
vt 0.7720 0.2272
vt 0.8002 0.2202
vt 0.7921 0.2458
vt 0.9518 0.1872
vt 0.8614 0.1898
vt 0.9023 0.1878
vt 0.8829 0.2117
vt 0.5834 0.7367
vt 0.5899 0.6916
vt 0.8929 0.7196
vt 0.9363 0.5852
vt 0.9693 0.5518
vt 0.9489 0.5377
vt 0.9612 0.5160
vt 0.6714 0.1835
vt 0.8641 0.2769
vt 0.8860 0.2875
vt 0.8512 0.3095
vt 0.8968 0.3500
vt 0.9332 0.3357
vt 0.9286 0.3729
vt 0.8651 0.6886
vt 0.8105 0.6605
vt 0.7741 0.6772
vt 0.7957 0.6410
vt 0.7280 0.6348
vt 0.7881 0.6178
vt 0.9356 0.6284
vt 0.8854 0.7853
vt 0.8105 0.6605
vt 0.8253 0.6258
vt 0.8349 0.6577
vt 0.9218 0.8407
vt 0.6113 0.4020
vt 0.9106 0.7976
vt 0.9379 0.2986
vt 0.9332 0.3357
vt 0.9166 0.3148
vt 0.6829 0.3845
vt 0.6800 0.3575
vt 0.7086 0.3630
vt 0.5954 0.1643
vt 0.9218 0.8407
vt 0.6563 0.2120
vt 0.5789 0.5985
vt 0.6714 0.1835
vt 0.6097 0.2484
vt 0.5885 0.2149
vt 0.6122 0.2102
vt 0.6122 0.2102
vt 0.5925 0.1878
vt 0.6334 0.1893
vt 0.5430 0.1872
vt 0.5676 0.2030
vt 0.5477 0.2244
vt 0.7474 0.1686
vt 0.7408 0.2577
vt 0.7433 0.2313
vt 0.7673 0.2559
vt 0.8151 0.3291
vt 0.7854 0.3008
vt 0.8067 0.2842
vt 0.8994 0.1643
vt 0.8234 0.1836
vt 0.8614 0.1898
vt 0.8383 0.2117
vt 0.9052 0.2380
vt 0.8829 0.2117
vt 0.9272 0.2030
vt 0.9073 0.2760
vt 0.9425 0.2615
vt 0.9379 0.2986
vt 0.8614 0.2337
vt 0.7957 0.6410
vt 0.8574 0.6659
vt 0.8533 0.6348
vt 0.9363 0.5852
vt 0.8999 0.5839
vt 0.9050 0.5591
vt 0.9016 0.6427
vt 0.9116 0.6183
vt 0.9356 0.6284
vt 0.5709 0.5057
vt 0.5336 0.5160
vt 0.5417 0.4802
vt 0.6235 0.5553
vt 0.5486 0.5383
vt 0.5938 0.3129
vt 0.6130 0.3314
vt 0.5839 0.3518
vt 0.6388 0.2714
vt 0.6417 0.2977
vt 0.6151 0.2971
vt 0.9311 0.4664
vt 0.8823 0.4399
vt 0.8514 0.4457
vt 0.8620 0.4170
vt 0.9693 0.5518
vt 0.9775 0.5876
vt 0.9576 0.5733
vt 0.7767 0.5823
vt 0.7005 0.6157
vt 0.7386 0.6115
vt 0.7217 0.5922
vt 0.7475 0.5776
vt 0.5845 0.2386
vt 0.6317 0.2328
vt 0.6388 0.2714
vt 0.6097 0.2484
vt 0.6151 0.2971
vt 0.7094 0.1815
vt 0.8234 0.1836
vt 0.7846 0.1843
vt 0.8044 0.1501
vt 0.8345 0.2388
vt 0.8338 0.2838
vt 0.8157 0.2586
vt 0.9294 0.2410
vt 0.7846 0.1843
vt 0.7474 0.1951
vt 0.7474 0.1686
vt 0.9073 0.2760
vt 0.8900 0.3115
vt 0.8860 0.2875
vt 0.8291 0.6015
vt 0.8533 0.6348
vt 0.8458 0.5005
vt 0.8507 0.5564
vt 0.8739 0.5790
vt 0.8484 0.5861
vt 0.8780 0.6106
vt 0.8213 0.5720
vt 0.8046 0.5998
vt 0.7956 0.5553
vt 0.8484 0.5861
vt 0.9247 0.5432
vt 0.9489 0.5377
vt 0.9576 0.5733
vt 0.5942 0.4981
vt 0.6007 0.5895
vt 0.5825 0.5699
vt 0.6235 0.5553
vt 0.5789 0.5985
vt 0.5499 0.4445
vt 0.5950 0.4736
vt 0.5892 0.4346
vt 0.5839 0.3518
vt 0.9311 0.4664
vt 0.9449 0.4445
vt 0.9531 0.4802
vt 0.8823 0.4399
vt 0.8889 0.3949
vt 0.9113 0.4072
vt 0.9288 0.5046
vt 0.9531 0.4802
vt 0.9612 0.5160
vt 0.9247 0.5432
vt 0.9121 0.5223
vt 0.9288 0.5046
vt 0.8653 0.4787
vt 0.8505 0.3888
vt 0.8733 0.3690
vt 0.8889 0.3949
vt 0.9023 0.4538
vt 0.9035 0.3744
vt 0.7924 0.3528
vt 0.8151 0.3291
vt 0.8242 0.3610
vt 0.6854 0.2092
vt 0.6730 0.2567
vt 0.6566 0.2373
vt 0.7094 0.2258
vt 0.7094 0.2258
vt 0.6730 0.2567
vt 0.6655 0.2863
vt 0.6388 0.2714
vt 0.7094 0.1815
vt 0.9035 0.3744
vt 0.8767 0.3337
vt 0.8968 0.3500
vt 0.8733 0.3690
vt 0.7700 0.2033
vt 0.8157 0.2586
vt 0.8641 0.2769
vt 0.8043 0.1971
vt 0.8900 0.3115
vt 0.8767 0.3337
vt 0.8512 0.3095
vt 0.8780 0.6106
vt 0.8804 0.5533
vt 0.6397 0.4996
vt 0.5950 0.4736
vt 0.6165 0.4571
vt 0.6799 0.4629
vt 0.6414 0.4465
vt 0.6766 0.4350
vt 0.6294 0.5839
vt 0.6113 0.4020
vt 0.6342 0.3886
vt 0.6485 0.4109
vt 0.6414 0.4465
vt 0.6414 0.4465
vt 0.6661 0.4874
vt 0.6397 0.4996
vt 0.9121 0.5223
vt 0.8893 0.5137
vt 0.6730 0.2567
vt 0.7022 0.2543
vt 0.6942 0.2846
vt 0.6831 0.3112
vt 0.6386 0.3239
vt 0.6417 0.2977
vt 0.6800 0.3575
vt 0.6536 0.3477
vt 0.6831 0.3112
vt 0.6536 0.3477
vt 0.6348 0.3639
vt 0.6386 0.3239
vt 0.6386 0.3239
vt 0.8531 0.3446
vt 0.8151 0.3291
vt 0.8338 0.2838
vt 0.7673 0.2559
vt 0.8739 0.5790
vt 0.6139 0.5128
vt 0.6915 0.5537
vt 0.6552 0.5637
vt 0.6797 0.5333
vt 0.6190 0.6297
vt 0.5993 0.6144
vt 0.6294 0.5839
vt 0.6537 0.6001
vt 0.6705 0.6260
vt 0.6450 0.6312
vt 0.6190 0.6297
vt 0.8213 0.5720
vt 0.8458 0.5005
vt 0.8386 0.4744
vt 0.7700 0.2033
vt 0.7932 0.4655
vt 0.8148 0.4870
vt 0.7737 0.4886
vt 0.7725 0.3291
vt 0.6552 0.5637
vt 0.6537 0.6001
vt 0.8237 0.5196
vt 0.8263 0.5460
vt 0.8458 0.5005
vt 0.8653 0.4787
vt 0.8868 0.4897
vt 0.7952 0.5099
vt 0.8286 0.4209
vt 0.8505 0.3888
vt 0.8620 0.4170
vt 0.8286 0.4209
vt 0.7956 0.5553
vt 0.7618 0.5517
vt 0.7149 0.5501
vt 0.7344 0.5260
vt 0.8211 0.4538
vt 0.7932 0.4655
vt 0.7870 0.4255
vt 0.7072 0.4557
vt 0.7028 0.5302
vt 0.7635 0.4600
vt 0.8242 0.3610
vt 0.7635 0.4600
vt 0.7563 0.4299
vt 0.7870 0.4255
vt 0.7171 0.4814
vt 0.7352 0.4596
vt 0.7407 0.4957
vt 0.7751 0.3908
vt 0.7599 0.3575
vt 0.7937 0.3764
vt 0.7751 0.3908
vt 0.7937 0.3764
vt 0.7599 0.3575
vt 0.7504 0.3153
vt 0.7599 0.3575
vt 0.7334 0.3520
vt 0.7504 0.3153
vt 0.7532 0.2895
vt 0.7854 0.3008
vt 0.7377 0.3924
vt 0.6942 0.2846
vt 0.7475 0.5776
vt 0.7086 0.5727
vt 0.6854 0.5765
vt 0.6915 0.5537
vt 0.7086 0.5727
vt 0.6552 0.5637
vt 0.6854 0.5765
vt 0.6537 0.6001
vt 0.7563 0.4299
vt 0.7352 0.4596
vt 0.7254 0.4277
vt 0.6793 0.6014
vt 0.6452 0.5281
vt 0.6485 0.4109
vt 0.7570 0.4062
vt 0.6925 0.4843
vt 0.7072 0.4557
vt 0.7093 0.5079
vt 0.6831 0.5073
vt 0.6925 0.4843
vt 0.7377 0.3924
vt 0.7254 0.4277
vt 0.7021 0.4038
vt 0.7751 0.3908
vt 0.7570 0.4062
vt 0.7377 0.3924
vt 0.6831 0.5073
vt 0.7146 0.3019
vt 0.6991 0.3355
vt 0.6831 0.3112
vt 0.6452 0.5281
vt 0.7266 0.3258
vt 0.6348 0.3639
vt 0.6572 0.3756
vt 0.6342 0.3886
vt 0.6572 0.3756
vt 0.6829 0.3845
vt 0.6744 0.4091
vt 0.6572 0.3756
vt 0.6744 0.4091
vt 0.6108 0.3580
vt 0.5615 0.3357
vt 0.6661 0.4874
vt 0.6130 0.3314
vt 0.6705 0.6260
vt 0.8043 0.1971
vt 0.7921 0.2458
vt 0.7408 0.2577
vt 0.7532 0.2895
vt 0.7218 0.2762
vt 0.7720 0.2272
vt 0.7022 0.2543
vt 0.7146 0.3019
vt 0.7218 0.2762
vt 0.2306 0.5575
vt 0.1977 0.5454
vt 0.2270 0.5167
vt 0.1099 0.1752
vt 0.0807 0.2071
vt 0.0719 0.1705
vt 0.4038 0.8221
vt 0.4345 0.8178
vt 0.4362 0.8447
vt 0.0575 0.1912
vt 0.0807 0.2071
vt 0.0621 0.2283
vt 0.0575 0.1912
vt 0.0529 0.1541
vt 0.0719 0.1705
vt 0.0909 0.1541
vt 0.2020 0.7110
vt 0.2124 0.6766
vt 0.2410 0.6984
vt 0.1583 0.7210
vt 0.1355 0.7657
vt 0.1186 0.7483
vt 0.1028 0.7947
vt 0.3068 0.5418
vt 0.2959 0.5793
vt 0.2739 0.5661
vt 0.4345 0.8178
vt 0.4207 0.7946
vt 0.4528 0.7980
vt 0.0839 0.5662
vt 0.1046 0.5517
vt 0.1133 0.5860
vt 0.0667 0.2654
vt 0.0621 0.2283
vt 0.0994 0.2425
vt 0.1918 0.7507
vt 0.1597 0.7653
vt 0.1689 0.7429
vt 0.1046 0.6635
vt 0.0994 0.2425
vt 0.1314 0.2651
vt 0.0991 0.2798
vt 0.3635 0.7659
vt 0.3617 0.7281
vt 0.3794 0.7462
vt 0.3617 0.7281
vt 0.3776 0.6937
vt 0.3903 0.7195
vt 0.1482 0.1910
vt 0.1087 0.2036
vt 0.1099 0.1752
vt 0.3762 0.4108
vt 0.3604 0.4280
vt 0.3394 0.4179
vt 0.0906 0.7067
vt 0.1046 0.6635
vt 0.1145 0.7055
vt 0.0760 0.3397
vt 0.1146 0.3537
vt 0.0806 0.3768
vt 0.1314 0.2651
vt 0.1393 0.2315
vt 0.1614 0.2480
vt 0.2238 0.1857
vt 0.1987 0.2128
vt 0.1858 0.1869
vt 0.1070 0.4769
vt 0.0802 0.4708
vt 0.1020 0.4381
vt 0.4149 0.7044
vt 0.4295 0.7448
vt 0.4047 0.7486
vt 0.1601 0.6278
vt 0.1538 0.6529
vt 0.1325 0.6383
vt 0.1977 0.5454
vt 0.2138 0.5765
vt 0.1890 0.5814
vt 0.0839 0.5662
vt 0.0517 0.5773
vt 0.0716 0.5442
vt 0.4518 0.1705
vt 0.4662 0.1912
vt 0.4423 0.2071
vt 0.4518 0.1705
vt 0.0743 0.6320
vt 0.1400 0.7034
vt 0.0906 0.7067
vt 0.0890 0.8178
vt 0.2998 0.1703
vt 0.3635 0.7659
vt 0.4072 0.7735
vt 0.3887 0.7903
vt 0.4072 0.7735
vt 0.3794 0.7462
vt 0.4047 0.7486
vt 0.0939 0.7448
vt 0.1387 0.4532
vt 0.1273 0.5033
vt 0.1070 0.4769
vt 0.3112 0.3360
vt 0.3307 0.3707
vt 0.3037 0.3757
vt 0.1028 0.7947
vt 0.1197 0.8219
vt 0.1583 0.7210
vt 0.1631 0.6770
vt 0.1878 0.6880
vt 0.2374 0.6509
vt 0.2660 0.6726
vt 0.3531 0.7032
vt 0.1140 0.8569
vt 0.0875 0.8447
vt 0.1197 0.8219
vt 0.4295 0.7448
vt 0.0875 0.8447
vt 0.1344 0.7899
vt 0.4139 0.4023
vt 0.4431 0.3768
vt 0.4512 0.4126
vt 0.1597 0.7653
vt 0.1344 0.7899
vt 0.1355 0.7657
vt 0.0716 0.5442
vt 0.0399 0.5558
vt 0.0480 0.5200
vt 0.4919 0.5916
vt 0.4719 0.5773
vt 0.4838 0.5558
vt 0.2381 0.2065
vt 0.2602 0.6391
vt 0.2551 0.6140
vt 0.2858 0.6411
vt 0.3378 0.1794
vt 0.3568 0.1541
vt 0.2824 0.7046
vt 0.2428 0.7240
vt 0.2410 0.6984
vt 0.3948 0.1541
vt 0.4138 0.1755
vt 0.3758 0.1899
vt 0.3934 0.2307
vt 0.4242 0.2426
vt 0.3840 0.2549
vt 0.4293 0.2808
vt 0.4085 0.3197
vt 0.3978 0.2769
vt 0.4085 0.3197
vt 0.3826 0.3429
vt 0.3826 0.3169
vt 0.0562 0.4842
vt 0.0643 0.4484
vt 0.0802 0.4708
vt 0.4138 0.1755
vt 0.4299 0.4352
vt 0.4355 0.4726
vt 0.4062 0.4553
vt 0.1554 0.3486
vt 0.1696 0.3774
vt 0.1378 0.3733
vt 0.4675 0.4842
vt 0.4757 0.5200
vt 0.4415 0.5089
vt 0.4242 0.2426
vt 0.4138 0.2041
vt 0.4423 0.2071
vt 0.2020 0.7110
vt 0.2428 0.7240
vt 0.2265 0.7438
vt 0.4523 0.3026
vt 0.4293 0.2808
vt 0.4570 0.2654
vt 0.1479 0.1677
vt 0.1858 0.1869
vt 0.1482 0.1910
vt 0.2971 0.7440
vt 0.2619 0.7412
vt 0.2824 0.7046
vt 0.2619 0.7412
vt 0.4207 0.7946
vt 0.4317 0.5470
vt 0.4528 0.5321
vt 0.4719 0.5773
vt 0.1056 0.3770
vt 0.4616 0.2283
vt 0.4149 0.7044
vt 0.3903 0.7195
vt 0.4007 0.6837
vt 0.4528 0.6084
vt 0.4335 0.3191
vt 0.4154 0.3545
vt 0.4085 0.3197
vt 0.3617 0.7281
vt 0.3316 0.7511
vt 0.3196 0.7221
vt 0.2971 0.7440
vt 0.3196 0.7221
vt 0.2824 0.7046
vt 0.3292 0.6921
vt 0.1918 0.7507
vt 0.4097 0.8568
vt 0.0743 0.6320
vt 0.0732 0.5890
vt 0.0941 0.5991
vt 0.1479 0.1677
vt 0.4381 0.6687
vt 0.4744 0.6230
vt 0.4327 0.6250
vt 0.4528 0.6084
vt 0.4149 0.7044
vt 0.2374 0.6509
vt 0.2213 0.6169
vt 0.2551 0.6140
vt 0.4473 0.7624
vt 0.4479 0.5828
vt 0.4528 0.6084
vt 0.4078 0.5922
vt 0.3142 0.2805
vt 0.3364 0.3252
vt 0.2983 0.3003
vt 0.3903 0.7195
vt 0.4381 0.6687
vt 0.3765 0.6189
vt 0.4034 0.6331
vt 0.3751 0.6563
vt 0.1286 0.2995
vt 0.1520 0.2841
vt 0.1564 0.3162
vt 0.3567 0.6369
vt 0.3513 0.6732
vt 0.3334 0.6502
vt 0.2997 0.6756
vt 0.3531 0.7032
vt 0.1164 0.2260
vt 0.1482 0.1910
vt 0.1393 0.2315
vt 0.1520 0.2841
vt 0.1614 0.2480
vt 0.1767 0.2710
vt 0.0807 0.2071
vt 0.1087 0.2036
vt 0.1164 0.2260
vt 0.1858 0.1869
vt 0.1937 0.3336
vt 0.1554 0.3486
vt 0.1564 0.3162
vt 0.2618 0.1719
vt 0.1884 0.2422
vt 0.1614 0.2480
vt 0.1701 0.2170
vt 0.3568 0.1541
vt 0.2618 0.1980
vt 0.3014 0.1953
vt 0.2841 0.2314
vt 0.4335 0.3191
vt 0.3620 0.2412
vt 0.3673 0.2793
vt 0.3378 0.2712
vt 0.4138 0.2041
vt 0.4570 0.2654
vt 0.3840 0.2549
vt 0.3978 0.2769
vt 0.3758 0.1899
vt 0.3646 0.2144
vt 0.3378 0.1794
vt 0.0517 0.5773
vt 0.1046 0.6635
vt 0.0988 0.6218
vt 0.1325 0.6383
vt 0.0958 0.5140
vt 0.0706 0.5063
vt 0.0802 0.4708
vt 0.1326 0.5388
vt 0.1273 0.5033
vt 0.1515 0.5144
vt 0.1020 0.4381
vt 0.0643 0.4484
vt 0.0725 0.4126
vt 0.0958 0.5140
vt 0.4139 0.4023
vt 0.4299 0.4352
vt 0.3998 0.4273
vt 0.3290 0.4522
vt 0.3762 0.4108
vt 0.4132 0.6619
vt 0.4034 0.6331
vt 0.3776 0.5885
vt 0.3938 0.5535
vt 0.4078 0.5922
vt 0.3751 0.6563
vt 0.2138 0.5765
vt 0.2359 0.5888
vt 0.1984 0.6053
vt 0.2096 0.6488
vt 0.2950 0.6050
vt 0.2618 0.5890
vt 0.3513 0.6732
vt 0.2858 0.6411
vt 0.3567 0.6369
vt 0.2602 0.6391
vt 0.3288 0.6151
vt 0.2238 0.1857
vt 0.1701 0.2170
vt 0.1987 0.2128
vt 0.0714 0.3026
vt 0.0991 0.2798
vt 0.1007 0.3155
vt 0.1571 0.4883
vt 0.2998 0.1703
vt 0.3378 0.1794
vt 0.3014 0.1953
vt 0.3113 0.2223
vt 0.3378 0.2111
vt 0.3075 0.2560
vt 0.2618 0.1719
vt 0.4477 0.3397
vt 0.4154 0.3545
vt 0.4477 0.3397
vt 0.4431 0.3768
vt 0.0399 0.5558
vt 0.0941 0.5991
vt 0.1229 0.6153
vt 0.1878 0.6880
vt 0.0480 0.5200
vt 0.0562 0.4842
vt 0.0706 0.5063
vt 0.0958 0.5140
vt 0.1046 0.5517
vt 0.1326 0.5388
vt 0.1487 0.5689
vt 0.0732 0.5890
vt 0.1229 0.6153
vt 0.1133 0.5860
vt 0.1444 0.6027
vt 0.0984 0.4125
vt 0.0984 0.4125
vt 0.3826 0.3429
vt 0.3888 0.3776
vt 0.3485 0.3498
vt 0.4077 0.4861
vt 0.4355 0.4726
vt 0.4415 0.5089
vt 0.3538 0.6029
vt 0.3084 0.6520
vt 0.3068 0.6270
vt 0.4078 0.5922
vt 0.4415 0.5089
vt 0.4317 0.5470
vt 0.4064 0.5169
vt 0.1825 0.6566
vt 0.2096 0.6488
vt 0.1896 0.6293
vt 0.2213 0.6169
vt 0.2359 0.5888
vt 0.1984 0.6053
vt 0.1601 0.6278
vt 0.1751 0.6095
vt 0.1896 0.6293
vt 0.2306 0.5575
vt 0.2739 0.5661
vt 0.2618 0.5890
vt 0.1648 0.5881
vt 0.1890 0.5814
vt 0.1751 0.6095
vt 0.1730 0.5617
vt 0.2306 0.5575
vt 0.2541 0.5349
vt 0.3215 0.5780
vt 0.3572 0.5657
vt 0.3538 0.6029
vt 0.2120 0.2685
vt 0.1767 0.2710
vt 0.1884 0.2422
vt 0.1554 0.3486
vt 0.1146 0.3537
vt 0.1300 0.3288
vt 0.1007 0.3155
vt 0.2238 0.2272
vt 0.2120 0.2685
vt 0.2209 0.3028
vt 0.1856 0.3022
vt 0.2345 0.2526
vt 0.2238 0.2272
vt 0.2540 0.2295
vt 0.2432 0.2787
vt 0.2345 0.2526
vt 0.2983 0.3003
vt 0.3112 0.3360
vt 0.2723 0.3279
vt 0.2540 0.2295
vt 0.2749 0.2705
vt 0.2238 0.1857
vt 0.3548 0.3837
vt 0.3307 0.3707
vt 0.3580 0.3085
vt 0.3580 0.3085
vt 0.3157 0.4017
vt 0.3648 0.4509
vt 0.3604 0.4280
vt 0.3998 0.4273
vt 0.3157 0.4017
vt 0.3394 0.4179
vt 0.3031 0.4275
vt 0.1579 0.4074
vt 0.1196 0.3976
vt 0.1378 0.3733
vt 0.2504 0.3077
vt 0.2876 0.3521
vt 0.2731 0.2960
vt 0.1963 0.4602
vt 0.2353 0.4278
vt 0.2489 0.4517
vt 0.2723 0.3279
vt 0.3364 0.3252
vt 0.2342 0.3472
vt 0.1444 0.6027
vt 0.1825 0.6566
vt 0.1648 0.5881
vt 0.1487 0.5689
vt 0.1730 0.5617
vt 0.1897 0.5081
vt 0.1635 0.5381
vt 0.1515 0.5144
vt 0.2875 0.4698
vt 0.3149 0.4773
vt 0.2929 0.4937
vt 0.2270 0.5167
vt 0.1897 0.5081
vt 0.2135 0.4899
vt 0.1941 0.4282
vt 0.1674 0.4581
vt 0.1568 0.4338
vt 0.2270 0.5167
vt 0.2411 0.4782
vt 0.2526 0.5042
vt 0.1696 0.3774
vt 0.1984 0.3647
vt 0.1957 0.3960
vt 0.1286 0.4256
vt 0.1056 0.3770
vt 0.4594 0.4484
vt 0.4675 0.4842
vt 0.4355 0.4726
vt 0.3826 0.4730
vt 0.4077 0.4861
vt 0.3741 0.5001
vt 0.4317 0.5470
vt 0.4242 0.5719
vt 0.3938 0.5535
vt 0.3068 0.6270
vt 0.3215 0.5780
vt 0.3288 0.6151
vt 0.2950 0.6050
vt 0.3776 0.5885
vt 0.2959 0.5793
vt 0.4479 0.5828
vt 0.4528 0.5321
vt 0.0667 0.2654
vt 0.1286 0.2995
vt 0.1856 0.3022
vt 0.1856 0.3022
vt 0.1300 0.3288
vt 0.2182 0.3278
vt 0.2182 0.3278
vt 0.2550 0.4129
vt 0.2857 0.4030
vt 0.2692 0.4331
vt 0.2381 0.2065
vt 0.3329 0.2418
vt 0.3378 0.2712
vt 0.3075 0.2560
vt 0.3378 0.2111
vt 0.3646 0.2144
vt 0.3620 0.2412
vt 0.4064 0.5169
vt 0.3800 0.5283
vt 0.3741 0.5001
vt 0.3327 0.5524
vt 0.3215 0.5780
vt 0.3068 0.5418
vt 0.2857 0.4030
vt 0.2599 0.3598
vt 0.3142 0.2805
vt 0.2749 0.2705
vt 0.3075 0.2560
vt 0.1825 0.6566
vt 0.1318 0.6792
vt 0.1631 0.6770
vt 0.1827 0.4827
vt 0.3290 0.4522
vt 0.3045 0.4520
vt 0.3031 0.4275
vt 0.1286 0.4256
vt 0.0984 0.4125
vt 0.1196 0.3976
vt 0.2595 0.3886
vt 0.1957 0.3960
vt 0.2189 0.4077
vt 0.1941 0.4282
vt 0.1579 0.4074
vt 0.1568 0.4338
vt 0.1286 0.4256
vt 0.2342 0.3472
vt 0.2599 0.3598
vt 0.2265 0.3829
vt 0.4594 0.4484
vt 0.3938 0.5535
vt 0.3391 0.4903
vt 0.3648 0.4509
vt 0.3826 0.4730
vt 0.3572 0.5657
vt 0.3474 0.5282
vt 0.3800 0.5283
vt 0.2804 0.5405
vt 0.2792 0.5141
vt 0.3119 0.5091
vt 0.3068 0.5418
vt 0.3474 0.5282
vt 0.3391 0.4903
vt 0.3741 0.5001
vt 0.3329 0.2418
vt 0.3934 0.2307
vt 0.1689 0.7429
vt 0.1145 0.7055
vt 0.1674 0.4581
vt 0.2353 0.4278
vt 0.1963 0.4602
vt 0.2541 0.5349
vt 0.2792 0.5141
vt 0.2804 0.5405
vt 0.2875 0.4698
vt 0.3474 0.5282
vt 0.3119 0.5091
vt 0.3149 0.4773
vt 0.2692 0.4331
vt 0.3045 0.4520
vt 0.2875 0.4698
vt 0.1318 0.6792
vt 0.2265 0.3829
vt 0.2353 0.4278
vt 0.2550 0.4129
vt 0.2189 0.4077
vt 0.2265 0.3829
vt 0.2595 0.3886
vt 0.1597 0.7653
vt 0.1918 0.7507
vt 0.1842 0.7675
vt 0.2225 0.7578
vt 0.1518 0.7895
vt 0.2225 0.7578
vt 0.2265 0.7438
vt 0.2619 0.7546
vt 0.1271 0.8629
vt 0.1141 0.8569
vt 0.1330 0.8239
vt 0.1197 0.8220
vt 0.1330 0.8239
vt 0.1344 0.7899
vt 0.1518 0.7895
vt 0.2971 0.7440
vt 0.3011 0.7580
vt 0.2619 0.7546
vt 0.3316 0.7511
vt 0.3316 0.7511
vt 0.3635 0.7660
vt 0.3390 0.7680
vt 0.3713 0.7900
vt 0.3713 0.7900
vt 0.3887 0.7904
vt 0.3904 0.8241
vt 0.4038 0.8221
vt 0.3904 0.8241
vt 0.4096 0.8569
vt 0.3965 0.8629
f 4/1 38/2 3/3
f 4/4 5/5 28/6
f 6/7 7/8 29/9
f 36/10 39/11 18/12
f 17/13 39/14 16/15
f 7/16 8/17 30/18
f 5/19 6/20 31/21
f 38/22 1/23 2/24
f 3/3 38/2 2/24
f 29/25 30/26 24/27
f 30/18 8/17 32/28
f 28/6 5/5 31/21
f 29/25 24/27 25/29
f 28/6 31/21 26/30
f 26/30 27/31 28/6
f 29/25 7/8 30/26
f 25/32 26/30 31/21
f 23/33 24/27 30/26
f 31/21 6/20 29/9
f 8/17 9/34 32/28
f 31/21 29/9 25/32
f 9/35 10/36 33/37
f 28/6 38/2 4/4
f 37/38 20/39 21/40
f 10/41 11/42 34/43
f 12/44 13/45 35/46
f 19/47 36/10 18/12
f 15/48 16/15 39/14
f 20/49 35/50 19/51
f 39/11 36/10 14/52
f 13/53 14/52 36/10
f 35/46 37/54 12/44
f 11/55 12/44 37/54
f 21/40 34/56 37/38
f 33/57 34/58 22/59
f 30/18 32/28 23/33
f 38/2 28/6 27/31
f 19/51 35/50 36/10
f 37/38 35/46 20/39
f 34/56 11/42 37/38
f 18/12 39/11 17/13
f 34/58 21/40 22/59
f 33/57 22/59 23/60
f 15/48 39/14 14/52
f 33/37 10/36 34/58
f 36/10 35/50 13/53
f 23/33 32/28 33/57
f 1/23 38/22 27/31
f 32/28 9/34 33/57
f 44/61 52/62 43/63
f 52/62 44/61 51/64
f 50/65 51/66 45/67
f 46/68 50/65 45/67
f 50/65 46/68 49/69
f 51/64 44/61 45/67
f 43/63 52/62 53/70
f 42/71 43/63 53/70
f 42/72 54/73 41/74
f 40/75 41/74 54/73
f 47/76 49/69 46/68
f 49/69 47/76 48/77
f 42/71 53/70 54/73
f 62/78 63/79 64/80
f 62/78 64/80 61/81
f 56/82 69/83 55/84
f 60/85 61/86 65/87
f 61/81 64/80 65/87
f 60/88 66/89 59/90
f 66/89 67/91 59/90
f 59/90 67/91 58/92
f 57/93 58/94 68/95
f 68/95 69/96 57/93
f 58/92 67/91 68/95
f 57/93 69/96 56/82
f 60/88 65/87 66/89
f 80/97 101/98 15/99
f 80/100 79/101 91/102
f 78/103 77/104 92/105
f 99/106 102/107 90/108
f 1/109 102/110 2/111
f 77/112 76/113 93/114
f 79/115 78/116 94/117
f 101/118 17/119 16/120
f 15/99 101/98 16/120
f 92/121 93/122 84/123
f 93/114 76/113 95/124
f 81/125 91/126 82/127
f 83/128 92/121 84/123
f 95/129 75/130 96/131
f 83/132 82/133 94/134
f 91/102 79/101 94/117
f 91/102 94/117 82/127
f 85/135 84/123 93/122
f 94/117 78/116 92/105
f 76/113 75/130 95/124
f 94/117 92/105 83/132
f 75/130 74/136 96/131
f 91/102 101/98 80/100
f 100/137 88/138 87/139
f 74/140 73/141 97/142
f 72/143 71/144 98/145
f 89/146 99/106 90/108
f 3/147 2/111 102/110
f 88/148 98/149 89/150
f 102/107 99/106 70/151
f 71/152 70/151 99/106
f 98/145 100/153 72/143
f 73/154 72/143 100/153
f 101/98 91/102 81/125
f 97/155 86/156 96/157
f 100/137 87/139 97/158
f 92/121 77/104 93/122
f 89/146 98/149 99/106
f 100/137 98/145 88/138
f 97/142 73/141 100/137
f 90/108 102/107 1/109
f 97/155 87/139 86/156
f 95/129 96/131 86/156
f 3/147 102/110 70/151
f 96/131 74/136 97/155
f 99/106 98/149 71/152
f 86/156 85/159 95/129
f 17/119 101/118 81/125
f 93/114 95/124 85/135
f 103/160 40/161 114/162
f 103/160 114/162 104/163
f 47/164 109/165 48/166
f 105/167 104/168 113/169
f 104/163 114/162 113/169
f 105/170 112/171 106/172
f 112/171 111/173 106/172
f 106/172 111/173 107/174
f 108/175 107/176 110/177
f 110/177 109/178 108/175
f 107/174 111/173 110/177
f 108/175 109/178 47/164
f 105/170 113/169 112/171
f 117/179 123/180 118/181
f 123/180 117/179 124/182
f 125/183 124/184 116/185
f 115/186 125/183 116/185
f 125/183 115/186 126/187
f 124/182 117/179 116/185
f 118/181 123/180 122/188
f 119/189 118/181 122/188
f 119/190 121/191 120/192
f 63/193 120/192 121/191
f 56/194 126/187 115/186
f 126/187 56/194 55/195
f 119/189 122/188 121/191
f 148/196 158/197 147/198
f 157/199 148/200 149/201
f 148/196 157/199 158/197
f 158/197 127/202 147/198
f 146/203 128/204 145/205
f 146/203 147/206 128/204
f 128/204 147/206 127/202
f 151/207 153/208 154/209
f 151/207 152/210 153/208
f 154/209 155/211 151/207
f 156/212 149/213 150/214
f 149/213 156/212 157/199
f 151/207 155/211 150/215
f 150/214 155/211 156/212
f 145/205 128/204 129/216
f 145/217 130/218 144/219
f 130/218 145/217 129/216
f 143/220 144/219 130/218
f 130/218 131/221 143/220
f 132/222 142/223 143/224
f 142/225 133/226 141/227
f 133/226 142/225 132/222
f 132/222 143/224 131/221
f 141/228 134/229 140/230
f 134/229 141/228 133/226
f 135/231 139/232 140/233
f 140/230 134/229 135/231
f 137/234 139/235 136/236
f 138/237 139/235 137/234
f 136/236 139/235 135/231
f 269/238 298/239 348/240
f 170/241 17/242 198/243
f 195/244 197/245 158/246
f 241/247 198/248 81/249
f 219/250 243/251 198/252
f 90/108 1/109 202/253
f 265/254 162/255 163/256
f 167/257 168/258 236/259
f 266/260 164/261 267/262
f 156/212 155/211 190/263
f 193/264 194/265 125/266
f 128/267 394/268 185/269
f 204/270 133/226 132/222
f 328/271 320/272 264/273
f 239/274 82/133 83/132
f 345/275 358/276 183/277
f 171/278 172/279 249/280
f 125/183 216/281 124/184
f 330/282 329/283 208/284
f 324/285 277/286 299/287
f 159/288 189/289 154/290
f 311/291 227/292 203/293
f 237/294 168/295 169/296
f 218/297 239/298 240/299
f 294/300 295/301 266/302
f 345/303 341/304 335/305
f 217/306 236/307 237/308
f 374/309 371/310 386/311
f 262/312 314/313 228/314
f 81/249 82/127 241/247
f 134/315 216/316 194/317
f 373/318 381/319 378/320
f 165/321 267/262 164/261
f 263/322 160/323 261/324
f 283/325 284/326 245/327
f 210/328 112/171 113/169
f 292/329 160/323 263/322
f 216/281 213/330 124/184
f 109/165 189/331 48/166
f 225/332 258/333 132/334
f 156/335 212/336 191/337
f 394/338 197/339 196/340
f 191/341 195/342 157/343
f 190/344 189/345 110/346
f 210/347 188/348 211/349
f 235/350 209/351 234/352
f 114/162 264/353 113/169
f 191/337 157/343 156/335
f 297/354 269/355 296/356
f 320/357 396/358 188/359
f 195/244 158/246 157/343
f 211/360 111/173 112/171
f 114/162 292/361 264/353
f 153/208 159/288 154/209
f 195/362 188/363 196/364
f 48/166 189/331 159/288
f 154/209 189/289 155/211
f 272/365 176/366 177/367
f 190/344 155/211 189/345
f 167/368 238/369 166/370
f 207/371 333/372 332/373
f 212/336 156/335 190/263
f 161/374 261/324 160/323
f 355/375 339/376 354/377
f 287/378 400/379 285/380
f 280/381 199/382 276/383
f 247/384 88/385 246/386
f 192/387 215/388 213/389
f 89/150 246/386 88/148
f 227/292 214/390 203/293
f 122/188 123/180 214/391
f 309/392 224/393 252/394
f 248/395 202/396 223/397
f 336/398 343/399 326/400
f 186/401 254/402 233/403
f 130/218 129/216 234/404
f 222/405 246/406 248/407
f 177/408 178/409 268/410
f 215/411 203/293 214/390
f 231/412 268/413 271/414
f 184/415 397/416 398/417
f 173/418 251/419 172/420
f 404/421 400/422 410/423
f 1/109 171/424 202/253
f 222/425 223/426 250/427
f 213/389 215/388 214/390
f 196/340 197/339 195/362
f 212/428 110/177 111/173
f 191/341 211/429 195/342
f 216/316 134/315 192/430
f 260/431 63/193 121/191
f 181/432 273/433 180/434
f 240/435 299/287 277/286
f 128/267 185/269 129/216
f 288/436 310/437 305/438
f 284/439 175/440 176/441
f 204/442 215/388 192/387
f 253/443 130/444 187/445
f 394/268 128/267 127/202
f 185/446 235/350 234/352
f 197/245 127/202 158/246
f 131/221 130/218 253/443
f 233/447 234/352 209/351
f 121/191 122/188 259/448
f 193/264 135/449 194/265
f 133/226 192/430 134/229
f 253/450 254/451 225/452
f 136/236 135/231 193/264
f 137/234 136/236 182/453
f 17/119 81/125 198/243
f 134/229 194/317 135/231
f 110/346 189/345 109/178
f 204/442 192/387 133/226
f 230/454 294/300 266/302
f 193/455 126/187 55/195
f 123/180 124/182 213/330
f 174/456 175/457 283/458
f 227/292 122/188 214/390
f 213/330 214/390 123/180
f 383/459 382/460 373/461
f 126/187 193/455 125/183
f 216/316 192/430 213/330
f 195/362 211/429 188/363
f 241/462 239/298 218/297
f 55/195 182/463 193/455
f 182/463 136/236 193/455
f 132/222 131/221 253/443
f 112/171 210/328 211/360
f 110/346 212/428 190/344
f 216/281 125/183 194/317
f 121/191 259/448 260/431
f 111/173 211/360 191/341
f 111/173 191/341 212/428
f 240/299 276/464 218/297
f 203/293 215/411 204/442
f 264/273 316/465 328/271
f 236/259 238/369 167/257
f 240/466 83/128 84/123
f 274/467 281/468 242/469
f 242/470 219/471 218/472
f 170/473 243/474 169/475
f 282/476 85/159 86/156
f 406/477 403/478 402/479
f 177/367 268/410 272/365
f 306/480 200/481 308/482
f 89/146 90/108 248/483
f 247/484 222/485 285/486
f 249/280 202/253 171/278
f 224/487 250/488 249/489
f 252/490 173/491 174/492
f 250/427 201/493 222/425
f 187/494 233/403 254/402
f 204/442 258/495 203/293
f 258/495 256/496 203/293
f 260/497 289/498 313/499
f 311/291 203/293 256/496
f 227/500 226/501 259/502
f 262/503 161/504 162/505
f 40/161 292/361 114/162
f 205/506 228/314 314/313
f 262/312 228/314 261/507
f 238/508 414/509 389/510
f 279/511 302/512 325/513
f 268/413 296/514 271/414
f 231/515 334/516 347/517
f 181/518 63/519 290/520
f 269/355 297/354 298/239
f 234/352 233/447 187/494
f 354/521 233/447 209/351
f 130/218 234/404 187/445
f 185/446 234/352 129/216
f 397/522 235/350 185/446
f 235/523 184/524 356/525
f 237/294 236/307 168/295
f 238/369 236/259 217/306
f 237/294 169/296 243/474
f 237/526 281/468 274/467
f 199/527 279/528 274/529
f 414/509 238/508 325/530
f 240/466 239/298 83/128
f 241/462 218/297 219/471
f 84/123 85/135 299/531
f 218/297 276/464 199/382
f 239/274 241/462 82/133
f 198/252 241/247 219/250
f 218/472 199/382 242/470
f 242/469 199/382 274/467
f 198/243 243/251 170/241
f 219/471 242/470 281/468
f 247/532 399/533 87/534
f 87/534 88/138 247/532
f 287/535 307/536 286/537
f 252/394 224/393 251/538
f 246/406 89/150 248/407
f 247/484 246/386 222/485
f 285/486 222/485 201/493
f 399/539 244/540 282/541
f 202/396 248/395 90/108
f 248/395 223/397 222/405
f 249/280 172/279 251/419
f 202/253 249/280 223/397
f 249/489 250/488 223/397
f 224/487 201/493 250/488
f 252/394 251/538 173/491
f 249/280 251/419 224/487
f 283/458 252/490 174/456
f 252/542 245/543 310/544
f 254/451 253/450 187/494
f 132/334 253/443 225/332
f 257/545 254/402 186/401
f 225/452 254/451 256/546
f 332/373 333/372 331/547
f 330/548 312/549 255/550
f 257/545 256/546 254/402
f 312/549 311/551 255/550
f 340/552 186/553 339/554
f 256/546 257/545 255/555
f 132/222 258/333 204/270
f 256/546 258/495 225/452
f 227/292 259/502 122/188
f 260/431 259/448 226/501
f 289/498 260/497 226/501
f 232/556 273/557 290/558
f 262/312 261/507 161/504
f 263/322 261/324 228/314
f 265/254 262/503 162/255
f 265/254 315/559 262/503
f 293/560 317/561 205/562
f 113/169 264/353 210/328
f 316/563 317/561 293/560
f 292/361 316/465 264/353
f 163/564 164/261 266/260
f 265/254 229/565 315/559
f 229/565 265/254 266/566
f 266/260 265/254 163/564
f 267/262 165/321 389/567
f 266/302 267/262 230/454
f 296/568 178/569 179/570
f 231/571 270/572 272/573
f 297/574 179/575 180/576
f 232/577 321/578 297/579
f 323/580 334/516 231/515
f 342/581 359/582 270/583
f 296/568 268/413 178/569
f 271/584 269/238 348/240
f 231/412 272/573 268/413
f 272/573 270/572 303/585
f 273/433 181/432 290/558
f 297/579 273/557 232/577
f 199/382 280/381 279/528
f 217/306 237/308 274/467
f 351/586 306/587 349/588
f 238/369 217/306 325/530
f 240/435 277/286 276/464
f 277/589 278/590 280/591
f 84/123 299/531 240/466
f 278/590 277/589 220/592
f 403/478 406/477 220/593
f 274/529 279/528 217/306
f 278/594 300/595 279/596
f 300/595 302/512 279/596
f 277/286 280/591 276/464
f 279/528 280/381 278/594
f 237/526 243/474 281/468
f 219/250 281/468 243/251
f 399/539 282/541 86/156
f 299/597 282/541 244/540
f 284/326 283/325 175/440
f 252/490 283/458 245/543
f 303/598 284/439 176/441
f 304/599 284/600 359/601
f 201/493 287/378 285/486
f 404/421 411/602 400/422
f 224/487 309/392 201/493
f 410/423 400/422 286/603
f 288/604 287/378 201/493
f 401/605 399/533 247/532
f 245/606 304/607 305/608
f 288/604 307/536 287/378
f 289/498 226/501 311/609
f 313/499 289/498 208/610
f 63/193 260/431 290/520
f 290/558 260/431 232/556
f 413/611 229/612 295/613
f 391/614 206/615 388/616
f 160/323 292/329 40/161
f 292/329 263/322 316/465
f 327/617 293/560 205/562
f 188/359 210/347 320/357
f 230/618 387/619 380/620
f 295/301 294/300 206/621
f 206/622 376/623 413/624
f 266/302 295/301 229/565
f 297/354 296/356 179/575
f 271/584 296/514 269/238
f 273/433 297/579 180/434
f 208/610 321/625 313/499
f 329/283 298/626 208/284
f 323/580 231/515 271/414
f 282/541 299/597 85/159
f 324/285 299/287 244/540
f 278/627 415/628 408/629
f 275/630 301/631 302/632
f 382/633 384/634 275/635
f 384/636 390/637 301/638
f 275/630 302/632 300/595
f 414/509 325/530 301/639
f 272/365 303/585 176/366
f 359/582 303/585 270/583
f 304/607 221/640 305/608
f 245/606 284/326 304/607
f 306/641 305/608 221/640
f 306/480 308/482 307/642
f 347/517 270/572 231/515
f 306/587 221/640 349/588
f 288/604 305/438 307/536
f 307/536 305/438 306/480
f 402/643 308/482 200/481
f 286/537 307/536 308/482
f 310/544 309/392 252/542
f 201/493 309/392 288/604
f 305/608 310/437 245/606
f 309/392 310/544 288/604
f 227/292 311/291 226/501
f 255/550 311/551 256/546
f 208/610 289/498 312/644
f 311/551 312/549 289/498
f 321/625 208/610 298/626
f 260/431 313/499 232/556
f 315/559 314/313 262/503
f 205/506 314/313 291/645
f 413/611 315/559 229/612
f 314/313 315/559 291/645
f 317/561 316/563 263/322
f 328/271 316/465 293/560
f 263/322 228/314 317/561
f 205/506 317/561 228/314
f 375/646 362/647 371/648
f 397/522 185/446 394/268
f 319/649 328/650 327/651
f 318/652 395/653 396/654
f 264/353 320/272 210/328
f 396/358 320/357 319/655
f 313/499 321/625 232/556
f 298/239 297/354 321/625
f 255/550 340/656 330/548
f 186/553 354/377 339/554
f 298/626 329/283 331/657
f 323/580 333/658 334/516
f 411/659 244/540 399/539
f 277/286 324/285 220/592
f 279/511 325/513 217/306
f 301/639 325/530 302/632
f 346/660 332/661 341/662
f 352/663 306/587 351/586
f 327/617 205/562 362/664
f 319/649 327/651 318/665
f 327/651 328/650 293/560
f 320/357 328/271 319/655
f 208/610 312/644 330/282
f 331/657 329/283 322/666
f 255/550 257/545 340/656
f 329/283 330/282 344/667
f 331/657 322/666 332/373
f 331/668 323/669 348/670
f 338/671 332/373 322/666
f 341/662 332/661 338/671
f 333/372 207/371 334/516
f 331/668 333/372 323/669
f 207/371 336/672 334/516
f 342/673 347/674 336/675
f 338/671 322/666 339/676
f 355/677 357/678 358/679
f 207/680 346/681 343/682
f 336/398 326/400 342/673
f 388/616 364/683 391/614
f 343/682 336/398 207/680
f 344/667 322/666 329/283
f 341/304 338/671 335/305
f 186/553 233/403 354/377
f 335/305 338/671 339/676
f 186/401 340/552 257/545
f 339/676 322/666 344/667
f 374/684 358/679 357/678
f 341/662 337/685 346/660
f 349/686 342/673 326/400
f 359/582 284/600 303/585
f 337/687 372/688 343/689
f 365/690 366/691 345/692
f 330/282 340/656 344/667
f 339/554 344/667 340/552
f 365/690 345/692 183/277
f 337/685 341/662 345/303
f 343/682 346/681 337/687
f 332/373 346/660 207/371
f 336/675 347/674 334/516
f 270/583 347/517 342/581
f 331/668 348/670 298/626
f 271/414 348/240 323/580
f 342/673 349/686 221/640
f 360/693 350/694 369/695
f 343/399 360/696 326/400
f 306/480 352/663 200/481
f 369/697 349/686 326/400
f 351/586 350/698 352/663
f 416/699 350/700 378/701
f 416/702 407/703 200/704
f 373/318 378/320 368/705
f 408/706 275/630 300/595
f 356/525 209/351 235/523
f 339/376 355/375 335/305
f 354/377 356/707 355/375
f 356/707 357/678 355/375
f 356/525 354/377 209/351
f 184/524 370/708 356/525
f 361/709 375/710 370/711
f 362/712 361/713 318/714
f 345/303 335/305 358/276
f 355/375 358/679 335/305
f 342/581 221/640 359/582
f 304/599 359/601 221/640
f 372/715 366/716 367/717
f 369/695 350/694 351/586
f 395/653 318/652 398/718
f 318/665 327/651 362/712
f 412/719 205/506 291/645
f 374/309 375/646 371/310
f 294/300 380/720 206/621
f 377/721 343/689 372/688
f 364/683 393/722 391/614
f 367/717 366/716 364/723
f 183/724 386/725 393/726
f 366/716 365/690 364/723
f 364/683 388/616 367/717
f 345/303 366/691 337/685
f 368/727 367/728 363/729
f 360/730 377/731 368/732
f 368/727 363/729 373/318
f 350/694 360/693 368/732
f 349/686 369/697 351/586
f 326/400 360/696 369/697
f 356/707 370/708 357/678
f 184/524 361/709 370/708
f 412/719 362/664 205/506
f 376/623 386/733 413/624
f 366/691 372/715 337/685
f 377/731 367/728 368/732
f 388/616 363/729 367/717
f 409/734 381/735 275/736
f 358/276 374/684 183/277
f 375/646 374/309 357/678
f 370/711 375/710 357/678
f 362/712 375/646 361/713
f 374/684 386/311 183/277
f 412/737 413/624 386/733
f 343/399 377/721 360/696
f 367/728 377/731 372/715
f 378/701 353/738 416/699
f 368/732 378/320 350/694
f 390/739 379/740 387/741
f 382/633 275/635 381/735
f 230/454 380/620 294/300
f 379/742 383/743 392/744
f 378/320 381/319 353/738
f 382/633 381/735 373/461
f 383/459 373/461 363/729
f 384/634 382/633 379/745
f 363/729 388/616 392/746
f 379/742 382/633 383/743
f 379/740 380/620 387/741
f 275/630 384/634 301/631
f 267/262 385/747 230/454
f 389/567 165/321 166/748
f 412/737 386/733 371/310
f 376/749 391/614 393/722
f 230/618 385/747 387/619
f 390/739 387/741 385/747
f 206/621 380/720 388/616
f 388/616 380/720 392/746
f 238/369 389/510 166/370
f 267/262 389/567 385/747
f 390/739 385/747 414/750
f 379/740 390/739 384/634
f 393/722 364/683 365/690
f 206/622 391/614 376/623
f 379/740 392/744 380/620
f 363/729 392/746 383/459
f 183/724 393/726 365/690
f 376/623 393/722 386/733
f 197/245 394/338 127/202
f 395/751 394/338 196/340
f 396/654 395/653 196/340
f 398/718 318/652 361/713
f 188/363 396/358 196/364
f 318/665 396/654 319/649
f 397/522 184/415 235/350
f 394/268 395/751 397/522
f 184/524 398/417 361/709
f 395/751 398/718 397/522
f 87/534 399/533 86/156
f 285/380 400/379 401/752
f 287/535 286/537 400/379
f 410/753 308/482 402/643
f 285/380 401/752 247/484
f 411/602 401/752 400/422
f 406/754 407/755 405/756
f 403/478 220/593 324/285
f 244/540 403/478 324/285
f 406/477 402/479 407/755
f 402/479 403/478 404/757
f 411/659 403/478 244/540
f 409/734 275/736 408/706
f 220/592 415/628 278/590
f 407/755 402/479 200/704
f 406/754 405/756 415/758
f 416/702 200/704 352/663
f 407/703 416/702 409/759
f 278/594 408/629 300/595
f 409/734 408/706 405/760
f 407/703 409/759 405/756
f 409/734 353/738 381/735
f 308/482 410/753 286/537
f 404/757 410/423 402/479
f 411/659 399/539 401/752
f 403/478 411/659 404/757
f 412/737 291/645 413/624
f 362/664 412/719 371/648
f 413/611 291/645 315/559
f 206/622 413/624 295/301
f 390/739 414/750 301/638
f 389/567 414/509 385/747
f 406/754 415/758 220/593
f 408/629 415/628 405/760
f 416/699 352/663 350/700
f 409/759 416/702 353/738
f 428/761 552/762 557/763
f 465/764 464/765 445/766
f 423/767 438/768 159/769
f 171/770 464/771 172/772
f 171/773 1/774 445/775
f 445/766 27/776 465/764
f 442/777 459/778 440/779
f 637/780 435/781 429/782
f 68/95 430/783 69/96
f 621/784 620/785 520/786
f 438/787 432/788 49/789
f 503/790 476/791 504/792
f 173/793 172/794 463/795
f 419/796 420/797 638/798
f 464/771 463/795 172/772
f 66/89 65/87 500/799
f 463/800 579/801 582/802
f 425/803 437/804 458/805
f 437/806 431/807 483/808
f 466/809 444/810 465/811
f 478/812 644/813 542/814
f 658/815 500/816 657/817
f 175/818 492/819 176/820
f 579/821 491/822 527/823
f 577/824 524/825 490/826
f 477/827 505/828 506/829
f 456/830 457/831 433/832
f 465/764 27/776 26/30
f 597/833 599/834 549/835
f 552/836 519/837 516/838
f 503/839 548/840 501/841
f 449/842 170/843 472/844
f 18/12 17/13 449/845
f 65/87 64/80 498/846
f 637/780 429/782 670/847
f 66/89 658/848 67/91
f 69/83 436/849 55/84
f 533/850 22/59 21/40
f 425/851 439/852 424/853
f 439/854 458/855 433/856
f 69/83 430/783 436/849
f 430/783 68/95 454/857
f 563/858 550/859 477/860
f 546/861 544/862 543/863
f 429/782 435/781 430/864
f 498/846 500/799 65/87
f 422/865 436/849 430/783
f 637/866 598/867 636/868
f 434/869 440/779 459/778
f 460/870 440/779 434/869
f 437/806 486/871 431/807
f 137/872 182/873 422/874
f 51/66 50/65 457/875
f 436/849 182/876 55/84
f 421/877 422/865 430/783
f 439/854 433/856 457/831
f 507/878 165/879 164/880
f 420/881 421/882 435/883
f 501/884 181/885 180/886
f 40/887 573/888 160/889
f 577/824 624/890 524/825
f 576/891 514/892 488/893
f 494/894 21/40 20/895
f 443/896 441/897 440/898
f 19/899 471/900 474/901
f 1/774 27/31 445/775
f 632/902 473/903 633/904
f 496/905 497/906 470/907
f 19/899 18/12 471/900
f 497/908 537/909 541/910
f 179/911 178/912 505/913
f 68/95 67/91 454/857
f 449/842 472/844 471/914
f 612/915 613/916 564/917
f 467/918 608/919 605/920
f 162/921 161/922 508/923
f 48/77 438/787 49/69
f 473/924 448/925 472/926
f 442/927 441/928 418/929
f 17/13 170/843 449/845
f 167/930 496/931 168/932
f 489/933 490/934 466/935
f 436/849 422/865 182/876
f 427/936 417/937 443/938
f 417/939 418/929 441/928
f 432/940 424/853 439/852
f 430/783 435/781 421/877
f 575/941 622/942 573/943
f 492/819 604/944 176/820
f 472/844 170/843 169/945
f 456/946 483/947 482/948
f 40/887 574/949 573/888
f 534/950 535/951 497/952
f 443/896 417/937 441/897
f 437/953 426/954 462/955
f 426/954 437/953 425/803
f 426/954 427/956 462/955
f 462/957 443/958 461/959
f 442/927 418/929 419/960
f 432/788 438/787 423/767
f 430/783 454/857 429/782
f 159/769 153/961 423/767
f 423/767 424/853 432/788
f 442/777 440/779 441/928
f 425/803 458/805 439/852
f 498/962 499/963 561/964
f 26/30 489/965 465/764
f 480/966 456/946 482/948
f 54/967 481/968 574/969
f 169/945 473/924 472/844
f 52/62 51/64 456/970
f 434/971 515/972 514/973
f 439/852 50/974 432/940
f 512/975 574/976 566/977
f 443/896 440/898 460/870
f 630/978 595/979 594/980
f 48/77 159/769 438/787
f 482/948 483/947 431/807
f 483/981 433/856 458/855
f 49/69 432/788 50/65
f 53/70 481/968 54/73
f 53/70 52/62 480/982
f 481/968 53/70 480/982
f 509/983 565/984 510/985
f 456/830 51/64 457/831
f 578/986 580/987 581/988
f 439/852 457/831 50/974
f 454/857 67/91 658/848
f 569/989 567/990 511/991
f 460/870 487/992 443/896
f 443/896 487/992 461/959
f 443/938 462/957 427/936
f 462/957 461/959 486/993
f 522/994 466/995 491/996
f 580/997 527/998 525/999
f 445/766 464/765 171/773
f 464/1000 444/1001 522/1002
f 489/965 26/30 25/32
f 465/764 444/810 464/765
f 490/1003 25/29 24/27
f 463/795 464/771 522/1002
f 585/1004 467/1005 581/1006
f 477/860 506/829 563/858
f 532/1007 23/60 22/59
f 526/1008 527/1009 523/1010
f 474/901 20/1011 19/899
f 493/1012 495/1013 587/1014
f 534/1015 496/931 167/930
f 590/1016 589/1017 447/1018
f 449/842 471/914 18/12
f 474/901 471/900 448/1019
f 473/924 169/945 168/1020
f 472/844 448/925 471/914
f 496/931 473/924 168/932
f 590/1016 633/1021 589/1017
f 470/1022 633/904 473/903
f 474/1023 631/1024 494/1025
f 63/79 548/1026 64/80
f 500/1027 475/1028 549/1029
f 502/1030 560/1031 505/1032
f 554/1033 550/1034 553/1035
f 506/1036 178/1037 177/1038
f 477/860 550/859 502/1039
f 507/1040 612/1041 611/1042
f 541/910 470/907 497/908
f 542/814 644/813 646/1043
f 611/1042 478/1044 507/1040
f 456/946 480/966 52/62
f 481/968 480/982 455/1045
f 565/1046 481/968 455/1045
f 617/1047 619/1048 566/1049
f 482/948 431/807 510/1050
f 480/982 482/948 455/1045
f 433/832 483/981 456/830
f 437/806 483/808 458/805
f 519/1051 517/1052 518/1053
f 434/869 459/778 513/1054
f 514/892 485/1055 488/893
f 514/892 521/1056 485/1055
f 462/955 486/993 437/953
f 486/993 461/959 567/1057
f 460/870 488/1058 487/992
f 509/983 510/985 569/1059
f 576/1060 460/870 434/869
f 511/991 570/1061 569/989
f 490/934 489/933 25/29
f 465/811 489/965 466/809
f 24/27 23/33 577/1062
f 466/995 523/1063 491/996
f 523/1063 466/995 490/934
f 523/1010 524/1064 526/1008
f 174/1065 582/1066 584/1067
f 451/1068 550/859 563/858
f 533/1069 494/1070 495/1071
f 495/1013 627/1072 587/1014
f 474/901 494/1025 20/1011
f 495/1071 494/1070 469/1073
f 627/1072 628/1074 587/1014
f 495/1013 493/1012 532/1075
f 534/1015 167/930 166/1076
f 473/903 496/931 470/1022
f 535/1077 166/1078 165/1079
f 535/951 537/909 497/952
f 499/963 498/962 64/80
f 500/799 498/846 475/1028
f 181/1080 548/1026 63/79
f 503/790 504/792 561/1081
f 549/1029 475/1028 596/1082
f 442/777 636/1083 459/778
f 180/1084 179/1085 560/1086
f 503/839 501/841 476/791
f 476/791 501/841 502/1087
f 501/884 180/886 560/1086
f 476/1088 554/1089 556/1090
f 503/839 499/1091 548/840
f 596/1092 504/1093 450/1094
f 504/1093 596/1092 561/1081
f 506/1036 505/828 178/1037
f 502/1039 505/1032 477/860
f 176/820 604/944 603/1095
f 177/1038 603/1096 506/1036
f 611/1042 612/1041 564/917
f 537/1097 538/1098 536/1099
f 160/889 573/888 622/942
f 614/1100 613/1101 508/1102
f 482/948 510/1050 455/1045
f 569/989 570/1061 618/1103
f 567/1057 431/807 486/993
f 461/959 487/992 568/1104
f 487/992 488/1058 568/1104
f 570/1061 511/991 571/1105
f 565/1046 566/1106 481/968
f 508/1107 575/1108 479/1109
f 459/778 636/1083 600/1110
f 513/1111 484/1112 515/1113
f 434/971 513/1054 515/972
f 514/892 517/1114 521/1056
f 518/1115 515/1113 484/1112
f 515/1113 518/1115 517/1052
f 597/1116 635/1117 484/1118
f 504/792 476/791 556/1090
f 428/1119 520/1120 521/1121
f 514/892 515/972 517/1114
f 559/1122 516/1123 635/1124
f 518/1053 516/838 519/1051
f 516/838 558/1125 552/836
f 428/1126 517/1052 519/1051
f 557/763 641/1127 428/761
f 572/1128 453/1129 618/1130
f 428/1126 521/1121 517/1052
f 521/1121 520/1120 620/785
f 466/995 522/994 444/810
f 579/821 522/994 491/822
f 490/934 524/825 523/1063
f 528/1131 525/1132 526/1133
f 24/27 577/1062 490/1003
f 526/1133 525/1132 527/1009
f 467/1134 492/1135 583/1136
f 492/819 175/818 584/1137
f 524/1064 468/1138 526/1008
f 528/1139 446/1140 625/1141
f 580/997 579/821 527/998
f 523/1010 527/1009 491/996
f 526/1008 468/1138 528/1131
f 531/1142 468/1143 588/1144
f 446/1140 528/1139 530/1145
f 530/1145 528/1139 531/1146
f 531/1146 528/1139 468/1143
f 594/1147 546/1148 545/1149
f 588/1150 493/1012 587/1014
f 529/1151 530/1145 531/1146
f 532/1007 22/59 533/850
f 577/1152 532/1075 493/1012
f 494/1070 533/1069 21/40
f 532/1075 533/850 495/1013
f 535/1077 534/950 166/1078
f 496/931 534/1015 497/906
f 165/1079 507/878 535/1077
f 535/951 538/1098 537/909
f 540/1153 536/1099 538/1098
f 540/1153 544/1154 536/1099
f 535/951 507/878 538/1098
f 537/1097 536/1099 539/1155
f 507/878 478/1044 538/1098
f 538/1098 478/1044 540/1153
f 536/1099 544/1154 546/861
f 589/1017 539/1156 447/1018
f 478/812 542/814 540/1153
f 544/1154 540/1153 592/1157
f 537/909 539/1155 541/910
f 541/910 539/1155 589/1017
f 616/1158 644/1159 611/1160
f 592/1161 542/1162 452/1163
f 607/1164 562/1165 605/1166
f 547/1167 446/1140 530/1145
f 592/1161 540/1153 542/1162
f 543/863 593/1168 546/861
f 530/1145 634/1169 547/1167
f 639/1170 659/1171 665/1172
f 634/1169 545/1173 547/1167
f 539/1155 536/1099 595/1174
f 634/1169 530/1145 529/1151
f 547/1167 545/1173 586/1175
f 548/840 181/1080 501/841
f 64/80 548/1026 499/963
f 450/1176 597/833 549/835
f 597/833 600/1177 599/834
f 553/1035 550/1034 451/1068
f 502/1039 550/859 554/1033
f 519/1051 552/836 428/1126
f 559/1178 556/1179 558/1180
f 601/1181 551/1182 553/1183
f 647/1184 668/1185 652/1186
f 553/1035 451/1068 601/1181
f 554/1033 553/1035 551/1182
f 554/1089 551/1182 556/1090
f 554/1033 476/1088 502/1039
f 557/1187 601/1188 640/1189
f 667/1190 655/1191 656/1192
f 558/1180 556/1179 551/1182
f 504/792 556/1090 450/1094
f 601/1188 557/1187 552/762
f 557/1193 555/1194 642/1195
f 552/836 558/1125 551/1182
f 559/1122 558/1180 516/1123
f 635/1124 516/1123 518/1053
f 450/1094 556/1090 559/1178
f 505/913 560/1031 179/911
f 501/884 560/1086 502/1087
f 498/962 561/964 475/1028
f 503/790 561/1081 499/1091
f 467/1134 605/920 492/1135
f 608/1196 609/1197 606/1198
f 506/829 610/1199 563/858
f 604/1200 605/1166 562/1165
f 163/1201 162/1202 613/1203
f 645/1204 614/1205 615/1206
f 510/985 565/984 455/1045
f 565/1046 509/983 566/1106
f 509/983 617/1047 566/1106
f 575/1207 623/1208 619/1209
f 567/1057 510/1050 431/807
f 461/959 511/991 567/1057
f 571/1210 488/893 485/1055
f 461/959 568/1104 511/991
f 567/1057 569/989 510/1050
f 568/1104 571/1105 511/991
f 572/1211 570/1212 485/1213
f 453/1129 617/1214 618/1130
f 488/893 571/1210 568/1104
f 485/1213 570/1212 571/1210
f 485/1213 620/1215 572/1211
f 520/1120 428/1119 641/1127
f 574/969 40/887 54/967
f 575/941 573/943 512/1216
f 566/977 574/976 481/968
f 573/888 574/949 512/1216
f 622/1217 508/923 161/922
f 623/1208 575/1207 512/1216
f 460/870 576/1060 488/1058
f 434/869 514/973 576/1060
f 532/1007 577/1152 23/60
f 624/890 577/824 493/1012
f 175/818 174/1065 584/1137
f 174/1065 173/1218 582/1066
f 582/802 579/801 578/1219
f 522/994 579/821 463/795
f 585/1004 581/1006 625/1220
f 578/1219 579/801 580/987
f 625/1221 580/997 525/999
f 625/1221 581/1006 580/997
f 582/802 578/1219 584/1067
f 463/795 582/802 173/793
f 578/986 581/988 583/1222
f 467/1005 583/1136 581/1006
f 578/1219 583/1222 584/1067
f 584/1137 583/1222 492/819
f 626/1223 547/1167 586/1175
f 626/1224 585/1004 625/1220
f 546/861 593/1168 545/1149
f 664/1225 661/1226 662/1227
f 627/1072 495/1013 469/1073
f 588/1144 529/1151 531/1142
f 588/1144 468/1143 624/1228
f 529/1151 588/1144 587/1014
f 629/1229 447/1230 628/1231
f 541/910 589/1017 470/907
f 469/1232 631/1233 590/1234
f 632/902 448/925 473/903
f 479/1235 649/1236 615/1237
f 653/1238 572/1239 621/1240
f 661/1241 592/1161 452/1163
f 544/1154 592/1157 543/863
f 661/1241 543/863 592/1161
f 545/1149 593/1168 671/1242
f 630/1243 529/1244 628/1245
f 630/978 539/1155 595/979
f 536/1099 546/861 595/1174
f 594/980 595/979 546/1148
f 596/1082 475/1028 561/1081
f 450/1176 549/835 596/1092
f 635/1124 450/1094 559/1122
f 484/1112 513/1111 600/1246
f 636/868 442/777 637/866
f 599/834 669/1247 549/835
f 600/1246 597/833 484/1112
f 599/834 598/1248 669/1247
f 459/778 600/1110 513/1054
f 599/834 600/1177 598/1248
f 601/1181 552/762 551/1182
f 601/1181 451/1068 654/1249
f 646/1250 648/1251 452/1252
f 620/1215 621/784 572/1211
f 176/820 603/1095 177/1038
f 610/1253 603/1254 562/1255
f 605/920 604/1200 492/1135
f 603/1095 604/944 562/1255
f 608/1196 467/918 609/1197
f 608/919 607/1164 605/920
f 543/863 660/1256 593/1168
f 555/1194 557/1193 640/1189
f 606/1257 666/1258 667/1259
f 607/1260 656/1261 610/1262
f 609/1197 467/918 585/1004
f 607/1164 608/919 606/1198
f 626/1224 609/1197 585/1004
f 586/1263 671/1264 663/1265
f 603/1096 610/1253 506/1036
f 607/1164 610/1262 562/1165
f 612/1041 507/1040 164/880
f 616/1158 611/1160 564/917
f 164/880 163/1266 612/1041
f 613/1203 612/915 163/1201
f 162/921 508/923 613/1203
f 614/1100 508/1102 479/1109
f 615/1206 614/1205 479/1235
f 564/917 613/916 614/1100
f 479/1235 619/1267 649/1236
f 591/1268 616/1269 645/1270
f 564/917 614/1100 645/1204
f 542/814 646/1043 452/1163
f 618/1130 617/1214 509/983
f 617/1047 453/1129 619/1048
f 569/989 618/1103 509/983
f 618/1130 570/1061 572/1128
f 453/1271 643/1272 649/1273
f 479/1109 575/1108 619/1267
f 521/1121 620/785 485/1055
f 621/784 520/786 650/1274
f 602/1275 651/1276 621/1277
f 643/1278 591/1279 615/1280
f 160/889 622/942 161/922
f 575/941 508/1107 622/942
f 512/975 566/977 623/1208
f 619/1048 623/1208 566/1049
f 588/1144 624/1228 493/1012
f 524/1064 624/890 468/1138
f 528/1139 625/1141 525/1132
f 626/1224 625/1220 446/1140
f 547/1167 626/1223 446/1140
f 609/1197 626/1224 586/1175
f 629/1281 469/1232 590/1234
f 627/1072 629/1229 628/1074
f 630/1243 628/1245 447/1230
f 529/1244 587/1014 628/1245
f 469/1073 629/1281 627/1072
f 447/1230 629/1229 590/1016
f 630/1243 447/1230 539/1155
f 529/1244 630/1243 594/980
f 494/1070 631/1024 469/1073
f 632/902 474/901 448/925
f 590/1234 631/1233 632/1282
f 632/902 631/1233 474/901
f 589/1017 633/1021 470/907
f 590/1234 632/1282 633/1021
f 529/1244 594/980 634/1169
f 545/1149 634/1169 594/1147
f 484/1118 635/1117 518/1115
f 450/1176 635/1124 597/833
f 419/960 638/798 442/927
f 600/1177 636/1083 598/1248
f 637/780 638/1283 435/781
f 429/782 454/857 657/1284
f 435/883 638/1283 420/881
f 442/927 638/798 637/866
f 654/1249 451/1068 655/1285
f 666/1258 659/1286 667/1259
f 654/1249 640/1189 601/1181
f 639/1287 555/1194 640/1189
f 642/1195 641/1127 557/1193
f 641/1288 602/1289 650/1290
f 647/1291 642/1195 555/1194
f 641/1127 642/1195 602/1289
f 572/1239 653/1238 453/1129
f 651/1276 643/1292 621/1277
f 611/1042 644/1159 478/1044
f 646/1043 644/813 616/1158
f 591/1279 645/1270 615/1280
f 564/917 645/1204 616/1158
f 616/1158 591/1268 646/1043
f 652/1186 668/1185 651/1293
f 647/1184 652/1186 642/1195
f 555/1194 639/1287 665/1172
f 668/1294 646/1043 591/1268
f 662/1295 648/1296 647/1297
f 453/1271 649/1273 619/1048
f 643/1278 615/1280 649/1273
f 641/1127 650/1290 520/1120
f 602/1289 621/1277 650/1290
f 652/1186 651/1293 602/1275
f 643/1292 651/1276 591/1279
f 642/1195 652/1186 602/1289
f 647/1297 648/1296 668/1185
f 621/1240 643/1292 653/1238
f 643/1292 453/1271 653/1238
f 655/1285 451/1068 563/858
f 640/1189 654/1249 639/1287
f 656/1192 655/1191 563/858
f 639/1287 654/1249 655/1285
f 610/1262 656/1261 563/858
f 607/1164 606/1198 667/1259
f 669/1298 657/817 500/816
f 429/782 657/1284 670/847
f 500/799 658/815 66/89
f 454/857 658/848 657/1284
f 606/1198 609/1197 663/1299
f 664/1225 662/1227 659/1300
f 664/1301 666/1302 663/1303
f 671/1264 660/1304 663/1265
f 661/1241 452/1163 662/1227
f 543/863 661/1241 660/1256
f 648/1251 662/1295 452/1252
f 665/1172 647/1291 555/1194
f 586/1263 663/1265 609/1197
f 663/1265 660/1304 664/1301
f 664/1225 659/1300 666/1302
f 661/1226 664/1225 660/1256
f 659/1300 662/1227 665/1172
f 647/1297 665/1172 662/1295
f 667/1259 659/1286 639/1170
f 606/1198 663/1299 666/1258
f 655/1191 667/1190 639/1287
f 607/1164 667/1259 656/1261
f 646/1043 668/1294 648/1251
f 651/1293 668/1185 591/1279
f 669/1298 500/816 549/835
f 670/847 598/867 637/780
f 657/817 669/1298 670/847
f 598/867 670/847 669/1247
f 545/1149 671/1242 586/1175
f 593/1168 660/1256 671/1242
f 420/1305 419/1306 678/1307
f 678/1307 419/1306 677/1308
f 420/1305 678/1307 679/1309
f 677/1310 418/1311 676/1312
f 418/1311 677/1310 419/1306
f 676/1312 418/1311 417/939
f 138/1313 137/1314 680/1315
f 680/1315 137/1314 422/1316
f 680/1317 421/1318 679/1319
f 421/1318 680/1317 422/1316
f 679/1309 421/1318 420/1305
f 427/1320 675/1321 676/1322
f 675/1321 427/1320 426/1323
f 426/1324 425/1325 674/1326
f 674/1326 425/1325 673/1327
f 426/1323 674/1326 675/1321
f 673/1328 424/1329 672/1330
f 424/1329 673/1328 425/1325
f 672/1330 424/1329 423/1331
f 672/1332 153/1333 152/1334
f 153/1333 672/1332 423/1331
f 676/1322 417/939 427/1320
