{
  "asset": {
    "generator": "Khronos glTF Blender I/O v4.4.55",
    "version": "2.0"
  },
  "scene": 0,
  "scenes": [
    {
      "name": "Scene",
      "nodes": [
        0
      ]
    }
  ],
  "nodes": [
    {
      "mesh": 0,
      "name": "gallinera_chair"
    }
  ],
  "materials": [
    {
      "doubleSided": true,
      "name": "gallinera_chair",
      "normalTexture": {
        "index": 0
      },
      "pbrMetallicRoughness": {
        "baseColorTexture": {
          "index": 1
        },
        "metallicFactor": 0,
        "metallicRoughnessTexture": {
          "index": 2
        }
      }
    }
  ],
  "meshes": [
    {
      "name": "Cube.021",
      "primitives": [
        {
          "attributes": {
            "POSITION": 0,
            "NORMAL": 1,
            "TEXCOORD_0": 2
          },
          "indices": 3,
          "material": 0
        }
      ]
    }
  ],
  "textures": [
    {
      "sampler": 0,
      "source": 0
    },
    {
      "sampler": 0,
      "source": 1
    },
    {
      "sampler": 0,
      "source": 2
    }
  ],
  "images": [
    {
      "mimeType": "image/jpeg",
      "name": "gallinera_chair_nor_gl",
      "uri": "textures/gallinera_chair_nor_gl_1k.jpg"
    },
    {
      "mimeType": "image/jpeg",
      "name": "gallinera_chair_diff",
      "uri": "textures/gallinera_chair_diff_1k.jpg"
    },
    {
      "mimeType": "image/jpeg",
      "name": "gallinera_chair_rough",
      "uri": "textures/gallinera_chair_arm_1k.jpg"
    }
  ],
  "accessors": [
    {
      "bufferView": 0,
      "componentType": 5126,
      "count": 8888,
      "max": [
        0.29007142782211304,
        1.0335233211517334,
        0.338290274143219
      ],
      "min": [
        -0.29072773456573486,
        -0.00016570091247558594,
        -0.26559174060821533
      ],
      "type": "VEC3"
    },
    {
      "bufferView": 1,
      "componentType": 5126,
      "count": 8888,
      "type": "VEC3"
    },
    {
      "bufferView": 2,
      "componentType": 5126,
      "count": 8888,
      "type": "VEC2"
    },
    {
      "bufferView": 3,
      "componentType": 5123,
      "count": 34680,
      "type": "SCALAR"
    }
  ],
  "bufferViews": [
    {
      "buffer": 0,
      "byteLength": 106656,
      "byteOffset": 0,
      "target": 34962
    },
    {
      "buffer": 0,
      "byteLength": 106656,
      "byteOffset": 106656,
      "target": 34962
    },
    {
      "buffer": 0,
      "byteLength": 71104,
      "byteOffset": 213312,
      "target": 34962
    },
    {
      "buffer": 0,
      "byteLength": 69360,
      "byteOffset": 284416,
      "target": 34963
    }
  ],
  "samplers": [
    {
      "magFilter": 9729,
      "minFilter": 9987
    }
  ],
  "buffers": [
    {
      "byteLength": 353776,
      "uri": "gallinera_chair.bin"
    }
  ]
}