# Exported from MakeClothes (TM)
# author Unknown
# license AGPL3 (see also http://www.makehuman.org/doc/node/external_tools_license.html)
# homepage http://www.makehuman.org/
v 0.5773 8.1505 1.3069
v 0.5774 8.1505 1.3067
v 0.5776 8.1505 1.3069
v 0.5778 8.1504 1.3066
v 0.5780 8.1505 1.3068
v 0.5782 8.1505 1.3066
v 0.0942 7.6082 1.6081
v 0.0937 7.6336 1.6068
v 0.0969 7.6478 1.6026
v 0.1021 7.6587 1.6072
v 0.1060 7.6613 1.6176
v 0.1066 7.6545 1.6283
v 0.1037 7.6406 1.6332
v 0.1086 7.6075 1.6227
v 0.2174 7.5734 1.5711
v 0.2164 7.5908 1.5529
v 0.2185 7.6120 1.5468
v 0.2239 7.6289 1.5546
v 0.2297 7.6331 1.5711
v 0.2327 7.6222 1.5868
v 0.2307 7.6011 1.5931
v 0.2247 7.5827 1.5860
v 0.3118 7.5650 1.5398
v 0.3069 7.5765 1.5241
v 0.3058 7.5988 1.5189
v 0.3091 7.6163 1.5276
v 0.3148 7.6207 1.5446
v 0.3197 7.6093 1.5601
v 0.3209 7.5872 1.5656
v 0.3176 7.5694 1.5570
v 0.4045 7.5724 1.5092
v 0.3976 7.5815 1.4978
v 0.3919 7.5990 1.4954
v 0.3912 7.6126 1.5034
v 0.3954 7.6160 1.5169
v 0.4021 7.6073 1.5282
v 0.4078 7.5899 1.5310
v 0.4087 7.5759 1.5230
v 0.4740 7.5963 1.4827
v 0.4663 7.6033 1.4734
v 0.4583 7.6174 1.4724
v 0.4557 7.6285 1.4803
v 0.4592 7.6314 1.4923
v 0.4670 7.6246 1.5016
v 0.4750 7.6105 1.5027
v 0.4776 7.5993 1.4949
v 0.5225 7.6360 1.4598
v 0.5134 7.6408 1.4524
v 0.5026 7.6513 1.4531
v 0.4980 7.6596 1.4613
v 0.5011 7.6622 1.4721
v 0.5101 7.6576 1.4795
v 0.5210 7.6471 1.4790
v 0.5256 7.6387 1.4708
v 0.5531 7.6913 1.4400
v 0.5455 7.6934 1.4353
v 0.5356 7.6990 1.4368
v 0.5313 7.7037 1.4434
v 0.5334 7.7055 1.4511
v 0.5410 7.7035 1.4558
v 0.5509 7.6979 1.4544
v 0.5553 7.6932 1.4479
v 0.5704 7.7570 1.4214
v 0.5653 7.7576 1.4187
v 0.5580 7.7601 1.4203
v 0.5550 7.7623 1.4246
v 0.5563 7.7634 1.4291
v 0.5613 7.7628 1.4318
v 0.5686 7.7604 1.4303
v 0.5717 7.7581 1.4260
v 0.5813 7.8313 1.3992
v 0.5758 7.8311 1.3964
v 0.5694 7.8323 1.3980
v 0.5661 7.8341 1.4029
v 0.5677 7.8355 1.4084
v 0.5732 7.8357 1.4112
v 0.5796 7.8345 1.4097
v 0.5829 7.8327 1.4047
v 0.5856 7.9138 1.3760
v 0.5803 7.9132 1.3734
v 0.5742 7.9139 1.3750
v 0.5710 7.9154 1.3798
v 0.5725 7.9169 1.3850
v 0.5778 7.9174 1.3875
v 0.5839 7.9167 1.3860
v 0.5871 7.9152 1.3812
v 0.5841 8.0041 1.3508
v 0.5804 8.0036 1.3491
v 0.5761 8.0039 1.3502
v 0.5739 8.0049 1.3536
v 0.5749 8.0060 1.3572
v 0.5787 8.0066 1.3590
v 0.5830 8.0062 1.3578
v 0.5852 8.0052 1.3545
v 0.5801 8.1007 1.3221
v 0.5787 8.1005 1.3214
v 0.5771 8.1006 1.3219
v 0.5763 8.1010 1.3231
v 0.5767 8.1015 1.3245
v 0.5781 8.1017 1.3252
v 0.5797 8.1016 1.3247
v 0.5806 8.1012 1.3235
v 0.5819 7.8336 1.4075
v 0.4321 7.6208 1.5033
v 0.1501 7.6073 1.5726
v 0.5672 7.8331 1.4001
v 0.5567 7.7242 1.4270
v 0.5810 7.9172 1.3873
v 0.1670 7.6394 1.6056
v 0.5558 7.7613 1.4223
v 0.3118 7.6204 1.5356
v 0.2169 7.6009 1.5481
v 0.5524 7.7316 1.4439
v 0.4821 7.6445 1.4819
v 0.0995 7.6542 1.6037
v 0.5789 8.1017 1.3251
v 0.5630 7.7974 1.4184
v 0.3528 7.5754 1.5094
v 0.5316 7.7051 1.4473
v 0.5781 8.1506 1.3071
v 0.3622 7.6077 1.5458
v 0.5270 7.6788 1.4677
v 0.5750 7.9579 1.3626
v 0.5709 7.7591 1.4283
v 0.4992 7.6561 1.4565
v 0.3148 7.5652 1.5489
v 0.1024 7.6309 1.6317
v 0.4567 7.6311 1.4862
v 0.2762 7.6144 1.5740
v 0.5821 8.0517 1.3371
v 0.3986 7.6133 1.5233
v 0.2324 7.6121 1.5917
v 0.5312 7.6656 1.4437
v 0.5777 8.1507 1.3072
v 0.5244 7.6422 1.4756
v 0.0672 7.6673 1.6231
v 0.5779 8.1505 1.3068
v 0.5774 8.1504 1.3064
v 0.5704 7.8752 1.3973
v 0.4765 7.5966 1.4889
v 0.2608 7.5819 1.5388
v 0.5829 8.0525 1.3395
v 0.4011 7.5753 1.5027
v 0.5765 8.1008 1.3224
v 0.4397 7.6133 1.5129
v 0.5809 8.0065 1.3587
v 0.5752 8.0523 1.3390
v 0.1644 7.6496 1.5904
v 0.5778 8.1503 1.3063
v 0.5781 8.0036 1.3493
v 0.5873 7.9594 1.3683
v 0.5748 7.9173 1.3868
v 0.5766 7.8352 1.4110
v 0.5858 7.9580 1.3634
v 0.5541 7.6952 1.4515
v 0.5725 7.8315 1.3967
v 0.5767 7.7931 1.4112
v 0.3490 7.5973 1.5052
v 0.5803 8.1014 1.3242
v 0.5460 7.7327 1.4402
v 0.4366 7.5907 1.4852
v 0.5615 7.7587 1.4189
v 0.5325 7.7017 1.4397
v 0.5778 7.7941 1.4150
v 0.3660 7.5858 1.5503
v 0.3176 7.6171 1.5532
v 0.5845 7.8714 1.3876
v 0.5619 7.7964 1.4146
v 0.5185 7.6820 1.4617
v 0.4918 7.6205 1.4631
v 0.3943 7.5899 1.4951
v 0.0947 7.6405 1.6038
v 0.5783 8.1505 1.3068
v 0.3090 7.5687 1.5311
v 0.2752 7.5925 1.5800
v 0.2318 7.6297 1.5797
v 0.4903 7.6389 1.4899
v 0.1057 7.6484 1.6318
v 0.5782 8.1504 1.3065
v 0.5720 7.9592 1.3671
v 0.5651 7.7618 1.4317
v 0.5687 7.8736 1.3916
v 0.0392 7.6486 1.6228
v 0.4627 7.6293 1.4977
v 0.0427 7.6507 1.6315
v 0.5632 7.7230 1.4307
v 0.2618 7.6039 1.5329
v 0.5781 8.1505 1.3067
v 0.0408 7.6721 1.6172
v 0.1425 7.5895 1.5879
v 0.4705 7.5985 1.4773
v 0.5861 7.8729 1.3933
v 0.4457 7.5981 1.5149
v 0.4054 7.5990 1.5310
v 0.5772 8.1505 1.3067
v 0.5845 8.0058 1.3563
v 0.5250 7.6364 1.4653
v 0.5773 8.1506 1.3070
v 0.5443 7.7313 1.4341
v 0.5775 8.1505 1.3068
v 0.5759 8.0531 1.3414
v 0.5712 7.9162 1.3825
v 0.1588 7.6457 1.5748
v 0.5746 8.0044 1.3517
v 0.5701 7.8358 1.4103
v 0.4987 7.6618 1.4667
v 0.5186 7.6374 1.4553
v 0.3593 7.5639 1.5242
v 0.5763 8.1013 1.3239
v 0.4306 7.6059 1.4832
v 0.5735 7.9607 1.3720
v 0.5789 7.8310 1.3973
v 0.5749 7.7957 1.4189
v 0.3504 7.6145 1.5144
v 0.5649 7.7244 1.4369
v 0.5462 7.7009 1.4560
v 0.1636 7.5973 1.6052
v 0.5403 7.6960 1.4351
v 0.5397 7.6623 1.4497
v 0.4825 7.6324 1.4630
v 0.5833 7.9133 1.3742
v 0.5424 7.6645 1.4591
v 0.4996 7.6271 1.4901
v 0.1068 7.6590 1.6236
v 0.5582 7.7634 1.4308
v 0.3647 7.5683 1.5413
v 0.3057 7.5872 1.5197
v 0.5851 8.0046 1.3525
v 0.5159 7.6798 1.4524
v 0.5773 8.1506 1.3070
v 0.3209 7.5988 1.5647
v 0.2644 7.5706 1.5548
v 0.0952 7.6246 1.6092
v 0.0566 7.6554 1.6337
v 0.5648 7.7948 1.4107
v 0.2703 7.5750 1.5719
v 0.2190 7.5727 1.5796
v 0.5716 7.7574 1.4236
v 0.5684 7.7570 1.4196
v 0.5782 8.1504 1.3065
v 0.5827 7.8746 1.3984
v 0.2667 7.6213 1.5410
v 0.2269 7.6329 1.5623
v 0.2171 7.5832 1.5602
v 0.5777 8.1505 1.3068
v 0.5740 8.0055 1.3555
v 0.5050 7.6609 1.4766
v 0.4090 7.5818 1.5282
v 0.5783 8.1505 1.3068
v 0.5722 7.8719 1.3865
v 0.4619 7.6101 1.4716
v 0.5796 8.0513 1.3359
v 0.0354 7.6668 1.6138
v 0.5720 7.9146 1.3771
v 0.3908 7.6070 1.4982
v 0.5772 8.1505 1.3067
v 0.5805 8.1009 1.3227
v 0.4714 7.6179 1.5035
v 0.4431 7.5830 1.4952
v 0.5784 8.0534 1.3426
v 0.4469 7.5861 1.5075
v 0.1534 7.6296 1.5673
v 0.5611 7.7278 1.4423
v 0.5365 7.7051 1.4541
v 0.5000 7.6148 1.4712
v 0.4284 7.6177 1.4911
v 0.5785 7.9613 1.3744
v 0.1651 7.6185 1.6120
v 0.5773 8.1016 1.3250
v 0.5861 7.9160 1.3839
v 0.3558 7.6187 1.5311
v 0.5480 7.7280 1.4287
v 0.3069 7.6090 1.5216
v 0.5663 7.8349 1.4058
v 0.5499 7.6918 1.4370
v 0.5377 7.6710 1.4665
v 0.4789 7.6418 1.4708
v 0.5827 7.8319 1.4018
v 0.5677 7.7974 1.4206
v 0.1043 7.6611 1.6120
v 0.5808 7.9573 1.3611
v 0.5795 8.1006 1.3216
v 0.3197 7.5769 1.5630
v 0.5777 8.1507 1.3072
v 0.5076 7.6458 1.4515
v 0.0331 7.6570 1.6218
v 0.5869 7.9144 1.3784
v 0.5032 7.6175 1.4824
v 0.4561 7.6239 1.4754
v 0.5720 7.7932 1.4090
v 0.2282 7.5912 1.5910
v 0.0703 7.6627 1.6289
v 0.0956 7.6039 1.6129
v 0.5551 7.7630 1.4269
v 0.5781 8.1506 1.3071
v 0.5550 7.6918 1.4438
v 0.2726 7.6257 1.5580
v 0.5205 7.6734 1.4449
v 0.2209 7.6218 1.5490
v 0.5778 8.1503 1.3063
v 0.5788 7.8710 1.3848
v 0.5813 8.0532 1.3418
v 0.5766 8.0064 1.3585
v 0.4772 7.6040 1.4998
v 0.4072 7.5725 1.5163
v 0.5774 8.1505 1.3068
v 0.5761 7.8756 1.4001
v 0.5767 8.0516 1.3367
v 0.5771 7.9134 1.3737
v 0.3928 7.6158 1.5099
v 0.0357 7.6546 1.6147
v 0.5159 7.6527 1.4805
v 0.5774 8.1504 1.3064
v 0.5825 8.0037 1.3496
v 0.5843 7.9607 1.3728
v 0.5779 8.1005 1.3215
v 0.5780 8.1504 1.3064
v 0.5776 8.1503 1.3063
v 0.5773 8.1504 1.3066
v 0.5772 8.1505 1.3069
v 0.5775 8.1506 1.3072
v 0.5779 8.1506 1.3072
v 0.5782 8.1506 1.3070
v 0.5782 8.1505 1.3066
v 0.0337 7.6585 1.6276
v 0.0349 7.6605 1.6326
v 0.0294 7.6650 1.6209
v 0.0320 7.6663 1.6267
v 0.0433 7.6642 1.6300
v 0.0313 7.6704 1.6198
v 0.0395 7.6696 1.6238
v 0.0518 7.6670 1.6269
v 0.0402 7.6495 1.6178
v 0.0334 7.6615 1.6135
v 0.0378 7.6691 1.6153
v 0.0523 7.6710 1.6201
v 0.0732 7.6654 1.6262
v 0.0665 7.6586 1.6317
v 0.0437 7.6538 1.6341
v 0.0409 7.6487 1.6275
v 0.1430 7.5951 1.5795
v 0.1516 7.6188 1.5684
v 0.1559 7.6390 1.5694
v 0.1618 7.6494 1.5821
v 0.1663 7.6464 1.5986
v 0.1666 7.6297 1.6105
v 0.1700 7.5896 1.6106
v 0.1611 7.5825 1.6007
v 0.2621 7.5742 1.5460
v 0.2607 7.5925 1.5340
v 0.2639 7.6140 1.5352
v 0.2697 7.6254 1.5490
v 0.2749 7.6221 1.5667
v 0.2764 7.6039 1.5788
v 0.2731 7.5823 1.5777
v 0.2673 7.5708 1.5639
v 0.3559 7.5676 1.5159
v 0.3503 7.5859 1.5055
v 0.3490 7.6073 1.5082
v 0.3527 7.6185 1.5223
v 0.3591 7.6152 1.5393
v 0.3647 7.5973 1.5498
v 0.3661 7.5757 1.5474
v 0.3624 7.5641 1.5331
v 0.4400 7.5854 1.4894
v 0.4332 7.5980 1.4829
v 0.4287 7.6128 1.4861
v 0.4295 7.6205 1.4971
v 0.4355 7.6185 1.5089
v 0.4431 7.6061 1.5153
v 0.4471 7.5912 1.5123
v 0.4455 7.5832 1.5015
v 0.4964 7.6165 1.4664
v 0.4868 7.6262 1.4618
v 0.4797 7.6379 1.4661
v 0.4797 7.6442 1.4763
v 0.4857 7.6429 1.4866
v 0.4954 7.6333 1.4912
v 0.5024 7.6215 1.4871
v 0.5024 7.6151 1.4768
v 0.5361 7.6631 1.4459
v 0.5255 7.6693 1.4432
v 0.5171 7.6771 1.4481
v 0.5163 7.6815 1.4571
v 0.5220 7.6812 1.4654
v 0.5326 7.6751 1.4682
v 0.5411 7.6673 1.4634
v 0.5419 7.6627 1.4543
v 0.5606 7.7232 1.4283
v 0.5522 7.7259 1.4271
v 0.5453 7.7298 1.4311
v 0.5445 7.7323 1.4373
v 0.5485 7.7326 1.4426
v 0.5569 7.7299 1.4439
v 0.5639 7.7259 1.4399
v 0.5647 7.7234 1.4336
v 0.5749 7.7929 1.4097
v 0.5682 7.7939 1.4092
v 0.5627 7.7957 1.4126
v 0.5620 7.7970 1.4166
v 0.5648 7.7976 1.4199
v 0.5714 7.7967 1.4204
v 0.5771 7.7948 1.4170
v 0.5777 7.7935 1.4130
v 0.5820 7.8710 1.3857
v 0.5753 7.8713 1.3851
v 0.5698 7.8727 1.3888
v 0.5689 7.8745 1.3946
v 0.5729 7.8755 1.3993
v 0.5796 7.8752 1.3998
v 0.5851 7.8738 1.3962
v 0.5860 7.8721 1.3903
v 0.5836 7.9575 1.3617
v 0.5778 7.9575 1.3613
v 0.5730 7.9585 1.3646
v 0.5722 7.9600 1.3697
v 0.5757 7.9611 1.3737
v 0.5815 7.9612 1.3741
v 0.5863 7.9601 1.3708
v 0.5871 7.9586 1.3657
v 0.5810 8.0515 1.3362
v 0.5781 8.0514 1.3361
v 0.5757 8.0519 1.3377
v 0.5753 8.0527 1.3403
v 0.5770 8.0533 1.3423
v 0.5800 8.0534 1.3424
v 0.5824 8.0529 1.3408
v 0.5828 8.0521 1.3382
v 0.5780 8.1504 1.3064
v 0.5776 8.1503 1.3063
v 0.5773 8.1504 1.3066
v 0.5772 8.1505 1.3069
v 0.5775 8.1506 1.3072
v 0.5779 8.1506 1.3072
v 0.5782 8.1506 1.3070
v 0.5782 8.1505 1.3066
v -0.5773 8.1505 1.3069
v -0.5774 8.1505 1.3067
v -0.5776 8.1505 1.3069
v -0.5778 8.1504 1.3066
v -0.5780 8.1505 1.3068
v -0.5782 8.1505 1.3066
v -0.0942 7.6082 1.6081
v -0.0937 7.6336 1.6068
v -0.0969 7.6478 1.6026
v -0.1021 7.6587 1.6072
v -0.1060 7.6613 1.6176
v -0.1066 7.6545 1.6283
v -0.1037 7.6406 1.6332
v -0.1086 7.6075 1.6227
v -0.2174 7.5734 1.5711
v -0.2164 7.5908 1.5529
v -0.2185 7.6120 1.5468
v -0.2239 7.6289 1.5546
v -0.2297 7.6331 1.5711
v -0.2327 7.6222 1.5868
v -0.2307 7.6011 1.5931
v -0.2247 7.5827 1.5860
v -0.3118 7.5650 1.5398
v -0.3069 7.5765 1.5241
v -0.3058 7.5988 1.5189
v -0.3091 7.6163 1.5276
v -0.3148 7.6207 1.5446
v -0.3197 7.6093 1.5601
v -0.3209 7.5872 1.5656
v -0.3176 7.5694 1.5570
v -0.4045 7.5724 1.5092
v -0.3976 7.5815 1.4978
v -0.3919 7.5990 1.4954
v -0.3912 7.6126 1.5034
v -0.3954 7.6160 1.5169
v -0.4021 7.6073 1.5282
v -0.4078 7.5899 1.5310
v -0.4087 7.5759 1.5230
v -0.4740 7.5963 1.4827
v -0.4663 7.6033 1.4734
v -0.4583 7.6174 1.4724
v -0.4557 7.6285 1.4803
v -0.4592 7.6314 1.4923
v -0.4670 7.6246 1.5016
v -0.4750 7.6105 1.5027
v -0.4776 7.5993 1.4949
v -0.5225 7.6360 1.4598
v -0.5134 7.6408 1.4524
v -0.5026 7.6513 1.4531
v -0.4980 7.6596 1.4613
v -0.5011 7.6622 1.4721
v -0.5101 7.6576 1.4795
v -0.5210 7.6471 1.4790
v -0.5256 7.6387 1.4708
v -0.5531 7.6913 1.4400
v -0.5455 7.6934 1.4353
v -0.5356 7.6990 1.4368
v -0.5313 7.7037 1.4434
v -0.5334 7.7055 1.4511
v -0.5410 7.7035 1.4558
v -0.5509 7.6979 1.4544
v -0.5553 7.6932 1.4479
v -0.5704 7.7570 1.4214
v -0.5653 7.7576 1.4187
v -0.5580 7.7601 1.4203
v -0.5550 7.7623 1.4246
v -0.5563 7.7634 1.4291
v -0.5613 7.7628 1.4318
v -0.5686 7.7604 1.4303
v -0.5717 7.7581 1.4260
v -0.5813 7.8313 1.3992
v -0.5758 7.8311 1.3964
v -0.5694 7.8323 1.3980
v -0.5661 7.8341 1.4029
v -0.5677 7.8355 1.4084
v -0.5732 7.8357 1.4112
v -0.5796 7.8345 1.4097
v -0.5829 7.8327 1.4047
v -0.5856 7.9138 1.3760
v -0.5803 7.9132 1.3734
v -0.5742 7.9139 1.3750
v -0.5710 7.9154 1.3798
v -0.5725 7.9169 1.3850
v -0.5778 7.9174 1.3875
v -0.5839 7.9167 1.3860
v -0.5871 7.9152 1.3812
v -0.5841 8.0041 1.3508
v -0.5804 8.0036 1.3491
v -0.5761 8.0039 1.3502
v -0.5739 8.0049 1.3536
v -0.5749 8.0060 1.3572
v -0.5787 8.0066 1.3590
v -0.5830 8.0062 1.3578
v -0.5852 8.0052 1.3545
v -0.5801 8.1007 1.3221
v -0.5787 8.1005 1.3214
v -0.5771 8.1006 1.3219
v -0.5763 8.1010 1.3231
v -0.5767 8.1015 1.3245
v -0.5781 8.1017 1.3252
v -0.5797 8.1016 1.3247
v -0.5806 8.1012 1.3235
v -0.5819 7.8336 1.4075
v -0.4321 7.6208 1.5033
v -0.1501 7.6073 1.5726
v -0.5672 7.8331 1.4001
v -0.5567 7.7242 1.4270
v -0.5810 7.9172 1.3873
v -0.1670 7.6394 1.6056
v -0.5558 7.7613 1.4223
v -0.3118 7.6204 1.5356
v -0.2169 7.6009 1.5481
v -0.5524 7.7316 1.4439
v -0.4821 7.6445 1.4819
v -0.0995 7.6542 1.6037
v -0.5789 8.1017 1.3251
v -0.5630 7.7974 1.4184
v -0.3528 7.5754 1.5094
v -0.5316 7.7051 1.4473
v -0.5781 8.1506 1.3071
v -0.3622 7.6077 1.5458
v -0.5270 7.6788 1.4677
v -0.5750 7.9579 1.3626
v -0.5709 7.7591 1.4283
v -0.4992 7.6561 1.4565
v -0.3148 7.5652 1.5489
v -0.1024 7.6309 1.6317
v -0.4567 7.6311 1.4862
v -0.2762 7.6144 1.5740
v -0.5821 8.0517 1.3371
v -0.3986 7.6133 1.5233
v -0.2324 7.6121 1.5917
v -0.5312 7.6656 1.4437
v -0.5777 8.1507 1.3072
v -0.5244 7.6422 1.4756
v -0.0672 7.6673 1.6231
v -0.5779 8.1505 1.3068
v -0.5774 8.1504 1.3064
v -0.5704 7.8752 1.3973
v -0.4765 7.5966 1.4889
v -0.2608 7.5819 1.5388
v -0.5829 8.0525 1.3395
v -0.4011 7.5753 1.5027
v -0.5765 8.1008 1.3224
v -0.4397 7.6133 1.5129
v -0.5809 8.0065 1.3587
v -0.5752 8.0523 1.3390
v -0.1644 7.6496 1.5904
v -0.5778 8.1503 1.3063
v -0.5781 8.0036 1.3493
v -0.5873 7.9594 1.3683
v -0.5748 7.9173 1.3868
v -0.5766 7.8352 1.4110
v -0.5858 7.9580 1.3634
v -0.5541 7.6952 1.4515
v -0.5725 7.8315 1.3967
v -0.5767 7.7931 1.4112
v -0.3490 7.5973 1.5052
v -0.5803 8.1014 1.3242
v -0.5460 7.7327 1.4402
v -0.4366 7.5907 1.4852
v -0.5615 7.7587 1.4189
v -0.5325 7.7017 1.4397
v -0.5778 7.7941 1.4150
v -0.3660 7.5858 1.5503
v -0.3176 7.6171 1.5532
v -0.5845 7.8714 1.3876
v -0.5619 7.7964 1.4146
v -0.5185 7.6820 1.4617
v -0.4918 7.6205 1.4631
v -0.3943 7.5899 1.4951
v -0.0947 7.6405 1.6038
v -0.5783 8.1505 1.3068
v -0.3090 7.5687 1.5311
v -0.2752 7.5925 1.5800
v -0.2318 7.6297 1.5797
v -0.4903 7.6389 1.4899
v -0.1057 7.6484 1.6318
v -0.5782 8.1504 1.3065
v -0.5720 7.9592 1.3671
v -0.5651 7.7618 1.4317
v -0.5687 7.8736 1.3916
v -0.0392 7.6486 1.6228
v -0.4627 7.6293 1.4977
v -0.0427 7.6507 1.6315
v -0.5632 7.7230 1.4307
v -0.2618 7.6039 1.5329
v -0.5781 8.1505 1.3067
v -0.0408 7.6721 1.6172
v -0.1425 7.5895 1.5879
v -0.4705 7.5985 1.4773
v -0.5861 7.8729 1.3933
v -0.4457 7.5981 1.5149
v -0.4054 7.5990 1.5310
v -0.5772 8.1505 1.3067
v -0.5845 8.0058 1.3563
v -0.5250 7.6364 1.4653
v -0.5773 8.1506 1.3070
v -0.5443 7.7313 1.4341
v -0.5775 8.1505 1.3068
v -0.5759 8.0531 1.3414
v -0.5712 7.9162 1.3825
v -0.1588 7.6457 1.5748
v -0.5746 8.0044 1.3517
v -0.5701 7.8358 1.4103
v -0.4987 7.6618 1.4667
v -0.5186 7.6374 1.4553
v -0.3593 7.5639 1.5242
v -0.5763 8.1013 1.3239
v -0.4306 7.6059 1.4832
v -0.5735 7.9607 1.3720
v -0.5789 7.8310 1.3973
v -0.5749 7.7957 1.4189
v -0.3504 7.6145 1.5144
v -0.5649 7.7244 1.4369
v -0.5462 7.7009 1.4560
v -0.1636 7.5973 1.6052
v -0.5403 7.6960 1.4351
v -0.5397 7.6623 1.4497
v -0.4825 7.6324 1.4630
v -0.5833 7.9133 1.3742
v -0.5424 7.6645 1.4591
v -0.4996 7.6271 1.4901
v -0.1068 7.6590 1.6236
v -0.5582 7.7634 1.4308
v -0.3647 7.5683 1.5413
v -0.3057 7.5872 1.5197
v -0.5851 8.0046 1.3525
v -0.5159 7.6798 1.4524
v -0.5773 8.1506 1.3070
v -0.3209 7.5988 1.5647
v -0.2644 7.5706 1.5548
v -0.0952 7.6246 1.6092
v -0.0566 7.6554 1.6337
v -0.5648 7.7948 1.4107
v -0.2703 7.5750 1.5719
v -0.2190 7.5727 1.5796
v -0.5716 7.7574 1.4236
v -0.5684 7.7570 1.4196
v -0.5782 8.1504 1.3065
v -0.5827 7.8746 1.3984
v -0.2667 7.6213 1.5410
v -0.2269 7.6329 1.5623
v -0.2171 7.5832 1.5602
v -0.5777 8.1505 1.3068
v -0.5740 8.0055 1.3555
v -0.5050 7.6609 1.4766
v -0.4090 7.5818 1.5282
v -0.5783 8.1505 1.3068
v -0.5722 7.8719 1.3865
v -0.4619 7.6101 1.4716
v -0.5796 8.0513 1.3359
v -0.0354 7.6668 1.6138
v -0.5720 7.9146 1.3771
v -0.3908 7.6070 1.4982
v -0.5772 8.1505 1.3067
v -0.5805 8.1009 1.3227
v -0.4714 7.6179 1.5035
v -0.4431 7.5830 1.4952
v -0.5784 8.0534 1.3426
v -0.4469 7.5861 1.5075
v -0.1534 7.6296 1.5673
v -0.5611 7.7278 1.4423
v -0.5365 7.7051 1.4541
v -0.5000 7.6148 1.4712
v -0.4284 7.6177 1.4911
v -0.5785 7.9613 1.3744
v -0.1651 7.6185 1.6120
v -0.5773 8.1016 1.3250
v -0.5861 7.9160 1.3839
v -0.3558 7.6187 1.5311
v -0.5480 7.7280 1.4287
v -0.3069 7.6090 1.5216
v -0.5663 7.8349 1.4058
v -0.5499 7.6918 1.4370
v -0.5377 7.6710 1.4665
v -0.4789 7.6418 1.4708
v -0.5827 7.8319 1.4018
v -0.5677 7.7974 1.4206
v -0.1043 7.6611 1.6120
v -0.5808 7.9573 1.3611
v -0.5795 8.1006 1.3216
v -0.3197 7.5769 1.5630
v -0.5777 8.1507 1.3072
v -0.5076 7.6458 1.4515
v -0.0331 7.6570 1.6218
v -0.5869 7.9144 1.3784
v -0.5032 7.6175 1.4824
v -0.4561 7.6239 1.4754
v -0.5720 7.7932 1.4090
v -0.2282 7.5912 1.5910
v -0.0703 7.6627 1.6289
v -0.0956 7.6039 1.6129
v -0.5551 7.7630 1.4269
v -0.5781 8.1506 1.3071
v -0.5550 7.6918 1.4438
v -0.2726 7.6257 1.5580
v -0.5205 7.6734 1.4449
v -0.2209 7.6218 1.5490
v -0.5778 8.1503 1.3063
v -0.5788 7.8710 1.3848
v -0.5813 8.0532 1.3418
v -0.5766 8.0064 1.3585
v -0.4772 7.6040 1.4998
v -0.4072 7.5725 1.5163
v -0.5774 8.1505 1.3068
v -0.5761 7.8756 1.4001
v -0.5767 8.0516 1.3367
v -0.5771 7.9134 1.3737
v -0.3928 7.6158 1.5099
v -0.0357 7.6546 1.6147
v -0.5159 7.6527 1.4805
v -0.5774 8.1504 1.3064
v -0.5825 8.0037 1.3496
v -0.5843 7.9607 1.3728
v -0.5779 8.1005 1.3215
v -0.5780 8.1504 1.3064
v -0.5776 8.1503 1.3063
v -0.5773 8.1504 1.3066
v -0.5772 8.1505 1.3069
v -0.5775 8.1506 1.3072
v -0.5779 8.1506 1.3072
v -0.5782 8.1506 1.3070
v -0.5782 8.1505 1.3066
v -0.0337 7.6585 1.6276
v -0.0349 7.6605 1.6326
v -0.0294 7.6650 1.6209
v -0.0320 7.6663 1.6267
v -0.0433 7.6642 1.6300
v -0.0313 7.6704 1.6198
v -0.0395 7.6696 1.6238
v -0.0518 7.6670 1.6269
v -0.0402 7.6495 1.6178
v -0.0334 7.6615 1.6135
v -0.0378 7.6691 1.6153
v -0.0523 7.6710 1.6201
v -0.0732 7.6654 1.6262
v -0.0665 7.6586 1.6317
v -0.0437 7.6538 1.6341
v -0.0409 7.6487 1.6275
v -0.1430 7.5951 1.5795
v -0.1516 7.6188 1.5684
v -0.1559 7.6390 1.5694
v -0.1618 7.6494 1.5821
v -0.1663 7.6464 1.5986
v -0.1666 7.6297 1.6105
v -0.1700 7.5896 1.6106
v -0.1611 7.5825 1.6007
v -0.2621 7.5742 1.5460
v -0.2607 7.5925 1.5340
v -0.2639 7.6140 1.5352
v -0.2697 7.6254 1.5490
v -0.2749 7.6221 1.5667
v -0.2764 7.6039 1.5788
v -0.2731 7.5823 1.5777
v -0.2673 7.5708 1.5639
v -0.3559 7.5676 1.5159
v -0.3503 7.5859 1.5055
v -0.3490 7.6073 1.5082
v -0.3527 7.6185 1.5223
v -0.3591 7.6152 1.5393
v -0.3647 7.5973 1.5498
v -0.3661 7.5757 1.5474
v -0.3624 7.5641 1.5331
v -0.4400 7.5854 1.4894
v -0.4332 7.5980 1.4829
v -0.4287 7.6128 1.4861
v -0.4295 7.6205 1.4971
v -0.4355 7.6185 1.5089
v -0.4431 7.6061 1.5153
v -0.4471 7.5912 1.5123
v -0.4455 7.5832 1.5015
v -0.4964 7.6165 1.4664
v -0.4868 7.6262 1.4618
v -0.4797 7.6379 1.4661
v -0.4797 7.6442 1.4763
v -0.4857 7.6429 1.4866
v -0.4954 7.6333 1.4912
v -0.5024 7.6215 1.4871
v -0.5024 7.6151 1.4768
v -0.5361 7.6631 1.4459
v -0.5255 7.6693 1.4432
v -0.5171 7.6771 1.4481
v -0.5163 7.6815 1.4571
v -0.5220 7.6812 1.4654
v -0.5326 7.6751 1.4682
v -0.5411 7.6673 1.4634
v -0.5419 7.6627 1.4543
v -0.5606 7.7232 1.4283
v -0.5522 7.7259 1.4271
v -0.5453 7.7298 1.4311
v -0.5445 7.7323 1.4373
v -0.5485 7.7326 1.4426
v -0.5569 7.7299 1.4439
v -0.5639 7.7259 1.4399
v -0.5647 7.7234 1.4336
v -0.5749 7.7929 1.4097
v -0.5682 7.7939 1.4092
v -0.5627 7.7957 1.4126
v -0.5620 7.7970 1.4166
v -0.5648 7.7976 1.4199
v -0.5714 7.7967 1.4204
v -0.5771 7.7948 1.4170
v -0.5777 7.7935 1.4130
v -0.5820 7.8710 1.3857
v -0.5753 7.8713 1.3851
v -0.5698 7.8727 1.3888
v -0.5689 7.8745 1.3946
v -0.5729 7.8755 1.3993
v -0.5796 7.8752 1.3998
v -0.5851 7.8738 1.3962
v -0.5860 7.8721 1.3903
v -0.5836 7.9575 1.3617
v -0.5778 7.9575 1.3613
v -0.5730 7.9585 1.3646
v -0.5722 7.9600 1.3697
v -0.5757 7.9611 1.3737
v -0.5815 7.9612 1.3741
v -0.5863 7.9601 1.3708
v -0.5871 7.9586 1.3657
v -0.5810 8.0515 1.3362
v -0.5781 8.0514 1.3361
v -0.5757 8.0519 1.3377
v -0.5753 8.0527 1.3403
v -0.5770 8.0533 1.3423
v -0.5800 8.0534 1.3424
v -0.5824 8.0529 1.3408
v -0.5828 8.0521 1.3382
v -0.5780 8.1504 1.3064
v -0.5776 8.1503 1.3063
v -0.5773 8.1504 1.3066
v -0.5772 8.1505 1.3069
v -0.5775 8.1506 1.3072
v -0.5779 8.1506 1.3072
v -0.5782 8.1506 1.3070
v -0.5782 8.1505 1.3066
vt 0.2674 0.5560
vt 0.2673 0.5561
vt 0.2672 0.5560
vt 0.2674 0.5560
vt 0.2675 0.5560
vt 0.2674 0.5560
vt 0.2674 0.5561
vt 0.2674 0.5559
vt 0.2674 0.5559
vt 0.2675 0.5558
vt 0.2675 0.5559
vt 0.2673 0.5559
vt 0.2671 0.5560
vt 0.2671 0.5559
vt 0.2673 0.5558
vt 0.2674 0.5558
vt 0.2673 0.5557
vt 0.2674 0.5556
vt 0.2675 0.5557
vt 0.2672 0.5557
vt 0.2671 0.5558
vt 0.2671 0.5557
vt 0.2673 0.5557
vt 0.2673 0.5556
vt 0.2672 0.5556
vt 0.2673 0.5556
vt 0.2674 0.5556
vt 0.2519 0.5624
vt 0.2518 0.5593
vt 0.2533 0.5577
vt 0.2551 0.5615
vt 0.2535 0.5654
vt 0.2570 0.5649
vt 0.5260 0.1951
vt 0.5247 0.1930
vt 0.5273 0.1915
vt 0.5286 0.1938
vt 0.6420 0.5157
vt 0.6406 0.5151
vt 0.6431 0.5122
vt 0.6438 0.5164
vt 0.2551 0.5562
vt 0.2577 0.5604
vt 0.2597 0.5635
vt 0.2584 0.5669
vt 0.2602 0.5647
vt 0.6460 0.5153
vt 0.6467 0.5210
vt 0.2574 0.5556
vt 0.2602 0.5595
vt 0.3595 0.5538
vt 0.3561 0.5556
vt 0.3566 0.5555
vt 0.3553 0.5513
vt 0.3583 0.5500
vt 0.3536 0.5473
vt 0.3547 0.5449
vt 0.3488 0.5416
vt 0.3566 0.5555
vt 0.3505 0.5555
vt 0.3515 0.5548
vt 0.3480 0.5501
vt 0.3461 0.5457
vt 0.3463 0.5428
vt 0.3463 0.5407
vt 0.4857 0.1983
vt 0.5181 0.1897
vt 0.5181 0.1911
vt 0.4913 0.2031
vt 0.4654 0.2148
vt 0.4634 0.2117
vt 0.6696 0.5381
vt 0.6716 0.5620
vt 0.6630 0.5682
vt 0.6672 0.5380
vt 0.6682 0.5122
vt 0.6706 0.5122
vt 0.4951 0.2055
vt 0.5215 0.1916
vt 0.5247 0.1930
vt 0.4973 0.2083
vt 0.4713 0.2261
vt 0.4676 0.2217
vt 0.4993 0.2113
vt 0.5260 0.1951
vt 0.5261 0.1963
vt 0.5007 0.2137
vt 0.4772 0.2331
vt 0.4746 0.2299
vt 0.6475 0.5452
vt 0.6503 0.5453
vt 0.6450 0.5748
vt 0.6408 0.5749
vt 0.6371 0.5750
vt 0.6449 0.5451
vt 0.6531 0.5453
vt 0.6499 0.5274
vt 0.6520 0.5298
vt 0.6555 0.5452
vt 0.6525 0.5750
vt 0.6491 0.5749
vt 0.3319 0.5334
vt 0.3301 0.5359
vt 0.3034 0.5183
vt 0.3067 0.5146
vt 0.3093 0.5117
vt 0.3334 0.5313
vt 0.3278 0.5390
vt 0.3245 0.5420
vt 0.2874 0.5285
vt 0.2997 0.5221
vt 0.6606 0.5422
vt 0.6660 0.5125
vt 0.6602 0.5686
vt 0.6569 0.5706
vt 0.6569 0.5383
vt 0.3136 0.5452
vt 0.4335 0.2340
vt 0.4372 0.2384
vt 0.6680 0.5969
vt 0.6728 0.5984
vt 0.6725 0.6200
vt 0.6681 0.6197
vt 0.6635 0.6196
vt 0.6638 0.5964
vt 0.4402 0.2415
vt 0.4438 0.2453
vt 0.4266 0.2592
vt 0.4227 0.2555
vt 0.4195 0.2526
vt 0.4372 0.2384
vt 0.4473 0.2491
vt 0.4501 0.2524
vt 0.4334 0.2662
vt 0.4304 0.2630
vt 0.6403 0.6070
vt 0.6447 0.6069
vt 0.6448 0.6276
vt 0.6403 0.6278
vt 0.6363 0.6281
vt 0.6364 0.6072
vt 0.6490 0.6069
vt 0.6526 0.6072
vt 0.6530 0.6280
vt 0.6493 0.6277
vt 0.2792 0.4953
vt 0.2757 0.4990
vt 0.2585 0.4851
vt 0.2623 0.4814
vt 0.2653 0.4785
vt 0.2820 0.4923
vt 0.2721 0.5029
vt 0.2692 0.5062
vt 0.2514 0.4921
vt 0.2547 0.4889
vt 0.2448 0.5556
vt 0.2448 0.5857
vt 0.2382 0.5847
vt 0.2404 0.5563
vt 0.6598 0.5979
vt 0.6592 0.6197
vt 0.2669 0.5090
vt 0.2494 0.4942
vt 0.6598 0.5979
vt 0.6567 0.5987
vt 0.6677 0.6424
vt 0.6721 0.6425
vt 0.6718 0.6650
vt 0.6675 0.6653
vt 0.6629 0.6653
vt 0.6631 0.6424
vt 0.4060 0.2711
vt 0.4103 0.2745
vt 0.3954 0.2908
vt 0.3908 0.2879
vt 0.3869 0.2857
vt 0.4024 0.2685
vt 0.4144 0.2779
vt 0.4178 0.2808
vt 0.4036 0.2960
vt 0.4000 0.2936
vt 0.6407 0.6480
vt 0.6452 0.6478
vt 0.6458 0.6671
vt 0.6414 0.6675
vt 0.6375 0.6685
vt 0.6367 0.6487
vt 0.6496 0.6479
vt 0.6533 0.6484
vt 0.6538 0.6680
vt 0.6502 0.6673
vt 0.2464 0.4667
vt 0.2422 0.4700
vt 0.2276 0.4540
vt 0.2321 0.4512
vt 0.2357 0.4490
vt 0.2497 0.4641
vt 0.2380 0.4734
vt 0.2344 0.4763
vt 0.2190 0.4593
vt 0.2229 0.4568
vt 0.6588 0.6424
vt 0.6587 0.6651
vt 0.6555 0.6648
vt 0.6556 0.6424
vt 0.6560 0.6201
vt 0.6671 0.6871
vt 0.6706 0.6866
vt 0.6704 0.7054
vt 0.6673 0.7059
vt 0.6640 0.7060
vt 0.6634 0.6872
vt 0.3786 0.3059
vt 0.3827 0.3077
vt 0.3731 0.3244
vt 0.3694 0.3231
vt 0.3663 0.3221
vt 0.3751 0.3045
vt 0.3868 0.3095
vt 0.3900 0.3109
vt 0.3800 0.3267
vt 0.3769 0.3258
vt 0.6430 0.6865
vt 0.6466 0.6860
vt 0.6477 0.7027
vt 0.6445 0.7033
vt 0.6417 0.7046
vt 0.6399 0.6876
vt 0.6501 0.6862
vt 0.6530 0.6871
vt 0.6535 0.7040
vt 0.6508 0.7030
vt 0.2189 0.4356
vt 0.2149 0.4374
vt 0.2053 0.4207
vt 0.2090 0.4194
vt 0.2120 0.4186
vt 0.2221 0.4343
vt 0.2107 0.4391
vt 0.2073 0.4406
vt 0.1984 0.4232
vt 0.2015 0.4221
vt 0.6600 0.6869
vt 0.6610 0.7057
vt 0.6587 0.7051
vt 0.6575 0.6863
vt 0.6680 0.7212
vt 0.6710 0.7205
vt 0.6716 0.7333
vt 0.6688 0.7342
vt 0.6659 0.7344
vt 0.6647 0.7213
vt 0.3644 0.3381
vt 0.3683 0.3389
vt 0.3662 0.3531
vt 0.3625 0.3529
vt 0.3595 0.3527
vt 0.3613 0.3375
vt 0.3722 0.3397
vt 0.3752 0.3404
vt 0.3727 0.3534
vt 0.3698 0.3533
vt 0.6458 0.7150
vt 0.6489 0.7145
vt 0.6502 0.7240
vt 0.6473 0.7246
vt 0.6449 0.7260
vt 0.6430 0.7163
vt 0.6520 0.7147
vt 0.6546 0.7158
vt 0.6555 0.7254
vt 0.6531 0.7243
vt 0.2043 0.4056
vt 0.2005 0.4064
vt 0.1983 0.3923
vt 0.2020 0.3921
vt 0.2048 0.3920
vt 0.2072 0.4050
vt 0.1966 0.4072
vt 0.1934 0.4078
vt 0.1916 0.3927
vt 0.1946 0.3925
vt 0.6617 0.7209
vt 0.6631 0.7339
vt 0.1913 0.4083
vt 0.1897 0.3928
vt 0.6595 0.7201
vt 0.6701 0.7456
vt 0.6728 0.7446
vt 0.6935 0.5201
vt 0.6961 0.5212
vt 0.6941 0.5337
vt 0.6918 0.5329
vt 0.6894 0.5327
vt 0.6907 0.5197
vt 0.6672 0.7459
vt 0.3630 0.3673
vt 0.3666 0.3670
vt 0.3694 0.3807
vt 0.3663 0.3814
vt 0.3637 0.3820
vt 0.3600 0.3675
vt 0.3703 0.3667
vt 0.3731 0.3664
vt 0.3749 0.3795
vt 0.3725 0.3800
vt 0.6753 0.5200
vt 0.6752 0.5124
vt 0.6781 0.5128
vt 0.6782 0.5204
vt 0.6783 0.5289
vt 0.6759 0.5287
vt 0.6738 0.5279
vt 0.6728 0.5189
vt 0.3747 0.3663
vt 0.3743 0.3535
vt 0.2067 0.3792
vt 0.2063 0.3919
vt 0.2048 0.3920
vt 0.2052 0.3791
vt 0.6809 0.5198
vt 0.6833 0.5185
vt 0.6827 0.5275
vt 0.6807 0.5285
vt 0.6809 0.5122
vt 0.2024 0.3788
vt 0.1988 0.3785
vt 0.2016 0.3648
vt 0.2046 0.3655
vt 0.2070 0.3660
vt 0.2052 0.3791
vt 0.1951 0.3782
vt 0.1921 0.3779
vt 0.1958 0.3635
vt 0.1984 0.3641
vt 0.6645 0.7454
vt 0.6879 0.5201
vt 0.6870 0.5329
vt 0.1902 0.3778
vt 0.1943 0.3632
vt 0.6904 0.5469
vt 0.6923 0.5475
vt 0.6907 0.5624
vt 0.6892 0.5620
vt 0.6876 0.5619
vt 0.6883 0.5467
vt 0.3718 0.3953
vt 0.3744 0.3943
vt 0.3815 0.4079
vt 0.3794 0.4089
vt 0.3778 0.4097
vt 0.3697 0.3960
vt 0.3770 0.3934
vt 0.3790 0.3927
vt 0.3851 0.4062
vt 0.3836 0.4069
vt 0.6767 0.5392
vt 0.6787 0.5394
vt 0.6791 0.5516
vt 0.6775 0.5515
vt 0.6760 0.5511
vt 0.6749 0.5386
vt 0.6806 0.5390
vt 0.6823 0.5383
vt 0.6820 0.5509
vt 0.6806 0.5514
vt 0.2091 0.3521
vt 0.2065 0.3512
vt 0.2136 0.3376
vt 0.2156 0.3386
vt 0.2172 0.3393
vt 0.2110 0.3528
vt 0.2039 0.3502
vt 0.2018 0.3495
vt 0.2098 0.3358
vt 0.2115 0.3366
vt 0.6864 0.5469
vt 0.6860 0.5620
vt 0.6848 0.5624
vt 0.6848 0.5474
vt 0.6851 0.5337
vt 0.6883 0.5782
vt 0.6895 0.5784
vt 0.6888 0.5955
vt 0.6878 0.5954
vt 0.6868 0.5954
vt 0.6871 0.5781
vt 0.3888 0.4225
vt 0.3904 0.4216
vt 0.4011 0.4352
vt 0.3996 0.4363
vt 0.3986 0.4370
vt 0.3876 0.4232
vt 0.3921 0.4206
vt 0.3932 0.4199
vt 0.4036 0.4334
vt 0.4026 0.4342
vt 0.6783 0.5655
vt 0.6795 0.5655
vt 0.6799 0.5811
vt 0.6789 0.5811
vt 0.6780 0.5810
vt 0.6772 0.5652
vt 0.6807 0.5654
vt 0.6817 0.5651
vt 0.6818 0.5809
vt 0.6809 0.5810
vt 0.2241 0.3249
vt 0.2225 0.3239
vt 0.2332 0.3102
vt 0.2346 0.3113
vt 0.2356 0.3120
vt 0.2252 0.3256
vt 0.2209 0.3230
vt 0.2196 0.3223
vt 0.2306 0.3084
vt 0.2317 0.3092
vt 0.6859 0.5782
vt 0.6858 0.5954
vt 0.6850 0.5955
vt 0.6850 0.5784
vt 0.6881 0.6136
vt 0.6895 0.6137
vt 0.6898 0.6328
vt 0.6884 0.6328
vt 0.6869 0.6328
vt 0.6866 0.6136
vt 0.4123 0.4503
vt 0.4135 0.4493
vt 0.4272 0.4633
vt 0.4259 0.4644
vt 0.4249 0.4653
vt 0.4112 0.4511
vt 0.4148 0.4483
vt 0.4158 0.4475
vt 0.4294 0.4614
vt 0.4284 0.4623
vt 0.6789 0.5987
vt 0.6803 0.5987
vt 0.6806 0.6172
vt 0.6791 0.6171
vt 0.6778 0.6170
vt 0.6776 0.5985
vt 0.6817 0.5986
vt 0.6829 0.5984
vt 0.6833 0.6169
vt 0.6820 0.6171
vt 0.2469 0.2971
vt 0.2456 0.2961
vt 0.2593 0.2821
vt 0.2605 0.2831
vt 0.2614 0.2841
vt 0.2478 0.2980
vt 0.2444 0.2952
vt 0.2433 0.2943
vt 0.2569 0.2801
vt 0.2580 0.2810
vt 0.6853 0.6137
vt 0.6854 0.6328
vt 0.6843 0.6329
vt 0.6842 0.6138
vt 0.6889 0.6529
vt 0.6901 0.6529
vt 0.6909 0.6738
vt 0.6897 0.6739
vt 0.6884 0.6739
vt 0.6875 0.6529
vt 0.4409 0.4787
vt 0.4420 0.4777
vt 0.4579 0.4923
vt 0.4568 0.4933
vt 0.4560 0.4942
vt 0.4399 0.4796
vt 0.4431 0.4766
vt 0.4440 0.4758
vt 0.4598 0.4906
vt 0.4589 0.4914
vt 0.6792 0.6366
vt 0.6806 0.6367
vt 0.6805 0.6573
vt 0.6792 0.6572
vt 0.6780 0.6571
vt 0.6781 0.6365
vt 0.6820 0.6366
vt 0.6831 0.6365
vt 0.6828 0.6571
vt 0.6818 0.6572
vt 0.2751 0.2687
vt 0.2740 0.2677
vt 0.2898 0.2530
vt 0.2908 0.2540
vt 0.2916 0.2548
vt 0.2760 0.2696
vt 0.2729 0.2667
vt 0.2719 0.2659
vt 0.2878 0.2512
vt 0.2888 0.2520
vt 0.6861 0.6530
vt 0.6871 0.6740
vt 0.6862 0.6740
vt 0.6851 0.6530
vt 0.6907 0.6957
vt 0.6916 0.6957
vt 0.6928 0.7184
vt 0.6922 0.7184
vt 0.6915 0.7184
vt 0.6898 0.6958
vt 0.4739 0.5082
vt 0.4746 0.5075
vt 0.4921 0.5231
vt 0.4916 0.5236
vt 0.4912 0.5241
vt 0.4732 0.5089
vt 0.4754 0.5068
vt 0.4760 0.5062
vt 0.4930 0.5222
vt 0.4926 0.5226
vt 0.6790 0.6787
vt 0.6800 0.6787
vt 0.6792 0.7010
vt 0.6786 0.7010
vt 0.6780 0.7009
vt 0.6782 0.6786
vt 0.6810 0.6787
vt 0.6818 0.6786
vt 0.6804 0.7010
vt 0.6799 0.7010
vt 0.3071 0.2386
vt 0.3064 0.2379
vt 0.3237 0.2223
vt 0.3242 0.2228
vt 0.3245 0.2233
vt 0.3077 0.2393
vt 0.3056 0.2372
vt 0.3049 0.2366
vt 0.3227 0.2214
vt 0.3231 0.2218
vt 0.6888 0.6958
vt 0.6909 0.7185
vt 0.6904 0.7185
vt 0.6881 0.6959
vt 0.6940 0.7418
vt 0.6944 0.7418
vt 0.6961 0.7656
vt 0.6961 0.7656
vt 0.6960 0.7656
vt 0.6936 0.7418
vt 0.5098 0.5396
vt 0.5101 0.5393
vt 0.5284 0.5558
vt 0.5284 0.5558
vt 0.5283 0.5559
vt 0.5096 0.5398
vt 0.5104 0.5390
vt 0.5107 0.5388
vt 0.5286 0.5556
vt 0.5285 0.5557
vt 0.6777 0.7241
vt 0.6781 0.7241
vt 0.6767 0.7476
vt 0.6766 0.7476
vt 0.6765 0.7475
vt 0.6774 0.7240
vt 0.6784 0.7241
vt 0.6787 0.7241
vt 0.6769 0.7476
vt 0.6768 0.7476
vt 0.3417 0.2065
vt 0.3414 0.2062
vt 0.3594 0.1898
vt 0.3595 0.1899
vt 0.3595 0.1899
vt 0.3419 0.2067
vt 0.3411 0.2059
vt 0.3409 0.2057
vt 0.3593 0.1897
vt 0.3593 0.1898
vt 0.6933 0.7419
vt 0.6959 0.7656
vt 0.6958 0.7656
vt 0.6930 0.7419
vt 0.2669 0.5556
vt 0.2669 0.5557
vt 0.2668 0.5556
vt 0.2668 0.5556
vt 0.2670 0.5556
vt 0.2671 0.5557
vt 0.2669 0.5556
vt 0.2670 0.5557
vt 0.2669 0.5557
vt 0.2671 0.5558
vt 0.2671 0.5559
vt 0.2668 0.5558
vt 0.2669 0.5558
vt 0.2667 0.5558
vt 0.2667 0.5557
vt 0.2669 0.5559
vt 0.2668 0.5559
vt 0.2671 0.5560
vt 0.2670 0.5560
vt 0.2668 0.5559
vt 0.2668 0.5560
vt 0.2667 0.5560
vt 0.2667 0.5559
vt 0.2668 0.5560
vt 0.2668 0.5560
vt 0.2669 0.5561
vt 0.2668 0.5561
vt 0.2605 0.5629
vt 0.2642 0.5618
vt 0.2634 0.5659
vt 0.2610 0.5654
vt 0.2604 0.5596
vt 0.2646 0.5580
vt 0.2602 0.5573
vt 0.2637 0.5556
vt 0.6052 0.7433
vt 0.6071 0.7423
vt 0.6063 0.7468
vt 0.6038 0.7441
vt 0.2667 0.5613
vt 0.2652 0.5661
vt 0.2667 0.5576
vt 0.6842 0.1932
vt 0.6804 0.1954
vt 0.6816 0.1922
vt 0.6831 0.1908
vt 0.6098 0.7379
vt 0.6091 0.7439
vt 0.6245 0.5124
vt 0.6270 0.5122
vt 0.6275 0.5159
vt 0.6254 0.5157
vt 0.6816 0.1922
vt 0.6764 0.1947
vt 0.6779 0.1910
vt 0.6786 0.1899
vt 0.6748 0.1980
vt 0.6769 0.1994
vt 0.6701 0.2024
vt 0.6779 0.1910
vt 0.6686 0.1954
vt 0.6726 0.1912
vt 0.6725 0.1897
vt 0.6664 0.1992
vt 0.6667 0.2018
vt 0.6669 0.2035
vt 0.2157 0.5556
vt 0.2234 0.5560
vt 0.2290 0.5803
vt 0.2280 0.5800
vt 0.1938 0.5801
vt 0.1897 0.5605
vt 0.1937 0.5579
vt 0.2012 0.5828
vt 0.6238 0.5421
vt 0.6261 0.5421
vt 0.6300 0.5726
vt 0.6214 0.5662
vt 0.6229 0.5156
vt 0.6254 0.5157
vt 0.2277 0.5575
vt 0.2313 0.5579
vt 0.2344 0.5846
vt 0.2312 0.5830
vt 0.2056 0.5835
vt 0.2006 0.5558
vt 0.2066 0.5556
vt 0.2093 0.5832
vt 0.2350 0.5576
vt 0.2382 0.5567
vt 0.2382 0.5829
vt 0.2370 0.5840
vt 0.2129 0.5834
vt 0.2117 0.5565
vt 0.2157 0.5583
vt 0.2157 0.5843
vt 0.6099 0.7145
vt 0.6127 0.7143
vt 0.6026 0.6850
vt 0.6069 0.6849
vt 0.6072 0.7151
vt 0.5987 0.6854
vt 0.6154 0.7145
vt 0.6176 0.7151
vt 0.6147 0.7299
vt 0.6127 0.7320
vt 0.6108 0.6851
vt 0.6140 0.6856
vt 0.6516 0.2090
vt 0.6496 0.2067
vt 0.6298 0.2202
vt 0.6263 0.2167
vt 0.6536 0.2106
vt 0.6333 0.2223
vt 0.6477 0.2034
vt 0.6456 0.1995
vt 0.6233 0.2123
vt 0.6134 0.2033
vt 0.6327 0.5464
vt 0.6327 0.5729
vt 0.6363 0.5421
vt 0.6360 0.5750
vt 0.6382 0.1926
vt 0.6246 0.6014
vt 0.6197 0.6027
vt 0.6176 0.5675
vt 0.6214 0.5662
vt 0.6241 0.6242
vt 0.6197 0.6244
vt 0.6288 0.6009
vt 0.6287 0.6242
vt 0.7779 0.5023
vt 0.7809 0.4981
vt 0.8074 0.5081
vt 0.8045 0.5131
vt 0.7607 0.4942
vt 0.7641 0.4901
vt 0.7746 0.5053
vt 0.7572 0.4971
vt 0.8033 0.5197
vt 0.7831 0.4934
vt 0.7841 0.4892
vt 0.8103 0.4993
vt 0.8094 0.5035
vt 0.7665 0.4854
vt 0.7677 0.4810
vt 0.6011 0.6540
vt 0.6056 0.6539
vt 0.6007 0.6335
vt 0.6053 0.6334
vt 0.5970 0.6543
vt 0.5964 0.6337
vt 0.6098 0.6541
vt 0.6131 0.6546
vt 0.6096 0.6336
vt 0.6130 0.6340
vt 0.6048 0.2321
vt 0.6012 0.2285
vt 0.5894 0.2413
vt 0.5855 0.2377
vt 0.6085 0.2343
vt 0.5933 0.2435
vt 0.5983 0.2241
vt 0.5967 0.2198
vt 0.5824 0.2333
vt 0.5806 0.2290
vt 0.2518 0.5805
vt 0.2469 0.5777
vt 0.2448 0.5556
vt 0.2518 0.5564
vt 0.6327 0.6024
vt 0.6330 0.6243
vt 0.6357 0.6031
vt 0.6362 0.6246
vt 0.6241 0.6470
vt 0.6198 0.6470
vt 0.6240 0.6699
vt 0.6197 0.6695
vt 0.6288 0.6470
vt 0.6286 0.6700
vt 0.7438 0.4844
vt 0.7475 0.4804
vt 0.7280 0.4730
vt 0.7321 0.4694
vt 0.7400 0.4871
vt 0.7239 0.4754
vt 0.7504 0.4760
vt 0.7519 0.4718
vt 0.7354 0.4653
vt 0.7373 0.4616
vt 0.6007 0.6131
vt 0.6053 0.6132
vt 0.6012 0.5933
vt 0.6057 0.5936
vt 0.5965 0.6131
vt 0.5971 0.5930
vt 0.6096 0.6134
vt 0.6129 0.6136
vt 0.6099 0.5937
vt 0.6132 0.5936
vt 0.5750 0.2514
vt 0.5707 0.2480
vt 0.5620 0.2624
vt 0.5574 0.2595
vt 0.5791 0.2534
vt 0.5664 0.2641
vt 0.5672 0.2439
vt 0.5651 0.2398
vt 0.5535 0.2558
vt 0.5510 0.2521
vt 0.6331 0.6470
vt 0.6328 0.6698
vt 0.6363 0.6471
vt 0.6360 0.6694
vt 0.6240 0.6916
vt 0.6205 0.6910
vt 0.6234 0.7102
vt 0.6203 0.7097
vt 0.6277 0.6918
vt 0.6267 0.7104
vt 0.7138 0.4591
vt 0.7176 0.4566
vt 0.7028 0.4455
vt 0.7063 0.4435
vt 0.7102 0.4608
vt 0.6995 0.4468
vt 0.7206 0.4537
vt 0.7225 0.4511
vt 0.7091 0.4411
vt 0.7110 0.4390
vt 0.6026 0.5741
vt 0.6062 0.5744
vt 0.6041 0.5561
vt 0.6073 0.5566
vt 0.5993 0.5734
vt 0.6012 0.5552
vt 0.6095 0.5744
vt 0.6122 0.5741
vt 0.6104 0.5565
vt 0.6129 0.5559
vt 0.5508 0.2731
vt 0.5467 0.2712
vt 0.5419 0.2855
vt 0.5381 0.2840
vt 0.5546 0.2742
vt 0.5455 0.2861
vt 0.5602 0.5247
vt 0.5572 0.5220
vt 0.5683 0.5122
vt 0.5717 0.5158
vt 0.5515 0.5344
vt 0.5487 0.5321
vt 0.5432 0.2686
vt 0.5350 0.2819
vt 0.6311 0.6914
vt 0.6298 0.7101
vt 0.5537 0.5206
vt 0.5456 0.5310
vt 0.6336 0.6907
vt 0.6225 0.7252
vt 0.6195 0.7245
vt 0.6213 0.7380
vt 0.6186 0.7371
vt 0.6257 0.7255
vt 0.6243 0.7382
vt 0.6961 0.4329
vt 0.6998 0.4314
vt 0.6920 0.4197
vt 0.6955 0.4187
vt 0.6927 0.4339
vt 0.6887 0.4202
vt 0.5860 0.7695
vt 0.5888 0.7674
vt 0.5964 0.7748
vt 0.5936 0.7772
vt 0.5803 0.7607
vt 0.5832 0.7591
vt 0.7028 0.4295
vt 0.6984 0.4174
vt 0.6058 0.5427
vt 0.6090 0.5431
vt 0.6079 0.5311
vt 0.6108 0.5317
vt 0.6029 0.5417
vt 0.6053 0.5301
vt 0.6120 0.5430
vt 0.6144 0.5424
vt 0.5437 0.2970
vt 0.5412 0.3079
vt 0.5387 0.3085
vt 0.5410 0.2974
vt 0.6120 0.5430
vt 0.6136 0.5315
vt 0.5374 0.2970
vt 0.5336 0.2959
vt 0.5353 0.3085
vt 0.5317 0.3079
vt 0.5461 0.5442
vt 0.5432 0.5424
vt 0.5419 0.5555
vt 0.5392 0.5541
vt 0.5303 0.2943
vt 0.5286 0.3069
vt 0.6287 0.7251
vt 0.6270 0.7378
vt 0.5401 0.5414
vt 0.5362 0.5534
vt 0.6842 0.4060
vt 0.6868 0.4063
vt 0.6887 0.4202
vt 0.6861 0.4201
vt 0.6853 0.3914
vt 0.6876 0.3918
vt 0.5288 0.5669
vt 0.5310 0.5662
vt 0.5304 0.5805
vt 0.5286 0.5810
vt 0.6197 0.7491
vt 0.6226 0.7494
vt 0.6901 0.4062
vt 0.6937 0.4057
vt 0.6905 0.3920
vt 0.6936 0.3920
vt 0.5760 0.7504
vt 0.5789 0.7491
vt 0.5734 0.7391
vt 0.5760 0.7382
vt 0.6967 0.4049
vt 0.6963 0.3917
vt 0.6101 0.5214
vt 0.6129 0.5219
vt 0.6129 0.5122
vt 0.6153 0.5128
vt 0.5817 0.7485
vt 0.5785 0.7379
vt 0.5860 0.7583
vt 0.5413 0.3194
vt 0.5388 0.3202
vt 0.5427 0.3312
vt 0.5406 0.3320
vt 0.6157 0.5217
vt 0.6176 0.5125
vt 0.5355 0.3205
vt 0.5319 0.3204
vt 0.5378 0.3326
vt 0.5346 0.3329
vt 0.5395 0.5676
vt 0.5367 0.5666
vt 0.5378 0.5811
vt 0.5353 0.5805
vt 0.5288 0.3198
vt 0.5319 0.3328
vt 0.5337 0.5661
vt 0.5310 0.5662
vt 0.5334 0.5534
vt 0.5362 0.5534
vt 0.5328 0.5803
vt 0.6886 0.3766
vt 0.6904 0.3771
vt 0.6937 0.3616
vt 0.6952 0.3621
vt 0.5295 0.5958
vt 0.5310 0.5954
vt 0.5327 0.6111
vt 0.5315 0.6113
vt 0.6929 0.3775
vt 0.6955 0.3778
vt 0.6971 0.3626
vt 0.6993 0.3631
vt 0.5720 0.7264
vt 0.5743 0.7259
vt 0.5717 0.7124
vt 0.5736 0.7121
vt 0.6978 0.3778
vt 0.7012 0.3634
vt 0.5764 0.7257
vt 0.5781 0.7259
vt 0.5806 0.7380
vt 0.5785 0.7379
vt 0.5753 0.7121
vt 0.5767 0.7122
vt 0.5461 0.3436
vt 0.5443 0.3444
vt 0.5514 0.3566
vt 0.5500 0.3573
vt 0.5472 0.3428
vt 0.5523 0.3559
vt 0.5441 0.3303
vt 0.5420 0.3451
vt 0.5394 0.3457
vt 0.5482 0.3581
vt 0.5461 0.3588
vt 0.5373 0.5956
vt 0.5352 0.5953
vt 0.5377 0.6109
vt 0.5360 0.6108
vt 0.5371 0.3459
vt 0.5443 0.3592
vt 0.5330 0.5952
vt 0.5343 0.6109
vt 0.7005 0.3465
vt 0.7016 0.3469
vt 0.7083 0.3307
vt 0.7092 0.3311
vt 0.5343 0.6276
vt 0.5352 0.6274
vt 0.5381 0.6446
vt 0.5373 0.6447
vt 0.7031 0.3474
vt 0.7048 0.3479
vt 0.7105 0.3317
vt 0.7121 0.3324
vt 0.5724 0.6971
vt 0.5739 0.6970
vt 0.5738 0.6806
vt 0.5751 0.6806
vt 0.7063 0.3483
vt 0.7135 0.3330
vt 0.5752 0.6970
vt 0.5762 0.6972
vt 0.5762 0.6807
vt 0.5771 0.6808
vt 0.5585 0.3702
vt 0.5575 0.3708
vt 0.5678 0.3841
vt 0.5670 0.3847
vt 0.5592 0.3697
vt 0.5683 0.3836
vt 0.5561 0.3715
vt 0.5545 0.3722
vt 0.5658 0.3854
vt 0.5643 0.3863
vt 0.5390 0.6271
vt 0.5377 0.6271
vt 0.5414 0.6442
vt 0.5401 0.6443
vt 0.5531 0.3727
vt 0.5631 0.3868
vt 0.5364 0.6272
vt 0.5391 0.6445
vt 0.7176 0.3145
vt 0.7188 0.3151
vt 0.7278 0.2979
vt 0.7290 0.2986
vt 0.5402 0.6630
vt 0.5413 0.6628
vt 0.5449 0.6817
vt 0.5438 0.6818
vt 0.7201 0.3158
vt 0.7215 0.3165
vt 0.7304 0.2994
vt 0.7318 0.3001
vt 0.5748 0.6624
vt 0.5763 0.6625
vt 0.5771 0.6436
vt 0.5786 0.6438
vt 0.7227 0.3170
vt 0.7329 0.3007
vt 0.5778 0.6627
vt 0.5791 0.6628
vt 0.5802 0.6439
vt 0.5815 0.6441
vt 0.5789 0.3988
vt 0.5778 0.3996
vt 0.5914 0.4135
vt 0.5903 0.4144
vt 0.5797 0.3981
vt 0.5921 0.4128
vt 0.5765 0.4005
vt 0.5753 0.4013
vt 0.5890 0.4153
vt 0.5877 0.4162
vt 0.5455 0.6621
vt 0.5441 0.6624
vt 0.5492 0.6809
vt 0.5479 0.6812
vt 0.5742 0.4018
vt 0.5867 0.4168
vt 0.5427 0.6626
vt 0.5464 0.6814
vt 0.7394 0.2810
vt 0.7405 0.2817
vt 0.7518 0.2636
vt 0.7529 0.2642
vt 0.5481 0.7013
vt 0.5491 0.7013
vt 0.5534 0.7217
vt 0.5524 0.7217
vt 0.7417 0.2824
vt 0.7430 0.2832
vt 0.7541 0.2650
vt 0.7552 0.2657
vt 0.5800 0.6239
vt 0.5814 0.6240
vt 0.5831 0.6032
vt 0.5844 0.6033
vt 0.7440 0.2837
vt 0.7562 0.2662
vt 0.5828 0.6242
vt 0.5841 0.6244
vt 0.5857 0.6035
vt 0.5869 0.6036
vt 0.6048 0.4288
vt 0.6038 0.4296
vt 0.6194 0.4444
vt 0.6185 0.4452
vt 0.6055 0.4281
vt 0.6200 0.4438
vt 0.6027 0.4305
vt 0.6015 0.4313
vt 0.6174 0.4461
vt 0.6163 0.4469
vt 0.5531 0.7005
vt 0.5518 0.7008
vt 0.5572 0.7209
vt 0.5560 0.7213
vt 0.6006 0.4320
vt 0.6155 0.4475
vt 0.5504 0.7011
vt 0.5547 0.7215
vt 0.7656 0.2459
vt 0.7663 0.2464
vt 0.7799 0.2276
vt 0.7804 0.2280
vt 0.5574 0.7428
vt 0.5581 0.7428
vt 0.5628 0.7646
vt 0.5623 0.7646
vt 0.7672 0.2469
vt 0.7680 0.2475
vt 0.7810 0.2283
vt 0.7816 0.2287
vt 0.5865 0.5816
vt 0.5875 0.5817
vt 0.5899 0.5591
vt 0.5906 0.5592
vt 0.7688 0.2479
vt 0.7821 0.2290
vt 0.5885 0.5818
vt 0.5894 0.5819
vt 0.5913 0.5593
vt 0.5919 0.5594
vt 0.6345 0.4607
vt 0.6339 0.4614
vt 0.6505 0.4775
vt 0.6501 0.4779
vt 0.6350 0.4602
vt 0.6508 0.4771
vt 0.6331 0.4620
vt 0.6323 0.4626
vt 0.6495 0.4784
vt 0.6490 0.4788
vt 0.5609 0.7422
vt 0.5601 0.7424
vt 0.5647 0.7643
vt 0.5641 0.7644
vt 0.6317 0.4631
vt 0.6486 0.4791
vt 0.5591 0.7426
vt 0.5634 0.7645
vt 0.7948 0.2088
vt 0.7951 0.2090
vt 0.8100 0.1897
vt 0.8101 0.1897
vt 0.5669 0.7873
vt 0.5672 0.7873
vt 0.5715 0.8103
vt 0.5714 0.8103
vt 0.7954 0.2092
vt 0.7958 0.2094
vt 0.8102 0.1898
vt 0.8102 0.1898
vt 0.5931 0.5359
vt 0.5935 0.5359
vt 0.5962 0.5122
vt 0.5963 0.5122
vt 0.7960 0.2096
vt 0.8103 0.1899
vt 0.5939 0.5360
vt 0.5942 0.5360
vt 0.5963 0.5122
vt 0.5964 0.5122
vt 0.6672 0.4946
vt 0.6669 0.4949
vt 0.6841 0.5120
vt 0.6841 0.5120
vt 0.6673 0.4944
vt 0.6842 0.5119
vt 0.6666 0.4951
vt 0.6663 0.4954
vt 0.6840 0.5121
vt 0.6839 0.5122
vt 0.5682 0.7871
vt 0.5679 0.7872
vt 0.5717 0.8103
vt 0.5716 0.8103
vt 0.6661 0.4955
vt 0.6839 0.5122
vt 0.5675 0.7872
vt 0.5715 0.8103
f 1/1 198/2 321/3 306/4
f 1/1 306/4 319/5 256/6
f 1/1 256/6 320/7 198/2
f 2/8 306/4 321/3 200/9
f 2/8 200/9 318/10 313/11
f 2/8 313/11 319/5 306/4
f 3/12 134/13 322/14 245/15
f 3/12 245/15 318/10 200/9
f 3/12 200/9 321/3 134/13
f 4/16 245/15 322/14 137/17
f 4/16 137/17 317/18 149/19
f 4/16 149/19 318/10 245/15
f 5/20 295/21 323/22 188/23
f 5/20 188/23 317/18 137/17
f 5/20 137/17 322/14 295/21
f 6/24 188/23 323/22 249/25
f 6/24 249/25 324/26 240/27
f 6/24 240/27 317/18 188/23
f 311/28 333/29 183/30 286/31
f 334/32 311/28 286/31 327/33
f 253/34 334/35 327/36 330/37
f 335/38 253/39 330/40 189/41
f 286/31 183/30 340/42 325/43
f 327/33 286/31 325/43 328/44
f 330/45 327/33 328/44 331/46
f 189/41 330/40 331/47 336/48
f 325/43 340/42 185/49 326/50
f 328/51 325/52 326/53 329/54
f 331/55 328/51 329/54 332/56
f 336/57 331/55 332/56 136/58
f 326/59 185/60 339/61 234/62
f 329/54 326/53 234/62 338/63
f 332/56 329/54 338/63 292/64
f 136/58 332/56 292/64 337/65
f 7/66 183/67 333/68 233/69
f 7/66 233/69 341/70 190/71
f 7/72 190/73 348/74 293/75
f 7/72 293/75 340/76 183/77
f 8/78 311/79 334/80 172/81
f 8/78 172/81 342/82 105/83
f 8/78 105/83 341/70 233/69
f 8/78 233/69 333/68 311/79
f 9/84 253/85 335/86 115/87
f 9/84 115/87 343/88 262/89
f 9/84 262/89 342/82 172/81
f 9/84 172/81 334/80 253/85
f 10/90 189/41 336/48 280/91
f 10/90 280/91 344/92 203/93
f 10/90 203/93 343/94 115/95
f 10/90 115/95 335/38 189/41
f 11/96 136/97 337/98 224/99
f 11/96 224/99 345/100 148/101
f 11/96 148/101 344/92 280/91
f 11/96 280/91 336/48 136/97
f 12/102 292/64 338/63 178/103
f 12/102 178/103 346/104 109/105
f 12/102 109/105 345/106 224/107
f 12/102 224/107 337/65 292/64
f 13/108 234/62 339/61 127/109
f 13/108 127/109 347/110 268/111
f 13/108 268/111 346/104 178/103
f 13/108 178/103 338/63 234/62
f 14/112 185/113 340/76 293/75
f 14/112 293/75 348/74 217/114
f 14/112 217/114 347/115 127/116
f 14/117 127/109 339/61 185/60
f 15/118 190/71 341/70 244/119
f 15/120 244/121 349/122 232/123
f 15/120 232/123 356/124 237/125
f 15/120 237/125 348/74 190/73
f 16/126 105/83 342/82 112/127
f 16/126 112/127 350/128 141/129
f 16/126 141/129 349/130 244/131
f 16/126 244/131 341/70 105/83
f 17/132 262/89 343/88 299/133
f 17/132 299/133 351/134 187/135
f 17/132 187/135 350/128 112/127
f 17/132 112/127 342/82 262/89
f 18/136 203/93 344/92 243/137
f 18/136 243/137 352/138 242/139
f 18/136 242/139 351/140 299/141
f 18/136 299/141 343/94 203/93
f 19/142 148/101 345/100 176/143
f 19/142 176/143 353/144 297/145
f 19/142 297/145 352/138 243/137
f 19/142 243/137 344/92 148/101
f 20/146 109/105 346/104 132/147
f 20/146 132/147 354/148 129/149
f 20/146 129/149 353/150 176/151
f 20/146 176/151 345/106 109/105
f 21/152 268/111 347/110 291/153
f 21/152 291/153 355/154 175/155
f 21/152 175/155 354/148 132/147
f 21/152 132/147 346/104 268/111
f 22/156 217/157 348/158 237/159
f 22/160 237/125 356/124 236/161
f 22/162 236/163 355/154 291/153
f 22/164 291/165 347/115 217/114
f 23/166 232/123 349/122 174/167
f 23/166 174/167 357/168 208/169
f 23/166 208/169 364/170 126/171
f 23/166 126/171 356/124 232/123
f 24/172 141/129 350/128 227/173
f 24/172 227/173 358/174 118/175
f 24/172 118/175 357/176 174/177
f 24/172 174/177 349/130 141/129
f 25/178 187/135 351/134 273/179
f 25/178 273/179 359/180 158/181
f 25/178 158/181 358/174 227/173
f 25/178 227/173 350/128 187/135
f 26/182 242/139 352/138 111/183
f 26/182 111/183 360/184 214/185
f 26/182 214/185 359/186 273/187
f 26/182 273/187 351/140 242/139
f 27/188 297/145 353/144 166/189
f 27/188 166/189 361/190 271/191
f 27/188 271/191 360/184 111/183
f 27/188 111/183 352/138 297/145
f 28/192 129/149 354/148 231/193
f 28/192 231/193 362/194 121/195
f 28/192 121/195 361/196 166/197
f 28/192 166/197 353/150 129/149
f 29/198 175/155 355/154 283/199
f 29/198 283/199 363/200 165/201
f 29/198 165/201 362/194 231/193
f 29/198 231/193 354/148 175/155
f 30/202 236/161 356/124 126/171
f 30/202 126/171 364/170 226/203
f 30/202 226/203 363/204 283/205
f 30/202 283/205 355/206 236/161
f 31/207 208/169 357/168 143/208
f 31/207 143/208 365/209 259/210
f 31/207 259/210 372/211 305/212
f 31/207 305/212 364/170 208/169
f 32/213 118/175 358/174 171/214
f 32/213 171/214 366/215 161/216
f 32/213 161/216 365/217 143/218
f 32/213 143/218 357/176 118/175
f 33/219 158/181 359/180 255/220
f 33/219 255/220 367/221 210/222
f 33/219 210/222 366/215 171/214
f 33/219 171/214 358/174 158/181
f 34/223 214/185 360/184 310/224
f 34/223 310/224 368/225 266/226
f 34/223 266/226 367/227 255/228
f 34/223 255/228 359/186 214/185
f 35/229 271/191 361/190 131/230
f 35/229 131/230 369/231 104/232
f 35/229 104/232 368/225 310/224
f 35/229 310/224 360/184 271/191
f 36/233 121/195 362/194 194/234
f 36/233 194/234 370/235 145/236
f 36/233 145/236 369/237 131/238
f 36/233 131/238 361/196 121/195
f 37/239 165/201 363/200 248/240
f 37/239 248/240 371/241 193/242
f 37/239 193/242 370/235 194/234
f 37/239 194/234 362/194 165/201
f 38/243 226/203 364/170 305/212
f 38/243 305/212 372/211 261/244
f 38/243 261/244 371/245 248/246
f 38/243 248/246 363/204 226/203
f 39/247 259/210 365/209 191/248
f 39/247 191/248 373/249 265/250
f 39/247 265/250 380/251 140/252
f 39/247 140/252 372/211 259/210
f 40/253 161/216 366/215 251/254
f 40/253 251/254 374/255 170/256
f 40/253 170/256 373/257 191/258
f 40/253 191/258 365/217 161/216
f 41/259 210/222 367/221 289/260
f 41/259 289/260 375/261 220/262
f 41/259 220/262 374/255 251/254
f 41/259 251/254 366/215 210/222
f 42/263 266/226 368/225 128/264
f 42/263 128/264 376/265 277/266
f 42/263 277/266 375/267 289/268
f 42/263 289/268 367/227 266/226
f 43/269 104/232 369/231 184/270
f 43/269 184/270 377/271 114/272
f 43/269 114/272 376/265 128/264
f 43/269 128/264 368/225 104/232
f 44/273 145/236 370/235 258/274
f 44/273 258/274 378/275 177/276
f 44/273 177/276 377/277 184/278
f 44/273 184/278 369/237 145/236
f 45/279 193/242 371/241 304/280
f 45/279 304/280 379/281 223/282
f 45/279 223/282 378/275 258/274
f 45/279 258/274 370/235 193/242
f 46/283 261/244 372/211 140/252
f 46/283 140/252 380/251 288/284
f 46/285 288/286 379/281 304/280
f 46/283 304/287 371/245 261/244
f 47/288 265/250 373/249 207/289
f 47/290 207/291 381/292 219/293
f 47/290 219/293 388/294 197/295
f 47/288 197/296 380/251 265/250
f 48/297 170/256 374/255 285/298
f 48/297 285/298 382/299 133/300
f 48/297 133/300 381/301 207/302
f 48/297 207/302 373/257 170/256
f 49/303 220/262 375/261 125/304
f 49/303 125/304 383/305 298/306
f 49/303 298/306 382/299 285/298
f 49/303 285/298 374/255 220/262
f 50/307 277/308 376/309 206/310
f 50/307 206/310 384/311 229/312
f 50/307 229/312 383/313 125/314
f 50/315 125/304 375/261 277/316
f 51/317 114/318 377/319 247/320
f 51/321 247/322 385/323 169/324
f 51/321 169/324 384/311 206/310
f 51/321 206/310 376/309 114/325
f 52/326 177/276 378/275 312/327
f 52/326 312/327 386/328 122/329
f 52/326 122/329 385/330 247/331
f 52/326 247/331 377/319 177/276
f 53/332 223/282 379/281 135/333
f 53/332 135/333 387/334 276/335
f 53/332 276/335 386/328 312/327
f 53/332 312/327 378/275 223/282
f 54/336 288/284 380/251 197/296
f 54/337 197/295 388/294 222/338
f 54/339 222/340 387/334 135/333
f 54/339 135/333 379/281 288/286
f 55/341 219/293 381/292 275/342
f 55/341 275/342 389/343 186/344
f 55/341 186/344 396/345 296/346
f 55/341 296/346 388/294 219/293
f 56/347 133/300 382/299 218/348
f 56/347 218/348 390/349 107/350
f 56/347 107/350 389/351 275/352
f 56/347 275/352 381/301 133/300
f 57/353 298/306 383/305 163/354
f 57/353 163/354 391/355 272/356
f 57/353 272/356 390/349 218/348
f 57/353 218/348 382/299 298/306
f 58/357 229/312 384/311 119/358
f 58/357 119/358 392/359 199/360
f 58/357 199/360 391/361 163/362
f 58/357 163/362 383/313 229/312
f 59/363 169/324 385/323 264/364
f 59/363 264/364 393/365 160/366
f 59/363 160/366 392/359 119/358
f 59/363 119/358 384/311 169/324
f 60/367 122/329 386/328 216/368
f 60/367 216/368 394/369 113/370
f 60/367 113/370 393/371 264/372
f 60/367 264/372 385/330 122/329
f 61/373 276/335 387/334 155/374
f 61/373 155/374 395/375 263/376
f 61/373 263/376 394/369 216/368
f 61/373 216/368 386/328 276/335
f 62/377 222/338 388/294 296/346
f 62/377 296/346 396/345 215/378
f 62/377 215/378 395/379 155/380
f 62/377 155/380 387/381 222/338
f 63/382 186/344 389/343 239/383
f 63/382 239/383 397/384 157/385
f 63/382 157/385 404/386 238/387
f 63/382 238/387 396/345 186/344
f 64/388 107/350 390/349 162/389
f 64/388 162/389 398/390 290/391
f 64/388 290/391 397/392 239/393
f 64/388 239/393 389/351 107/350
f 65/394 272/356 391/355 110/395
f 65/394 110/395 399/396 235/397
f 65/394 235/397 398/390 162/389
f 65/394 162/389 390/349 272/356
f 66/398 199/360 392/359 294/399
f 66/398 294/399 400/400 168/401
f 66/398 168/401 399/402 110/403
f 66/398 110/403 391/361 199/360
f 67/404 160/366 393/365 225/405
f 67/404 225/405 401/406 117/407
f 67/404 117/407 400/400 294/399
f 67/404 294/399 392/359 160/366
f 68/408 113/370 394/369 181/409
f 68/408 181/409 402/410 279/411
f 68/408 279/411 401/412 225/413
f 68/408 225/413 393/371 113/370
f 69/414 263/376 395/375 124/415
f 69/414 124/415 403/416 213/417
f 69/414 213/417 402/410 181/409
f 69/414 181/409 394/369 263/376
f 70/418 215/378 396/345 238/387
f 70/418 238/387 404/386 164/419
f 70/418 164/419 403/420 124/421
f 70/418 124/421 395/379 215/378
f 71/422 157/385 397/384 212/423
f 71/422 212/423 405/424 167/425
f 71/422 167/425 412/426 278/427
f 71/422 278/427 404/386 157/385
f 72/428 290/391 398/390 156/429
f 72/428 156/429 406/430 301/431
f 72/428 301/431 405/432 212/433
f 72/428 212/433 397/392 290/391
f 73/434 235/397 399/396 106/435
f 73/434 106/435 407/436 250/437
f 73/434 250/437 406/430 156/429
f 73/434 156/429 398/390 235/397
f 74/438 168/401 400/400 274/439
f 74/438 274/439 408/440 182/441
f 74/438 182/441 407/442 106/443
f 74/438 106/443 399/402 168/401
f 75/444 117/407 401/406 205/445
f 75/444 205/445 409/446 139/447
f 75/444 139/447 408/440 274/439
f 75/444 274/439 400/400 117/407
f 76/448 279/411 402/410 153/449
f 76/448 153/449 410/450 307/451
f 76/448 307/451 409/452 205/453
f 76/448 205/453 401/412 279/411
f 77/454 213/417 403/416 103/455
f 77/454 103/455 411/456 241/457
f 77/454 241/457 410/450 153/449
f 77/454 153/449 402/410 213/417
f 78/458 164/419 404/386 278/427
f 78/458 278/427 412/426 192/459
f 78/458 192/459 411/460 103/461
f 78/458 103/461 403/420 164/419
f 79/462 167/425 405/424 221/463
f 79/462 221/463 413/464 154/465
f 79/462 154/465 420/466 287/467
f 79/462 287/467 412/426 167/425
f 80/468 301/431 406/430 309/469
f 80/468 309/469 414/470 281/471
f 80/468 281/471 413/472 221/473
f 80/468 221/473 405/432 301/431
f 81/474 250/437 407/436 254/475
f 81/474 254/475 415/476 123/477
f 81/474 123/477 414/470 309/469
f 81/474 309/469 406/430 250/437
f 82/478 182/441 408/440 202/479
f 82/478 202/479 416/480 180/481
f 82/478 180/481 415/482 254/483
f 82/478 254/483 407/442 182/441
f 83/484 139/447 409/446 152/485
f 83/484 152/485 417/486 211/487
f 83/484 211/487 416/480 202/479
f 83/484 202/479 408/440 139/447
f 84/488 307/451 410/450 108/489
f 84/488 108/489 418/490 267/491
f 84/488 267/491 417/492 152/493
f 84/488 152/493 409/452 307/451
f 85/494 241/457 411/456 270/495
f 85/494 270/495 419/496 315/497
f 85/494 315/497 418/490 108/489
f 85/494 108/489 410/450 241/457
f 86/498 192/459 412/426 287/467
f 86/498 287/467 420/466 151/499
f 86/498 151/499 419/500 270/501
f 86/498 270/501 411/460 192/459
f 87/502 154/465 413/464 314/503
f 87/502 314/503 421/504 130/505
f 87/502 130/505 428/506 228/507
f 87/502 228/507 420/466 154/465
f 88/508 281/471 414/470 150/509
f 88/508 150/509 422/510 252/511
f 88/508 252/511 421/512 314/513
f 88/508 314/513 413/472 281/471
f 89/514 123/477 415/476 204/515
f 89/514 204/515 423/516 308/517
f 89/514 308/517 422/510 150/509
f 89/514 150/509 414/470 123/477
f 90/518 180/481 416/480 246/519
f 90/518 246/519 424/520 147/521
f 90/518 147/521 423/522 204/523
f 90/518 204/523 415/482 180/481
f 91/524 211/487 417/486 303/525
f 91/524 303/525 425/526 201/527
f 91/524 201/527 424/520 246/519
f 91/524 246/519 416/480 211/487
f 92/528 267/491 418/490 146/529
f 92/528 146/529 426/530 260/531
f 92/528 260/531 425/532 303/533
f 92/528 303/533 417/492 267/491
f 93/534 315/497 419/496 196/535
f 93/534 196/535 427/536 302/537
f 93/534 302/537 426/530 146/529
f 93/534 146/529 418/490 315/497
f 94/538 151/499 420/466 228/507
f 94/538 228/507 428/506 142/539
f 94/538 142/539 427/540 196/541
f 94/538 196/541 419/500 151/499
f 95/542 130/505 421/504 282/543
f 95/542 282/543 429/544 179/545
f 95/542 179/545 436/546 257/547
f 95/542 257/547 428/506 130/505
f 96/548 252/511 422/510 316/549
f 96/548 316/549 430/550 300/551
f 96/548 300/551 429/552 282/553
f 96/548 282/553 421/512 252/511
f 97/554 308/517 423/516 144/555
f 97/554 144/555 431/556 138/557
f 97/554 138/557 430/550 316/549
f 97/554 316/549 422/510 308/517
f 98/558 147/521 424/520 209/559
f 98/558 209/559 432/560 195/561
f 98/558 195/561 431/562 144/563
f 98/558 144/563 423/522 147/521
f 99/564 201/527 425/526 269/565
f 99/564 269/565 433/566 230/567
f 99/564 230/567 432/560 209/559
f 99/564 209/559 424/520 201/527
f 100/568 260/531 426/530 116/569
f 100/568 116/569 434/570 284/571
f 100/568 284/571 433/572 269/573
f 100/568 269/573 425/532 260/531
f 101/574 302/537 427/536 159/575
f 101/574 159/575 435/576 120/577
f 101/574 120/577 434/570 116/569
f 101/574 116/569 426/530 302/537
f 102/578 142/539 428/506 257/547
f 102/578 257/547 436/546 173/579
f 102/578 173/579 435/580 159/581
f 102/578 159/581 427/540 142/539
f 437/582 742/583 757/584 634/585
f 437/582 692/586 755/587 742/583
f 437/582 634/585 756/588 692/586
f 438/589 636/590 757/584 742/583
f 438/589 749/591 754/592 636/590
f 438/589 742/583 755/587 749/591
f 439/593 681/594 758/595 570/596
f 439/593 636/590 754/592 681/594
f 439/593 570/596 757/584 636/590
f 440/597 573/598 758/595 681/594
f 440/597 585/599 753/600 573/598
f 440/597 681/594 754/592 585/599
f 441/601 624/602 759/603 731/604
f 441/601 573/598 753/600 624/602
f 441/601 731/604 758/595 573/598
f 442/605 685/606 759/603 624/602
f 442/605 676/607 760/608 685/606
f 442/605 624/602 753/600 676/607
f 747/609 722/610 619/611 769/612
f 770/613 763/614 722/610 747/609
f 689/615 766/616 763/614 770/613
f 771/617 625/618 766/619 689/620
f 722/610 761/621 776/622 619/611
f 763/614 764/623 761/621 722/610
f 766/624 767/625 764/626 763/627
f 625/618 772/628 767/629 766/619
f 761/630 762/631 621/632 776/633
f 764/634 765/635 762/636 761/637
f 767/625 768/638 765/635 764/626
f 772/639 572/640 768/638 767/625
f 762/641 670/642 775/643 621/644
f 765/635 774/645 670/642 762/636
f 768/638 728/646 774/645 765/635
f 572/640 773/647 728/646 768/638
f 443/648 669/649 769/650 619/651
f 443/652 626/653 777/654 669/655
f 443/656 729/657 784/658 626/659
f 443/656 619/660 776/661 729/657
f 444/662 608/663 770/664 747/665
f 444/666 541/667 778/668 608/669
f 444/666 669/655 777/654 541/667
f 444/662 747/665 769/650 669/649
f 445/670 551/671 771/672 689/673
f 445/674 698/675 779/676 551/677
f 445/674 608/669 778/668 698/675
f 445/670 689/673 770/664 608/663
f 446/678 716/679 772/628 625/618
f 446/678 639/680 780/681 716/679
f 446/678 551/682 779/683 639/680
f 446/678 625/618 771/617 551/682
f 447/684 660/685 773/686 572/687
f 447/684 584/688 781/689 660/685
f 447/684 716/679 780/681 584/688
f 447/684 572/687 772/628 716/679
f 448/690 614/691 774/645 728/646
f 448/690 545/692 782/693 614/691
f 448/690 660/694 781/695 545/692
f 448/690 728/646 773/647 660/694
f 449/696 563/697 775/643 670/642
f 449/696 704/698 783/699 563/697
f 449/696 614/691 782/693 704/698
f 449/696 670/642 774/645 614/691
f 450/700 729/657 776/661 621/632
f 450/700 653/701 784/658 729/657
f 450/700 563/702 783/703 653/701
f 450/704 621/644 775/643 563/697
f 451/705 680/706 777/707 626/708
f 451/705 668/709 785/710 680/706
f 451/705 673/711 792/712 668/709
f 451/705 626/708 784/658 673/711
f 452/713 548/714 778/715 541/716
f 452/713 577/717 786/718 548/714
f 452/713 680/719 785/720 577/717
f 452/713 541/716 777/721 680/719
f 453/722 735/723 779/724 698/725
f 453/722 623/726 787/727 735/723
f 453/722 548/714 786/718 623/726
f 453/722 698/725 778/715 548/714
f 454/728 679/729 780/681 639/680
f 454/728 678/730 788/731 679/729
f 454/728 735/732 787/733 678/730
f 454/728 639/680 779/683 735/732
f 455/734 612/735 781/689 584/688
f 455/734 733/736 789/737 612/735
f 455/734 679/729 788/731 733/736
f 455/734 584/688 780/681 679/729
f 456/738 568/739 782/693 545/692
f 456/738 565/740 790/741 568/739
f 456/738 612/742 789/743 565/740
f 456/738 545/692 781/695 612/742
f 457/744 727/745 783/699 704/698
f 457/744 611/746 791/747 727/745
f 457/744 568/739 790/741 611/746
f 457/744 704/698 782/693 568/739
f 458/748 673/749 784/750 653/751
f 458/752 672/753 792/712 673/711
f 458/752 727/754 791/755 672/753
f 458/752 653/701 783/703 727/754
f 459/756 610/757 785/710 668/709
f 459/756 644/758 793/759 610/757
f 459/756 562/760 800/761 644/758
f 459/756 668/709 792/712 562/760
f 460/762 663/763 786/718 577/717
f 460/762 554/764 794/765 663/763
f 460/762 610/766 793/767 554/764
f 460/762 577/717 785/720 610/766
f 461/768 709/769 787/727 623/726
f 461/768 594/770 795/771 709/769
f 461/768 663/763 794/765 594/770
f 461/768 623/726 786/718 663/763
f 462/772 547/773 788/731 678/730
f 462/772 650/774 796/775 547/773
f 462/772 709/776 795/777 650/774
f 462/772 678/730 787/733 709/776
f 463/778 602/779 789/737 733/736
f 463/778 707/780 797/781 602/779
f 463/778 547/773 796/775 707/780
f 463/778 733/736 788/731 547/773
f 464/782 667/783 790/741 565/740
f 464/782 557/784 798/785 667/783
f 464/782 602/786 797/787 557/784
f 464/782 565/740 789/743 602/786
f 465/788 719/789 791/747 611/746
f 465/788 601/790 799/791 719/789
f 465/788 667/783 798/785 601/790
f 465/788 611/746 790/741 667/783
f 466/792 562/760 792/712 672/753
f 466/792 662/793 800/761 562/760
f 466/792 719/794 799/795 662/793
f 466/792 672/753 791/755 719/794
f 467/796 579/797 793/759 644/758
f 467/796 695/798 801/799 579/797
f 467/796 741/800 808/801 695/798
f 467/796 644/758 800/761 741/800
f 468/802 607/803 794/765 554/764
f 468/802 597/804 802/805 607/803
f 468/802 579/806 801/807 597/804
f 468/802 554/764 793/767 579/806
f 469/808 691/809 795/771 594/770
f 469/808 646/810 803/811 691/809
f 469/808 607/803 802/805 646/810
f 469/808 594/770 794/765 607/803
f 470/812 746/813 796/775 650/774
f 470/812 702/814 804/815 746/813
f 470/812 691/816 803/817 702/814
f 470/812 650/774 795/777 691/816
f 471/818 567/819 797/781 707/780
f 471/818 540/820 805/821 567/819
f 471/818 746/813 804/815 540/820
f 471/818 707/780 796/775 746/813
f 472/822 630/823 798/785 557/784
f 472/822 581/824 806/825 630/823
f 472/822 567/826 805/827 581/824
f 472/822 557/784 797/787 567/826
f 473/828 684/829 799/830 601/831
f 473/828 629/832 807/833 684/829
f 473/834 630/823 806/825 629/835
f 473/834 601/790 798/785 630/823
f 474/836 741/800 800/761 662/793
f 474/836 697/837 808/801 741/800
f 474/838 684/829 807/833 697/839
f 474/836 662/793 799/795 684/840
f 475/841 627/842 801/799 695/798
f 475/841 701/843 809/844 627/842
f 475/841 576/845 816/846 701/843
f 475/841 695/798 808/801 576/845
f 476/847 687/848 802/805 597/804
f 476/847 606/849 810/850 687/848
f 476/847 627/851 809/852 606/849
f 476/847 597/804 801/807 627/851
f 477/853 725/854 803/855 646/856
f 477/853 656/857 811/858 725/854
f 477/859 687/848 810/850 656/860
f 477/859 646/810 802/805 687/848
f 478/861 564/862 804/815 702/814
f 478/861 713/863 812/864 564/862
f 478/861 725/865 811/866 713/863
f 478/861 702/814 803/817 725/865
f 479/867 620/868 805/821 540/820
f 479/869 550/870 813/871 620/872
f 479/873 564/862 812/864 550/874
f 479/873 540/820 804/815 564/862
f 480/875 694/876 806/825 581/824
f 480/875 613/877 814/878 694/876
f 480/875 620/872 813/871 613/877
f 480/875 581/824 805/827 620/872
f 481/879 740/880 807/833 629/832
f 481/879 659/881 815/882 740/880
f 481/883 694/876 814/878 659/884
f 481/883 629/835 806/825 694/876
f 482/885 576/845 808/801 697/837
f 482/885 724/886 816/846 576/845
f 482/887 740/880 815/882 724/888
f 482/887 697/839 807/833 740/880
f 483/889 643/890 809/891 701/892
f 483/889 655/893 817/894 643/890
f 483/895 633/896 824/897 655/898
f 483/899 701/843 816/846 633/900
f 484/901 721/902 810/850 606/849
f 484/901 569/903 818/904 721/902
f 484/901 643/890 817/894 569/903
f 484/901 606/849 809/852 643/890
f 485/905 561/906 811/858 656/857
f 485/905 734/907 819/908 561/906
f 485/909 721/902 818/904 734/910
f 485/909 656/860 810/850 721/902
f 486/911 642/912 812/864 713/863
f 486/911 665/913 820/914 642/912
f 486/915 561/906 819/908 665/916
f 486/915 713/917 811/858 561/906
f 487/918 683/919 813/871 550/870
f 487/918 605/920 821/921 683/919
f 487/922 642/912 820/914 605/923
f 487/922 550/874 812/864 642/912
f 488/924 748/925 814/878 613/877
f 488/924 558/926 822/927 748/925
f 488/924 683/919 821/921 558/926
f 488/924 613/877 813/871 683/919
f 489/928 571/929 815/882 659/881
f 489/928 712/930 823/931 571/929
f 489/932 748/925 822/927 712/933
f 489/932 659/884 814/878 748/925
f 490/934 633/935 816/936 724/937
f 490/934 658/938 824/897 633/935
f 490/934 571/929 823/931 658/938
f 490/934 724/937 815/882 571/929
f 491/939 711/940 817/894 655/893
f 491/939 622/941 825/942 711/940
f 491/943 732/944 832/945 622/946
f 491/943 655/898 824/897 732/944
f 492/947 654/948 818/904 569/903
f 492/947 543/949 826/950 654/948
f 492/947 711/940 825/942 543/949
f 492/947 569/903 817/894 711/940
f 493/951 599/952 819/908 734/907
f 493/951 708/953 827/954 599/952
f 493/955 654/948 826/950 708/956
f 493/955 734/910 818/904 654/948
f 494/957 555/958 820/959 665/960
f 494/957 635/961 828/962 555/958
f 494/957 599/952 827/954 635/961
f 494/957 665/960 819/908 599/952
f 495/963 700/964 821/921 605/920
f 495/963 596/965 829/966 700/964
f 495/963 555/967 828/968 596/965
f 495/963 605/920 820/969 555/967
f 496/970 652/971 822/927 558/926
f 496/970 549/972 830/973 652/971
f 496/970 700/964 829/966 549/972
f 496/970 558/926 821/921 700/964
f 497/974 591/975 823/931 712/930
f 497/974 699/976 831/977 591/975
f 497/978 652/971 830/973 699/979
f 497/978 712/933 822/927 652/971
f 498/980 732/944 824/897 658/938
f 498/980 651/981 832/945 732/944
f 498/980 591/975 831/977 651/981
f 498/980 658/938 823/931 591/975
f 499/982 675/983 825/942 622/941
f 499/982 593/984 833/985 675/983
f 499/986 674/987 840/988 593/989
f 499/986 622/946 832/945 674/987
f 500/990 598/991 826/950 543/949
f 500/990 726/992 834/993 598/991
f 500/990 675/983 833/985 726/992
f 500/990 543/949 825/942 675/983
f 501/994 546/995 827/954 708/953
f 501/994 671/996 835/997 546/995
f 501/998 598/991 834/993 671/999
f 501/998 708/956 826/950 598/991
f 502/1000 730/1001 828/962 635/961
f 502/1000 604/1002 836/1003 730/1001
f 502/1000 546/995 835/997 604/1002
f 502/1000 635/961 827/954 546/995
f 503/1004 661/1005 829/966 596/965
f 503/1004 553/1006 837/1007 661/1005
f 503/1004 730/1008 836/1009 553/1006
f 503/1004 596/965 828/968 730/1008
f 504/1010 617/1011 830/973 549/972
f 504/1010 715/1012 838/1013 617/1011
f 504/1010 661/1005 837/1007 715/1012
f 504/1010 549/972 829/966 661/1005
f 505/1014 560/1015 831/977 699/976
f 505/1014 649/1016 839/1017 560/1015
f 505/1018 617/1011 838/1013 649/1019
f 505/1018 699/979 830/973 617/1011
f 506/1020 674/987 832/945 651/981
f 506/1020 600/1021 840/988 674/987
f 506/1020 560/1015 839/1017 600/1021
f 506/1020 651/981 831/977 560/1015
f 507/1022 648/1023 833/985 593/984
f 507/1022 603/1024 841/1025 648/1023
f 507/1026 714/1027 848/1028 603/1029
f 507/1026 593/989 840/988 714/1027
f 508/1030 592/1031 834/993 726/992
f 508/1030 737/1032 842/1033 592/1031
f 508/1030 648/1023 841/1025 737/1032
f 508/1030 726/992 833/985 648/1023
f 509/1034 542/1035 835/997 671/996
f 509/1034 686/1036 843/1037 542/1035
f 509/1038 592/1031 842/1033 686/1039
f 509/1038 671/999 834/993 592/1031
f 510/1040 710/1041 836/1003 604/1002
f 510/1040 618/1042 844/1043 710/1041
f 510/1040 542/1035 843/1037 618/1042
f 510/1040 604/1002 835/997 542/1035
f 511/1044 641/1045 837/1007 553/1006
f 511/1044 575/1046 845/1047 641/1045
f 511/1044 710/1048 844/1049 575/1046
f 511/1044 553/1006 836/1009 710/1048
f 512/1050 589/1051 838/1013 715/1012
f 512/1050 743/1052 846/1053 589/1051
f 512/1050 641/1045 845/1047 743/1052
f 512/1050 715/1012 837/1007 641/1045
f 513/1054 539/1055 839/1017 649/1016
f 513/1054 677/1056 847/1057 539/1055
f 513/1058 589/1051 846/1053 677/1059
f 513/1058 649/1019 838/1013 589/1051
f 514/1060 714/1027 840/988 600/1021
f 514/1060 628/1061 848/1028 714/1027
f 514/1060 539/1055 847/1057 628/1061
f 514/1060 600/1021 839/1017 539/1055
f 515/1062 657/1063 841/1025 603/1024
f 515/1062 590/1064 849/1065 657/1063
f 515/1066 723/1067 856/1068 590/1069
f 515/1066 603/1029 848/1028 723/1067
f 516/1070 745/1071 842/1033 737/1032
f 516/1070 717/1072 850/1073 745/1071
f 516/1070 657/1063 849/1065 717/1072
f 516/1070 737/1032 841/1025 657/1063
f 517/1074 690/1075 843/1037 686/1036
f 517/1074 559/1076 851/1077 690/1075
f 517/1078 745/1071 850/1073 559/1079
f 517/1078 686/1039 842/1033 745/1071
f 518/1080 638/1081 844/1043 618/1042
f 518/1080 616/1082 852/1083 638/1081
f 518/1080 690/1075 851/1077 616/1082
f 518/1080 618/1042 843/1037 690/1075
f 519/1084 588/1085 845/1047 575/1046
f 519/1084 647/1086 853/1087 588/1085
f 519/1084 638/1088 852/1089 647/1086
f 519/1084 575/1046 844/1049 638/1088
f 520/1090 544/1091 846/1053 743/1052
f 520/1090 703/1092 854/1093 544/1091
f 520/1090 588/1085 853/1087 703/1092
f 520/1090 743/1052 845/1047 588/1085
f 521/1094 706/1095 847/1057 677/1056
f 521/1094 751/1096 855/1097 706/1095
f 521/1098 544/1091 854/1093 751/1099
f 521/1098 677/1059 846/1053 544/1091
f 522/1100 723/1067 848/1028 628/1061
f 522/1100 587/1101 856/1068 723/1067
f 522/1100 706/1095 855/1097 587/1101
f 522/1100 628/1061 847/1057 706/1095
f 523/1102 750/1103 849/1065 590/1064
f 523/1102 566/1104 857/1105 750/1103
f 523/1106 664/1107 864/1108 566/1109
f 523/1106 590/1069 856/1068 664/1107
f 524/1110 586/1111 850/1073 717/1072
f 524/1110 688/1112 858/1113 586/1111
f 524/1110 750/1103 857/1105 688/1112
f 524/1110 717/1072 849/1065 750/1103
f 525/1114 640/1115 851/1077 559/1076
f 525/1114 744/1116 859/1117 640/1115
f 525/1118 586/1111 858/1113 744/1119
f 525/1118 559/1079 850/1073 586/1111
f 526/1120 682/1121 852/1083 616/1082
f 526/1120 583/1122 860/1123 682/1121
f 526/1120 640/1115 859/1117 583/1122
f 526/1120 616/1082 851/1077 640/1115
f 527/1124 739/1125 853/1087 647/1086
f 527/1124 637/1126 861/1127 739/1125
f 527/1124 682/1128 860/1129 637/1126
f 527/1124 647/1086 852/1089 682/1128
f 528/1130 582/1131 854/1093 703/1092
f 528/1130 696/1132 862/1133 582/1131
f 528/1130 739/1125 861/1127 696/1132
f 528/1130 703/1092 853/1087 739/1125
f 529/1134 632/1135 855/1097 751/1096
f 529/1134 738/1136 863/1137 632/1135
f 529/1138 582/1131 862/1133 738/1139
f 529/1138 751/1099 854/1093 582/1131
f 530/1140 664/1107 856/1068 587/1101
f 530/1140 578/1141 864/1108 664/1107
f 530/1140 632/1135 863/1137 578/1141
f 530/1140 587/1101 855/1097 632/1135
f 531/1142 718/1143 857/1105 566/1104
f 531/1142 615/1144 865/1145 718/1143
f 531/1146 693/1147 872/1148 615/1149
f 531/1146 566/1109 864/1108 693/1147
f 532/1150 752/1151 858/1113 688/1112
f 532/1150 736/1152 866/1153 752/1151
f 532/1150 718/1143 865/1145 736/1152
f 532/1150 688/1112 857/1105 718/1143
f 533/1154 580/1155 859/1117 744/1116
f 533/1154 574/1156 867/1157 580/1155
f 533/1158 752/1151 866/1153 574/1159
f 533/1158 744/1119 858/1113 752/1151
f 534/1160 645/1161 860/1123 583/1122
f 534/1160 631/1162 868/1163 645/1161
f 534/1160 580/1155 867/1157 631/1162
f 534/1160 583/1122 859/1117 580/1155
f 535/1164 705/1165 861/1127 637/1126
f 535/1164 666/1166 869/1167 705/1165
f 535/1164 645/1168 868/1169 666/1166
f 535/1164 637/1126 860/1129 645/1168
f 536/1170 552/1171 862/1133 696/1132
f 536/1170 720/1172 870/1173 552/1171
f 536/1170 705/1165 869/1167 720/1172
f 536/1170 696/1132 861/1127 705/1165
f 537/1174 595/1175 863/1137 738/1136
f 537/1174 556/1176 871/1177 595/1175
f 537/1178 552/1171 870/1173 556/1179
f 537/1178 738/1139 862/1133 552/1171
f 538/1180 693/1147 864/1108 578/1141
f 538/1180 609/1181 872/1148 693/1147
f 538/1180 595/1175 871/1177 609/1181
f 538/1180 578/1141 863/1137 595/1175