# Exported from MakeClothes (TM)
# author Elvaerwyn
# license CC-by
# homepage http://www.makehuman.org/
v -0.4455 3.9892 1.3863
v -0.5331 3.7679 1.4911
v -0.3783 3.6872 1.4892
v -0.3105 3.9212 1.4005
v -1.0596 4.3342 1.0886
v -1.1454 4.1460 1.1422
v -0.9999 4.0645 1.2833
v -0.8915 4.2648 1.1949
v -0.7408 4.1752 1.2893
v -0.8559 3.9730 1.4164
v -0.6989 3.8669 1.4862
v -0.5924 4.0767 1.3563
v -0.2385 3.6254 1.4884
v -0.1918 3.8777 1.4137
v -1.2605 3.9417 1.1215
v -1.1435 3.8600 1.3165
v -1.0123 3.7716 1.5241
v -0.8511 3.6586 1.6249
v -0.4930 3.4504 1.5622
v -0.3212 3.3255 1.5240
v -0.6686 3.5517 1.5870
v -1.2642 3.6386 1.2406
v -1.1501 3.5661 1.4754
v -1.0042 3.4564 1.5858
v -0.8170 3.3485 1.5544
v -0.6486 3.2451 1.5337
v -1.2928 3.7573 1.1224
v -0.5073 3.1457 1.5018
v -1.2682 3.4453 1.2064
v -1.1989 3.3700 1.3232
v -1.0855 3.2626 1.3909
v -0.9306 3.1584 1.4018
v -0.7786 3.0469 1.4093
v -0.6297 3.0309 1.4511
v -1.0898 3.0859 1.2341
v -0.9846 3.0119 1.2861
v -0.8891 2.9633 1.3218
v -1.3392 3.8605 0.9659
v -1.3316 3.7038 0.9783
v -1.1843 3.1796 1.1604
v -1.3213 3.5238 1.0273
v -1.2760 3.2977 1.0618
v -0.8536 4.4840 1.0564
v -1.0247 4.5426 0.9709
v -0.8605 4.7144 0.8864
v -1.0256 4.7654 0.8137
v -0.8773 4.9286 0.6976
v -1.0401 4.9756 0.6262
v -1.3207 3.4364 0.8410
v -1.2821 3.2811 0.9443
v -1.3692 3.8183 0.8515
v -1.3669 3.6819 0.7884
v -1.3976 3.6258 0.5743
v -1.3518 3.4671 0.6114
v -0.1323 3.3440 1.5262
v -0.1070 3.6125 1.4903
v -0.0868 3.8614 1.4189
v 0.0059 3.3476 1.5274
v 0.0059 3.6100 1.4913
v 0.0059 3.8572 1.4200
v -1.4276 3.6122 0.3674
v -1.3805 3.4866 0.3954
v -1.4224 3.6114 0.1512
v -1.3765 3.4942 0.1757
v -1.3754 3.6280 -0.0636
v -1.3286 3.5006 -0.0413
v -1.2792 3.6705 -0.2532
v -1.2257 3.5135 -0.2369
v -1.1062 3.7191 -0.4017
v -1.0182 3.5268 -0.3897
v -0.9163 3.7826 -0.5352
v -0.8123 3.5388 -0.4981
v -0.6187 3.7367 -0.5816
v -0.5714 3.5275 -0.5278
v -0.3791 3.7158 -0.5554
v -0.3576 3.5154 -0.5012
v -0.1706 3.7086 -0.5243
v -0.1633 3.5094 -0.4760
v 0.0059 3.7078 -0.5176
v 0.0059 3.5087 -0.4700
v -0.9005 5.0999 0.4758
v -1.0598 5.1445 0.3945
v -0.9724 5.2467 0.1573
v -1.0883 5.2528 0.1266
v -0.9813 5.2989 -0.0927
v -1.0938 5.2865 -0.1028
v -0.9368 5.2887 -0.3021
v -1.0700 5.2565 -0.2974
v -0.8083 5.1539 -0.4869
v -1.0180 5.1451 -0.4597
v -0.7583 4.9176 -0.6072
v -0.9754 4.9120 -0.5719
v -0.7217 4.6500 -0.6793
v -0.9364 4.6552 -0.6398
v -0.6823 4.3762 -0.6804
v -0.9012 4.3926 -0.6519
v -0.6479 4.1307 -0.6623
v -0.8792 4.1602 -0.6344
v -0.6295 3.9269 -0.6269
v -0.8829 3.9711 -0.5976
v -0.4121 4.2264 1.2641
v -0.5528 4.3075 1.2185
v -0.0785 4.0815 1.3454
v -0.1740 4.1041 1.3321
v -0.7003 4.3977 1.1441
v -0.2847 4.1544 1.2984
v 0.0059 4.0756 1.3476
v -0.2849 4.3746 1.1879
v -0.4130 4.4638 1.1266
v -0.0782 4.2704 1.2494
v -0.1735 4.3039 1.2332
v 0.0059 4.2625 1.2520
v -0.5559 4.5478 1.0562
v -0.7068 4.6318 0.9742
v -0.4259 4.6650 0.9946
v -0.5710 4.7542 0.8997
v -0.7228 4.8399 0.8042
v -0.2950 4.5684 1.0697
v -0.0813 4.4483 1.1434
v -0.1800 4.4886 1.1202
v 0.0059 4.4383 1.1489
v -1.4321 3.8041 0.6729
v -1.4474 3.7071 0.5135
v -1.4227 3.9207 0.7791
v -1.2550 4.4129 0.9639
v -1.3043 4.2555 0.9956
v -1.2652 5.2046 -0.2670
v -1.2780 5.2479 -0.0933
v -1.3646 4.1122 0.9660
v -1.4040 4.0084 0.8781
v -1.4699 3.6641 0.3306
v -1.4603 3.6494 0.1284
v -1.1310 4.2276 -0.5616
v -1.1425 4.4374 -0.5842
v -1.2736 5.2324 0.1169
v -1.2561 5.1472 0.3592
v -1.1685 4.6751 -0.5747
v -1.2023 4.9026 -0.5187
v -1.3433 3.7724 -0.2451
v -1.2592 3.8620 -0.3630
v -1.2273 4.7990 0.7459
v -1.2304 4.5968 0.8766
v -1.2365 5.0875 -0.4135
v -1.4111 3.6819 -0.0734
v -1.1429 4.0675 -0.5155
v -1.1811 3.9455 -0.4535
v -1.2388 4.9931 0.5761
v -0.1809 3.9124 -0.5703
v 0.0059 3.9131 -0.5620
v -0.3961 3.9140 -0.6063
v -0.1958 4.1321 -0.6152
v 0.0059 4.1337 -0.6052
v -0.4202 4.1289 -0.6529
v -0.2170 4.3855 -0.6503
v 0.0059 4.3873 -0.6427
v -0.4547 4.3805 -0.6799
v -0.2425 4.6548 -0.6582
v 0.0059 4.6552 -0.6532
v -0.4921 4.6528 -0.6862
v -0.2655 4.8953 -0.6179
v 0.0059 4.8914 -0.6177
v -0.5228 4.9051 -0.6282
v -0.2774 5.0374 -0.5780
v 0.0059 5.0281 -0.5829
v -0.5433 5.0670 -0.5565
v -1.2345 3.0940 0.9234
v -1.1973 3.0521 1.0087
v -0.9518 3.2816 -0.3279
v -1.1554 3.2807 -0.1828
v 0.0059 3.2678 -0.4058
v -0.1565 3.2679 -0.4089
v -0.5921 2.9165 1.4338
v -0.4427 2.9832 1.4826
v -0.2789 3.0619 1.5077
v -0.1258 3.0911 1.5169
v -1.2596 3.2774 0.0068
v -1.3114 3.2742 0.2170
v -0.3363 3.2707 -0.4215
v -0.5263 3.2762 -0.4407
v -1.3212 3.2642 0.4289
v -1.2936 3.2322 0.6306
v -0.8585 2.8662 1.2969
v -0.7376 2.8892 1.3714
v -0.7418 3.2802 -0.4188
v -0.9608 2.8861 1.2312
v -1.0546 2.9291 1.1603
v -1.2660 3.1742 0.8113
v -1.1362 2.9879 1.0850
v 0.0059 3.0972 1.5193
v -0.7057 2.7605 1.3592
v -0.5633 2.7785 1.4227
v -1.0530 2.9997 -0.1132
v -1.1732 2.9968 0.0663
v -1.1826 2.8766 0.9129
v -1.1426 2.8482 0.9856
v -0.4128 2.8099 1.4658
v -0.8637 2.9999 -0.2440
v -1.2388 2.9575 0.6549
v -1.2148 2.9164 0.8116
v -0.9263 2.7646 1.2100
v -0.8257 2.7544 1.2852
v -0.6690 2.9964 -0.3171
v -0.2581 2.8434 1.4851
v -0.1178 2.8593 1.4928
v -1.0139 2.7864 1.1321
v -0.4878 2.9927 -0.3441
v 0.0059 2.8627 1.4949
v -1.0875 2.8167 1.0551
v -0.3186 2.9895 -0.3458
v -1.2516 2.9838 0.4682
v -0.1499 2.9883 -0.3415
v -1.2331 2.9932 0.2667
v 0.0059 2.9885 -0.3387
v -1.1917 2.6858 0.8082
v -1.1597 2.6713 0.9023
v -0.6966 2.6150 1.3700
v -0.5555 2.6231 1.4322
v -0.9937 2.7330 -0.0655
v -1.1312 2.7302 0.1059
v -1.1194 2.6591 0.9717
v -0.4053 2.6361 1.4704
v -0.8088 2.7339 -0.1902
v -1.2160 2.7048 0.6664
v -0.9136 2.6193 1.1964
v -0.8152 2.6137 1.2928
v -0.6299 2.7314 -0.2594
v -0.2529 2.6496 1.4718
v -0.1154 2.6565 1.4769
v -0.9975 2.6298 1.1175
v -0.4721 2.7281 -0.2908
v 0.0059 2.6579 1.4713
v -1.0666 2.6445 1.0402
v -0.3123 2.7259 -0.2993
v -1.2235 2.7204 0.4911
v -0.1478 2.7254 -0.2963
v -1.2020 2.7271 0.2982
v 0.0059 2.7255 -0.2936
v -1.2180 2.4596 0.6602
v -1.1947 2.4516 0.7922
v -0.9202 2.4176 1.1797
v -0.8210 2.4141 1.2746
v -0.6299 2.4773 -0.2324
v -0.8056 2.4789 -0.1633
v -0.2550 2.4322 1.4661
v -0.1166 2.4359 1.4707
v -1.0036 2.4236 1.1023
v -0.4742 2.4749 -0.2655
v 0.0059 2.4367 1.4648
v -1.0710 2.4320 1.0255
v -0.3140 2.4734 -0.2753
v -1.2246 2.4686 0.4940
v -1.1228 2.4403 0.9550
v -0.1491 2.4730 -0.2729
v -1.2026 2.4735 0.3084
v -0.7011 2.4145 1.3500
v 0.0059 2.4731 -0.2704
v -0.4081 2.4255 1.4653
v -1.1298 2.4760 0.1225
v -1.1629 2.4464 0.8837
v -0.5592 2.4188 1.4103
v -0.9895 2.4781 -0.0427
v -1.0944 2.1935 1.0107
v -1.0259 2.1883 1.0869
v -0.3195 2.2195 -0.2689
v -0.4834 2.2205 -0.2588
v -1.2474 2.2160 0.4872
v -1.2416 2.2102 0.6481
v -1.1468 2.1989 0.9387
v -0.1519 2.2192 -0.2667
v -1.2249 2.2195 0.3056
v -0.8380 2.1823 1.2370
v -0.7146 2.1825 1.3072
v 0.0059 2.2193 -0.2640
v -0.4157 2.1895 1.4213
v -0.2598 2.1938 1.4367
v -1.1511 2.2213 0.1234
v -1.2192 2.2058 0.7746
v -1.1873 2.2028 0.8656
v -0.5700 2.1852 1.3656
v -1.0087 2.2227 -0.0384
v -0.8224 2.2232 -0.1567
v -0.9403 2.1846 1.1628
v -0.6434 2.2222 -0.2254
v -0.1188 2.1963 1.4419
v 0.0059 2.1970 1.4428
v -1.2794 1.9659 0.2933
v -1.3027 1.9629 0.4753
v -0.8749 1.9378 1.2288
v -0.7454 1.9380 1.2982
v 0.0059 1.9668 -0.2780
v -0.1578 1.9664 -0.2811
v -0.4327 1.9434 1.3952
v -0.2699 1.9467 1.4117
v -1.2024 1.9673 0.1104
v -1.2726 1.9535 0.7610
v -1.2389 1.9505 0.8524
v -0.5942 1.9401 1.3570
v -1.0537 1.9684 -0.0519
v -1.1968 1.9475 0.9270
v -0.8590 1.9689 -0.1706
v -1.2965 1.9578 0.6358
v -0.9824 1.9392 1.1545
v -0.6716 1.9681 -0.2399
v -0.1231 1.9490 1.4170
v -1.0717 1.9414 1.0779
v -0.5036 1.9669 -0.2736
v 0.0059 1.9499 1.4179
v -1.1428 1.9442 1.0008
v -0.3322 1.9662 -0.2837
v -1.3509 1.6865 0.7439
v -1.3135 1.6836 0.8378
v -0.7931 1.6735 1.3030
v -0.6320 1.6753 1.3640
v -1.1219 1.7004 -0.0943
v -1.2804 1.6994 0.0736
v -1.2688 1.6810 0.9153
v -0.4599 1.6782 1.4035
v -0.9146 1.7007 -0.2172
v -1.3785 1.6907 0.6160
v -1.0454 1.6746 1.1540
v -0.9313 1.6734 1.2313
v -0.7148 1.7001 -0.2889
v -0.2864 1.6811 1.4209
v -0.1304 1.6832 1.4268
v -1.1392 1.6763 1.0739
v -0.5355 1.6990 -0.3238
v 0.0059 1.6841 1.4282
v -1.2128 1.6784 0.9927
v -0.3528 1.6984 -0.3341
v -1.3867 1.6954 0.4509
v -0.1674 1.6987 -0.3311
v -1.3623 1.6981 0.2629
v 0.0059 1.6992 -0.3276
v -0.9719 1.4169 -0.3141
v -1.1924 1.4166 -0.1830
v -1.4647 1.4084 0.5736
v -1.4345 1.4048 0.7092
v -1.1109 1.3953 1.1480
v -0.9896 1.3944 1.2306
v -0.7593 1.4163 -0.3906
v -0.3038 1.4008 1.4332
v -0.1383 1.4026 1.4401
v -1.2102 1.3966 1.0619
v -0.5685 1.4155 -0.4278
v 0.0059 1.4033 1.4420
v -1.2877 1.3981 0.9744
v -0.3743 1.4151 -0.4390
v -1.4740 1.4124 0.3981
v -1.3467 1.4002 0.8913
v -0.1777 1.4154 -0.4361
v -1.4482 1.4147 0.1978
v -0.8426 1.3945 1.3072
v 0.0059 1.4158 -0.4326
v -0.4881 1.3984 1.4144
v -1.3610 1.4158 -0.0040
v -1.3942 1.4023 0.8088
v -0.6712 1.3960 1.3722
v -1.1835 1.1058 1.1253
v -1.0545 1.1050 1.2146
v -0.8103 1.1186 -0.5447
v -1.0359 1.1189 -0.4617
v -0.3264 1.1089 1.4346
v -0.1495 1.1097 1.4417
v -1.2895 1.1073 1.0327
v -0.6075 1.1180 -0.5850
v 0.0059 1.1100 1.4436
v -1.3726 1.1094 0.9392
v -0.4011 1.1176 -0.5975
v -1.5688 1.1165 0.3112
v -1.5597 1.1147 0.5024
v -1.4359 1.1115 0.8499
v -0.1913 1.1174 -0.5951
v -1.5411 1.1176 0.0936
v -0.8984 1.1051 1.2977
v 0.0059 1.1175 -0.5918
v -0.5222 1.1075 1.4141
v -1.4484 1.1183 -0.1254
v -1.5286 1.1136 0.6511
v -1.4863 1.1128 0.7602
v -0.7166 1.1060 1.3682
v -1.2696 1.1188 -0.3195
v -1.5359 0.8294 0.7994
v -1.4678 0.8268 0.8944
v -0.2089 0.8288 -0.7809
v -0.4338 0.8286 -0.7826
v -1.6433 0.8286 -0.0317
v -1.6739 0.8283 0.2050
v -1.1279 0.8209 1.1872
v -0.9622 0.8209 1.2772
v 0.0055 0.8291 -0.7779
v -0.5634 0.8223 1.4038
v -0.3552 0.8233 1.4264
v -1.5442 0.8289 -0.2692
v -1.6337 0.8294 0.5795
v -1.5897 0.8303 0.7011
v -0.7697 0.8215 1.3536
v -1.3553 0.8292 -0.4795
v -1.1092 0.8293 -0.6336
v -1.6654 0.8283 0.4146
v -1.2652 0.8218 1.0910
v -0.8694 0.8291 -0.7244
v -0.1647 0.8242 1.4337
v -1.3784 0.8237 0.9927
v -0.6538 0.8288 -0.7683
v 0.0055 0.8247 1.4351
v -1.7499 0.5898 0.1382
v -1.7427 0.5901 0.3604
v -1.6100 0.5921 0.7737
v -1.5381 0.5894 0.8727
v -0.2252 0.5929 -0.9058
v -0.4601 0.5912 -0.9067
v -1.7162 0.5902 -0.1110
v -1.1820 0.5840 1.1764
v -1.0096 0.5840 1.2820
v 0.0014 0.5941 -0.9030
v -0.5957 0.5853 1.4155
v -0.3795 0.5868 1.4405
v -1.6117 0.5905 -0.3605
v -1.7114 0.5915 0.5371
v -1.6663 0.5928 0.6686
v -0.8099 0.5844 1.3621
v -1.4169 0.5907 -0.5809
v -1.1630 0.5908 -0.7446
v -1.3254 0.5846 1.0757
v -0.9109 0.5907 -0.8435
v -0.1798 0.5890 1.4485
v -1.4440 0.5864 0.9737
v -0.6883 0.5906 -0.8909
v 0.0014 0.5904 1.4499
v -1.3931 4.1512 -0.4570
v -1.3926 4.2909 -0.5020
v -1.4987 4.2080 0.8454
v -1.5098 4.1049 0.7801
v -1.5086 5.1762 -0.0715
v -1.5057 5.1767 0.1230
v -1.5270 3.6710 0.2892
v -1.5215 3.6559 0.1078
v -1.4075 4.0496 -0.3980
v -1.4562 4.6257 0.7911
v -1.4628 4.4645 0.8534
v -1.5003 5.1275 -0.2285
v -1.4979 3.7077 -0.0729
v -1.4608 4.8046 0.6869
v -1.4810 5.0242 -0.3588
v -1.4640 3.8366 -0.2247
v -1.4759 4.9780 0.5404
v -1.4547 4.8698 -0.4560
v -1.4341 3.9581 -0.3250
v -1.5146 4.0004 0.6939
v -1.5184 3.8644 0.5884
v -1.4273 4.6783 -0.5108
v -1.4058 4.4741 -0.5235
v -1.4791 4.3273 0.8718
v -1.4931 5.1123 0.3454
v -1.5220 3.7332 0.4513
v -1.6374 4.1154 0.6896
v -1.6287 4.0066 0.6124
v -1.6327 4.4471 -0.4725
v -1.6684 4.6157 -0.4575
v -1.6601 4.4365 0.7671
v -1.6526 4.3170 0.7742
v -1.7570 5.0035 0.3398
v -1.7294 4.8884 0.5151
v -1.6222 3.8579 0.5163
v -1.6179 3.7106 0.3963
v -1.6030 4.2902 -0.4452
v -1.6463 4.2124 0.7469
v -1.7727 5.0502 0.1347
v -1.6153 3.6417 0.2544
v -1.5840 4.1656 -0.4034
v -1.7754 5.0386 -0.0445
v -1.6115 3.6373 0.0947
v -1.5767 4.0720 -0.3490
v -1.6745 4.5768 0.7243
v -1.7651 4.9890 -0.1853
v -1.6005 3.7014 -0.0637
v -1.6984 4.7343 0.6414
v -1.7414 4.8998 -0.3017
v -1.5839 3.8424 -0.1960
v -1.7071 4.7723 -0.4015
v -1.5775 3.9776 -0.2835
v -1.7701 4.0278 0.6304
v -1.7497 3.9263 0.5602
v -1.8263 4.3237 -0.4089
v -1.8836 4.4631 -0.4008
v -1.8439 4.3092 0.7121
v -1.8180 4.2063 0.7120
v -2.0194 4.7991 0.3367
v -1.9771 4.7015 0.4969
v -1.7342 3.7863 0.4738
v -1.7234 3.6492 0.3679
v -1.7754 4.1900 -0.3905
v -1.7939 4.1150 0.6836
v -2.0408 4.8348 0.1468
v -1.7172 3.5845 0.2417
v -1.7374 4.0800 -0.3518
v -2.0422 4.8207 -0.0183
v -1.7136 3.5830 0.0982
v -1.7145 3.9949 -0.3014
v -1.8789 4.4302 0.6805
v -2.0257 4.7759 -0.1460
v -1.7070 3.6447 -0.0441
v -1.9254 4.5672 0.6101
v -1.9915 4.6995 -0.2524
v -1.6987 3.7768 -0.1621
v -1.9418 4.5923 -0.3394
v -1.7026 3.9058 -0.2411
v -1.8364 3.7584 -0.1936
v -1.8565 3.8324 -0.2506
v -1.9124 3.8528 0.6059
v -1.8823 3.7680 0.5411
v -2.0157 4.1103 -0.3507
v -2.0926 4.2248 -0.3365
v -2.0288 4.0937 0.6857
v -1.9867 4.0060 0.6832
v -2.2747 4.5049 0.3416
v -2.2193 4.4246 0.4899
v -1.8596 3.6582 0.4618
v -1.8440 3.5572 0.3655
v -1.9458 3.9988 -0.3337
v -1.9484 3.9277 0.6555
v -2.3010 4.5332 0.1661
v -1.8353 3.5111 0.2501
v -1.8914 3.9053 -0.2979
v -2.3001 4.5205 0.0130
v -1.8319 3.5109 0.1183
v -2.0823 4.1965 0.6586
v -2.2770 4.4830 -0.1054
v -1.8288 3.5573 -0.0117
v -2.1489 4.3121 0.5947
v -2.2324 4.4192 -0.2041
v -1.8267 3.6572 -0.1194
v -2.1683 4.3306 -0.2853
v -2.4217 4.1140 0.7508
v -2.3079 3.9696 0.8393
v -2.5554 4.2432 -0.3484
v -2.6294 4.3222 -0.2116
v -1.8672 3.2469 -0.0786
v -1.8710 3.3389 -0.2249
v -2.5388 4.2521 0.6056
v -2.4504 4.1344 -0.4595
v -1.8898 3.4380 -0.3305
v -1.9526 3.4435 0.6773
v -1.9133 3.3357 0.5677
v -2.3259 4.0048 -0.5298
v -1.9257 3.5200 -0.4123
v -2.0049 3.5372 0.7668
v -2.1978 3.8641 -0.5500
v -2.2132 3.8395 0.8769
v -2.1366 3.7274 0.8731
v -2.6295 4.3498 0.4022
v -1.8866 3.2445 0.4349
v -2.0801 3.7262 -0.5277
v -2.0679 3.6282 0.8347
v -2.6720 4.3845 0.1641
v -1.8720 3.2049 0.2763
v -1.9872 3.6097 -0.4786
v -2.6691 4.3690 -0.0465
v -1.8674 3.2052 0.0970
v 0.4573 3.9892 1.3863
v 0.3222 3.9212 1.4005
v 0.3901 3.6872 1.4892
v 0.5448 3.7679 1.4911
v 1.0713 4.3342 1.0886
v 0.9032 4.2648 1.1949
v 1.0116 4.0645 1.2833
v 1.1571 4.1460 1.1422
v 0.7525 4.1752 1.2893
v 0.6041 4.0767 1.3563
v 0.7106 3.8669 1.4862
v 0.8676 3.9730 1.4164
v 0.2035 3.8777 1.4137
v 0.2502 3.6254 1.4884
v 1.1601 3.8550 1.3353
v 1.2722 3.9417 1.1404
v 0.8628 3.6586 1.6192
v 1.0290 3.7666 1.5381
v 0.3329 3.3255 1.5240
v 0.5047 3.4504 1.5615
v 0.6803 3.5517 1.5863
v 1.1510 3.5610 1.4893
v 1.2651 3.6335 1.2594
v 0.8287 3.3485 1.5536
v 1.0052 3.4564 1.5801
v 0.6603 3.2451 1.5330
v 1.3046 3.7573 1.1413
v 0.5190 3.1457 1.5018
v 1.1998 3.3650 1.3371
v 1.2691 3.4402 1.2253
v 0.9423 3.1584 1.4018
v 1.0864 3.2626 1.3860
v 0.7903 3.0469 1.4093
v 0.6415 3.0309 1.4511
v 0.9963 3.0119 1.2861
v 1.1015 3.0859 1.2341
v 0.9008 2.9633 1.3218
v 1.3433 3.7038 0.9783
v 1.3509 3.8605 0.9659
v 1.1960 3.1796 1.1604
v 1.3173 3.5238 1.0273
v 1.2720 3.2977 1.0618
v 1.0364 4.5426 0.9709
v 0.8653 4.4840 1.0564
v 1.0373 4.7654 0.8137
v 0.8723 4.7144 0.8864
v 1.0519 4.9756 0.6262
v 0.8890 4.9286 0.6985
v 1.2939 3.2811 0.9443
v 1.3324 3.4364 0.8410
v 1.3787 3.6819 0.7884
v 1.3809 3.8183 0.8515
v 1.3635 3.4671 0.6114
v 1.4093 3.6258 0.5743
v 0.1187 3.6125 1.4903
v 0.1440 3.3440 1.5262
v 0.0985 3.8614 1.4189
v 1.3922 3.4866 0.3954
v 1.4394 3.6122 0.3674
v 1.3883 3.4942 0.1757
v 1.4341 3.6114 0.1512
v 1.3403 3.5006 -0.0413
v 1.3871 3.6280 -0.0636
v 1.2374 3.5135 -0.2369
v 1.2909 3.6705 -0.2532
v 1.0299 3.5268 -0.3897
v 1.1179 3.7191 -0.4017
v 0.8240 3.5388 -0.4981
v 0.9280 3.7826 -0.5352
v 0.5831 3.5275 -0.5278
v 0.6304 3.7367 -0.5816
v 0.3693 3.5154 -0.5012
v 0.3908 3.7158 -0.5554
v 0.1750 3.5094 -0.4760
v 0.1823 3.7086 -0.5243
v 1.0715 5.1445 0.3945
v 0.9122 5.0999 0.4770
v 1.1000 5.2528 0.1266
v 0.9841 5.2467 0.1573
v 1.1055 5.2865 -0.1028
v 0.9930 5.2989 -0.0927
v 1.0818 5.2565 -0.2974
v 0.9485 5.3006 -0.3021
v 1.0297 5.1479 -0.4597
v 0.8200 5.1658 -0.4869
v 0.9871 4.9120 -0.5719
v 0.7700 4.9176 -0.6072
v 0.9482 4.6552 -0.6398
v 0.7334 4.6500 -0.6793
v 0.9130 4.3926 -0.6519
v 0.6940 4.3762 -0.6804
v 0.8909 4.1602 -0.6344
v 0.6596 4.1307 -0.6623
v 0.8946 3.9711 -0.5976
v 0.6412 3.9269 -0.6269
v 0.5645 4.3075 1.2195
v 0.4238 4.2264 1.2641
v 0.1857 4.1041 1.3321
v 0.0902 4.0815 1.3454
v 0.7121 4.3977 1.1441
v 0.2965 4.1544 1.2984
v 0.4247 4.4638 1.1285
v 0.2966 4.3746 1.1879
v 0.1853 4.3039 1.2332
v 0.0900 4.2704 1.2494
v 0.5677 4.5478 1.0645
v 0.7186 4.6318 0.9760
v 0.5828 4.7542 0.9256
v 0.4376 4.6650 1.0041
v 0.7346 4.8399 0.8137
v 0.3067 4.5684 1.0706
v 0.1917 4.4886 1.1202
v 0.0930 4.4483 1.1434
v 1.4591 3.7071 0.5135
v 1.4438 3.8041 0.6729
v 1.4344 3.9207 0.7791
v 1.3160 4.2555 0.9956
v 1.2667 4.4129 0.9639
v 1.2897 5.2479 -0.0933
v 1.2769 5.2046 -0.2670
v 1.4157 4.0084 0.8781
v 1.3763 4.1122 0.9660
v 1.4721 3.6494 0.1284
v 1.4817 3.6641 0.3306
v 1.1542 4.4374 -0.5842
v 1.1427 4.2276 -0.5616
v 1.2679 5.1472 0.3592
v 1.2853 5.2324 0.1169
v 1.2141 4.9026 -0.5187
v 1.1802 4.6751 -0.5747
v 1.2710 3.8620 -0.3630
v 1.3550 3.7724 -0.2451
v 1.2421 4.5968 0.8766
v 1.2390 4.7990 0.7459
v 1.2482 5.0875 -0.4135
v 1.4229 3.6819 -0.0734
v 1.1546 4.0675 -0.5155
v 1.1928 3.9455 -0.4535
v 1.2506 4.9931 0.5761
v 0.1926 3.9124 -0.5703
v 0.4078 3.9140 -0.6063
v 0.2075 4.1321 -0.6152
v 0.4319 4.1289 -0.6529
v 0.2287 4.3855 -0.6503
v 0.4664 4.3805 -0.6799
v 0.2542 4.6548 -0.6582
v 0.5038 4.6528 -0.6862
v 0.2772 4.8953 -0.6179
v 0.5345 4.9051 -0.6282
v 0.2891 5.0374 -0.5780
v 0.5550 5.0670 -0.5565
v 1.2091 3.0521 1.0087
v 1.2462 3.0940 0.9234
v 1.1671 3.2807 -0.1828
v 0.9635 3.2816 -0.3279
v 0.1682 3.2679 -0.4089
v 0.4545 2.9832 1.4826
v 0.6039 2.9165 1.4338
v 0.1375 3.0911 1.5169
v 0.2907 3.0619 1.5077
v 1.3231 3.2742 0.2170
v 1.2713 3.2774 0.0068
v 0.5380 3.2762 -0.4407
v 0.3480 3.2707 -0.4215
v 1.3053 3.2322 0.6306
v 1.3330 3.2642 0.4289
v 0.7493 2.8892 1.3714
v 0.8702 2.8662 1.2969
v 0.7535 3.2802 -0.4188
v 0.9725 2.8861 1.2312
v 1.0663 2.9291 1.1603
v 1.2778 3.1742 0.8113
v 1.1479 2.9879 1.0850
v 0.5751 2.7785 1.4227
v 0.7174 2.7605 1.3592
v 1.1850 2.9968 0.0663
v 1.0647 2.9997 -0.1132
v 1.1544 2.8482 0.9856
v 1.1944 2.8766 0.9129
v 0.4245 2.8099 1.4658
v 0.8754 2.9999 -0.2440
v 1.2265 2.9164 0.8116
v 1.2506 2.9575 0.6549
v 0.8374 2.7544 1.2852
v 0.9380 2.7646 1.2100
v 0.6807 2.9964 -0.3171
v 0.1295 2.8593 1.4928
v 0.2699 2.8434 1.4851
v 1.0256 2.7864 1.1321
v 0.4995 2.9927 -0.3441
v 1.0992 2.8167 1.0551
v 0.3303 2.9895 -0.3458
v 1.2633 2.9838 0.4682
v 0.1616 2.9883 -0.3415
v 1.2448 2.9932 0.2667
v 1.1714 2.6713 0.9023
v 1.2034 2.6858 0.8082
v 0.5672 2.6231 1.4315
v 0.7084 2.6150 1.3694
v 1.1430 2.7302 0.1059
v 1.0054 2.7330 -0.0655
v 1.1311 2.6591 0.9717
v 0.4171 2.6361 1.4698
v 0.8205 2.7339 -0.1902
v 1.2277 2.7048 0.6664
v 0.8269 2.6137 1.2922
v 0.9253 2.6193 1.2036
v 0.6416 2.7314 -0.2594
v 0.1271 2.6565 1.4769
v 0.2646 2.6496 1.4780
v 1.0092 2.6298 1.1175
v 0.4838 2.7281 -0.2908
v 1.0783 2.6445 1.0402
v 0.3240 2.7259 -0.2993
v 1.2353 2.7204 0.4911
v 0.1595 2.7254 -0.2963
v 1.2137 2.7271 0.2982
v 1.2064 2.4516 0.7922
v 1.2297 2.4596 0.6602
v 0.8327 2.4141 1.2740
v 0.9320 2.4176 1.1869
v 0.8173 2.4789 -0.1633
v 0.6416 2.4773 -0.2324
v 0.1284 2.4359 1.4707
v 0.2668 2.4322 1.4723
v 1.0153 2.4236 1.1023
v 0.4859 2.4749 -0.2655
v 0.1305 2.1963 1.4419
v 1.0827 2.4320 1.0255
v 0.3257 2.4734 -0.2753
v 1.2363 2.4686 0.4940
v 1.1346 2.4403 0.9550
v 0.1608 2.4730 -0.2729
v 1.2144 2.4735 0.3084
v 0.7128 2.4145 1.3494
v 0.4198 2.4255 1.4605
v 1.1416 2.4760 0.1225
v 1.1746 2.4464 0.8837
v 0.5709 2.4188 1.4097
v 1.0012 2.4781 -0.0427
v 1.0376 2.1883 1.0869
v 1.1061 2.1935 1.0107
v 0.4951 2.2205 -0.2588
v 0.3312 2.2195 -0.2689
v 1.2534 2.2102 0.6481
v 1.2591 2.2160 0.4872
v 1.1586 2.1989 0.9387
v 0.1636 2.2192 -0.2667
v 1.2366 2.2195 0.3056
v 0.7263 2.1825 1.3255
v 0.8497 2.1823 1.2554
v 0.2715 2.1938 1.4367
v 0.4275 2.1895 1.4396
v 1.1629 2.2213 0.1234
v 1.1990 2.2028 0.8656
v 1.2309 2.2058 0.7746
v 0.5817 2.1852 1.3840
v 1.0205 2.2227 -0.0384
v 0.8341 2.2232 -0.1567
v 0.9521 2.1846 1.1628
v 0.6551 2.2222 -0.2254
v 0.1348 1.9490 1.4170
v 1.3144 1.9629 0.4753
v 1.2911 1.9659 0.2933
v 0.7571 1.9380 1.3104
v 0.8867 1.9378 1.2410
v 0.1695 1.9664 -0.2811
v 0.2816 1.9467 1.4117
v 0.4445 1.9434 1.4073
v 1.2141 1.9673 0.1104
v 1.2506 1.9505 0.8524
v 1.2843 1.9535 0.7610
v 0.6059 1.9401 1.3692
v 1.0654 1.9684 -0.0519
v 1.2085 1.9475 0.9270
v 0.8708 1.9689 -0.1706
v 1.3082 1.9578 0.6358
v 0.9941 1.9392 1.1545
v 0.6834 1.9681 -0.2399
v 1.0834 1.9414 1.0779
v 0.5154 1.9669 -0.2736
v 1.1545 1.9442 1.0008
v 0.3439 1.9662 -0.2837
v 1.3252 1.6836 0.8378
v 1.3626 1.6865 0.7439
v 0.6437 1.6753 1.3640
v 0.8048 1.6735 1.3030
v 1.2922 1.6994 0.0736
v 1.1337 1.7004 -0.0943
v 1.2805 1.6810 0.9153
v 0.4716 1.6782 1.4035
v 0.9263 1.7007 -0.2172
v 1.3902 1.6907 0.6160
v 0.9430 1.6734 1.2313
v 1.0571 1.6746 1.1540
v 0.7265 1.7001 -0.2889
v 0.1422 1.6832 1.4268
v 0.2981 1.6811 1.4209
v 1.1509 1.6763 1.0739
v 0.5472 1.6990 -0.3238
v 1.2245 1.6784 0.9927
v 0.3645 1.6984 -0.3341
v 1.3984 1.6954 0.4509
v 0.1792 1.6987 -0.3311
v 1.3741 1.6981 0.2629
v 1.2041 1.4166 -0.1830
v 0.9836 1.4169 -0.3141
v 1.4462 1.4048 0.7092
v 1.4765 1.4084 0.5736
v 1.0013 1.3944 1.2306
v 1.1226 1.3953 1.1480
v 0.7710 1.4163 -0.3906
v 0.1501 1.4026 1.4401
v 0.3155 1.4008 1.4332
v 1.2219 1.3966 1.0619
v 0.5802 1.4155 -0.4278
v 1.2994 1.3981 0.9744
v 0.3861 1.4151 -0.4390
v 1.4857 1.4124 0.3981
v 1.3584 1.4002 0.8913
v 0.1894 1.4154 -0.4361
v 1.4599 1.4147 0.1978
v 0.8543 1.3945 1.3072
v 0.4998 1.3984 1.4144
v 1.3727 1.4158 -0.0040
v 1.4060 1.4023 0.8088
v 0.6829 1.3960 1.3722
v 1.0662 1.1050 1.2146
v 1.1952 1.1058 1.1253
v 1.0476 1.1189 -0.4617
v 0.8220 1.1186 -0.5447
v 0.1612 1.1097 1.4417
v 0.3381 1.1089 1.4346
v 1.3012 1.1073 1.0327
v 0.6192 1.1180 -0.5850
v 1.3843 1.1094 0.9392
v 0.4128 1.1176 -0.5975
v 1.5714 1.1147 0.5024
v 1.5805 1.1165 0.3112
v 1.4476 1.1115 0.8499
v 0.2030 1.1174 -0.5951
v 1.5528 1.1176 0.0936
v 0.9101 1.1051 1.2977
v 0.5339 1.1075 1.4141
v 1.4601 1.1183 -0.1254
v 1.4981 1.1128 0.7602
v 1.5403 1.1136 0.6511
v 0.7284 1.1060 1.3682
v 1.2813 1.1188 -0.3195
v 1.4788 0.8268 0.8944
v 1.5469 0.8294 0.7994
v 0.4448 0.8286 -0.7826
v 0.2199 0.8288 -0.7809
v 1.6849 0.8283 0.2050
v 1.6544 0.8286 -0.0317
v 0.9733 0.8209 1.2772
v 1.1389 0.8209 1.1872
v 0.3662 0.8233 1.4264
v 0.5744 0.8223 1.4038
v 1.5552 0.8289 -0.2692
v 1.6007 0.8303 0.7011
v 1.6448 0.8294 0.5795
v 0.7807 0.8215 1.3536
v 1.3663 0.8292 -0.4795
v 1.1202 0.8293 -0.6336
v 1.6764 0.8283 0.4146
v 1.2762 0.8218 1.0910
v 0.8811 0.8291 -0.7244
v 0.1758 0.8242 1.4337
v 1.3895 0.8237 0.9927
v 0.6648 0.8288 -0.7683
v 1.7456 0.5901 0.3604
v 1.7528 0.5898 0.1382
v 1.5410 0.5894 0.8727
v 1.6129 0.5921 0.7737
v 0.4629 0.5912 -0.9067
v 0.2281 0.5929 -0.9058
v 1.7191 0.5902 -0.1110
v 1.0213 0.5840 1.2820
v 1.1849 0.5840 1.1764
v 0.3912 0.5868 1.4405
v 0.6075 0.5853 1.4155
v 1.6146 0.5905 -0.3605
v 1.6692 0.5928 0.6686
v 1.7143 0.5915 0.5371
v 0.8216 0.5844 1.3621
v 1.4198 0.5907 -0.5809
v 1.1672 0.5908 -0.7446
v 1.3283 0.5846 1.0757
v 0.9193 0.5907 -0.8435
v 0.1915 0.5890 1.4485
v 1.4469 0.5864 0.9737
v 0.6925 0.5906 -0.8909
v 1.4043 4.2909 -0.5020
v 1.4048 4.1512 -0.4570
v 1.5215 4.1049 0.7801
v 1.5105 4.2080 0.8454
v 1.5174 5.1767 0.1230
v 1.5203 5.1762 -0.0715
v 1.5333 3.6559 0.1078
v 1.5387 3.6710 0.2892
v 1.4192 4.0496 -0.3980
v 1.4745 4.4645 0.8534
v 1.4679 4.6257 0.7911
v 1.5121 5.1275 -0.2285
v 1.5096 3.7077 -0.0729
v 1.4725 4.8046 0.6869
v 1.4928 5.0242 -0.3588
v 1.4758 3.8366 -0.2247
v 1.4876 4.9780 0.5404
v 1.4664 4.8698 -0.4560
v 1.4458 3.9581 -0.3250
v 1.5302 3.8644 0.5884
v 1.5263 4.0004 0.6939
v 1.4390 4.6783 -0.5108
v 1.4175 4.4741 -0.5235
v 1.4909 4.3273 0.8718
v 1.5049 5.1123 0.3454
v 1.5337 3.7332 0.4513
v 1.6404 4.0066 0.6124
v 1.6491 4.1154 0.6896
v 1.6801 4.6157 -0.4670
v 1.6445 4.4471 -0.4650
v 1.6644 4.3170 0.7742
v 1.6718 4.4365 0.7671
v 1.7411 4.8884 0.5151
v 1.7687 5.0035 0.3398
v 1.6296 3.7106 0.3963
v 1.6340 3.8579 0.5163
v 1.6147 4.2902 -0.4452
v 1.6580 4.2124 0.7469
v 1.7844 5.0502 0.1347
v 1.6270 3.6417 0.2544
v 1.5957 4.1656 -0.4034
v 1.7871 5.0386 -0.0445
v 1.6232 3.6373 0.0947
v 1.5884 4.0720 -0.3490
v 1.6862 4.5768 0.7243
v 1.7768 4.9890 -0.1853
v 1.6122 3.7014 -0.0637
v 1.7101 4.7343 0.6414
v 1.7532 4.8998 -0.3017
v 1.5956 3.8424 -0.1960
v 1.7188 4.7723 -0.3940
v 1.5893 3.9776 -0.2835
v 1.7614 3.9263 0.5602
v 1.7818 4.0278 0.6304
v 1.8954 4.4631 -0.4110
v 1.8380 4.3237 -0.4089
v 1.8297 4.2063 0.7120
v 1.8556 4.3092 0.7121
v 1.9888 4.7015 0.4969
v 2.0311 4.7991 0.3367
v 1.7351 3.6492 0.3679
v 1.7459 3.7863 0.4738
v 1.7871 4.1900 -0.3905
v 1.8056 4.1150 0.6836
v 2.0525 4.8348 0.1468
v 1.7289 3.5845 0.2417
v 1.7491 4.0800 -0.3518
v 2.0539 4.8207 -0.0183
v 1.7253 3.5830 0.0982
v 1.7262 3.9949 -0.3014
v 1.8907 4.4302 0.6805
v 2.0374 4.7759 -0.1460
v 1.7187 3.6447 -0.0441
v 1.9371 4.5672 0.6101
v 2.0032 4.6995 -0.2524
v 1.7104 3.7768 -0.1621
v 1.9535 4.5923 -0.3394
v 1.7143 3.9058 -0.2411
v 1.8682 3.8324 -0.2506
v 1.8481 3.7584 -0.1936
v 1.8940 3.7680 0.5411
v 1.9241 3.8528 0.6059
v 2.1043 4.2248 -0.3365
v 2.0275 4.1103 -0.3507
v 1.9985 4.0060 0.6832
v 2.0405 4.0937 0.6857
v 2.2310 4.4246 0.4899
v 2.2864 4.5049 0.3416
v 1.8557 3.5572 0.3655
v 1.8713 3.6582 0.4618
v 1.9575 3.9988 -0.3337
v 1.9601 3.9277 0.6555
v 2.3127 4.5332 0.1661
v 1.8470 3.5111 0.2501
v 1.9032 3.9053 -0.2979
v 2.3119 4.5205 0.0130
v 1.8436 3.5109 0.1183
v 2.0940 4.1965 0.6586
v 2.2887 4.4830 -0.1054
v 1.8405 3.5573 -0.0117
v 2.1606 4.3121 0.5947
v 2.2441 4.4192 -0.2041
v 1.8384 3.6572 -0.1194
v 2.1800 4.3306 -0.2853
v 2.2806 3.9445 0.6551
v 2.3598 4.0448 0.5936
v 2.5040 4.1895 -0.0750
v 2.4526 4.1346 -0.1700
v 1.9772 3.5064 -0.0842
v 1.9746 3.4425 0.0174
v 2.4411 4.1408 0.4927
v 2.3797 4.0590 -0.2472
v 1.9902 3.5752 -0.1575
v 2.0066 3.5041 0.4664
v 2.0339 3.5791 0.5425
v 2.2932 3.9690 -0.2960
v 2.0152 3.6322 -0.2144
v 2.0702 3.6441 0.6047
v 2.2042 3.8712 -0.3100
v 2.1617 3.7763 0.6785
v 2.2149 3.8541 0.6812
v 2.5041 4.2086 0.3514
v 1.9880 3.4408 0.3741
v 2.1225 3.7754 -0.2945
v 2.1139 3.7074 0.6519
v 2.5336 4.2327 0.1860
v 1.9779 3.4133 0.2639
v 2.0579 3.6945 -0.2604
v 2.5316 4.2220 0.0397
v 1.9747 3.4135 0.1394
v -1.8361 0.3417 0.1443
v -1.8292 0.3419 0.3765
v -1.6916 0.3439 0.8108
v -1.6163 0.3412 0.9141
v -0.2481 0.3458 -0.9649
v -0.4919 0.3434 -0.9655
v -1.8001 0.3421 -0.1157
v -1.2445 0.3359 1.2301
v -1.0649 0.3359 1.3289
v -0.0109 0.3474 -0.9621
v -0.6342 0.3373 1.4683
v -0.4094 0.3390 1.4948
v -1.6905 0.3425 -0.3759
v -1.7971 0.3434 0.5620
v -1.7503 0.3446 0.7004
v -0.8572 0.3364 1.4124
v -1.4877 0.3427 -0.6078
v -1.2217 0.3428 -0.7867
v -1.3941 0.3365 1.1250
v -0.9551 0.3426 -0.8969
v -0.2010 0.3419 1.5035
v -1.5179 0.3382 1.0189
v -0.7264 0.3426 -0.9486
v -0.0109 0.3436 1.5050
v 1.8073 0.3419 0.3765
v 1.8142 0.3417 0.1443
v 1.5944 0.3412 0.9141
v 1.6697 0.3439 0.8108
v 0.4707 0.3434 -0.9655
v 0.2262 0.3458 -0.9649
v 1.7782 0.3421 -0.1157
v 1.0430 0.3359 1.3289
v 1.2226 0.3359 1.2301
v 0.3875 0.3390 1.4948
v 0.6123 0.3373 1.4683
v 1.6686 0.3425 -0.3759
v 1.7284 0.3446 0.7004
v 1.7752 0.3434 0.5620
v 0.8353 0.3364 1.4124
v 1.4665 0.3427 -0.6078
v 1.2053 0.3428 -0.7867
v 1.3722 0.3365 1.1250
v 0.9472 0.3426 -0.8969
v 0.1791 0.3419 1.5035
v 1.4960 0.3382 1.0189
v 0.7100 0.3426 -0.9486
v -1.8805 0.1706 0.1648
v -1.8747 0.1709 0.4013
v -1.7343 0.1727 0.8499
v -1.6566 0.1700 0.9563
v -0.2568 0.1748 -0.9891
v -0.5062 0.1725 -0.9885
v -1.8411 0.1710 -0.0996
v -1.2749 0.1647 1.2795
v -1.0910 0.1647 1.3801
v -0.0130 0.1762 -0.9869
v -0.6516 0.1661 1.5218
v -0.4227 0.1680 1.5500
v -1.7270 0.1713 -0.3655
v -1.8426 0.1722 0.5915
v -1.7949 0.1734 0.7350
v -0.8792 0.1652 1.4647
v -1.5226 0.1716 -0.6073
v -1.2580 0.1717 -0.7985
v -1.4287 0.1653 1.1722
v -0.9896 0.1715 -0.9160
v -0.2093 0.1707 1.5598
v -1.5556 0.1671 1.0636
v -0.7495 0.1715 -0.9702
v -0.0130 0.1724 1.5616
v 1.8487 0.1709 0.4013
v 1.8545 0.1706 0.1648
v 1.6306 0.1700 0.9563
v 1.7083 0.1727 0.8499
v 0.4802 0.1725 -0.9885
v 0.2308 0.1748 -0.9891
v 1.8151 0.1710 -0.0996
v 1.0650 0.1647 1.3801
v 1.2490 0.1647 1.2795
v 0.3968 0.1680 1.5500
v 0.6257 0.1661 1.5218
v 1.7011 0.1713 -0.3655
v 1.7689 0.1734 0.7350
v 1.8166 0.1722 0.5915
v 0.8532 0.1652 1.4647
v 1.4966 0.1716 -0.6073
v 1.2341 0.1717 -0.7985
v 1.4027 0.1653 1.1722
v 0.9710 0.1715 -0.9160
v 0.1833 0.1707 1.5598
v 1.5296 0.1671 1.0636
v 0.7257 0.1715 -0.9702
v -2.5105 3.8419 0.6271
v -2.4297 3.7438 0.6883
v -2.6046 3.9292 -0.1320
v -2.6569 3.9829 -0.0374
v -2.1165 3.2617 0.0550
v -2.1199 3.3198 -0.0457
v -2.5933 3.9355 0.5267
v -2.5304 3.8554 -0.2085
v -2.1333 3.3835 -0.1192
v -2.1766 3.3867 0.5765
v -2.1487 3.3172 0.5008
v -2.4425 3.7675 -0.2570
v -2.1588 3.4383 -0.1761
v -2.2138 3.4490 0.6384
v -2.3519 3.6721 -0.2711
v -2.3623 3.6550 0.7144
v -2.3075 3.5784 0.7118
v -2.6572 4.0015 0.3862
v -2.1297 3.2600 0.4090
v -2.2686 3.5785 -0.2558
v -2.2585 3.5107 0.6853
v -2.6872 4.0251 0.2225
v -2.1194 3.2350 0.2994
v -2.2026 3.4993 -0.2220
v -2.6851 4.0147 0.0770
v -2.1162 3.2352 0.1758
v -2.6816 3.6467 0.6719
v -2.5830 3.5486 0.7331
v -2.7748 3.7340 -0.0872
v -2.8272 3.7877 0.0074
v -2.2698 3.0666 0.0998
v -2.2732 3.1246 -0.0009
v -2.7635 3.7403 0.5715
v -2.7007 3.6603 -0.1638
v -2.2865 3.1883 -0.0744
v -2.3299 3.1915 0.6213
v -2.3020 3.1221 0.5455
v -2.5957 3.5724 -0.2123
v -2.3121 3.2431 -0.1313
v -2.3670 3.2538 0.6832
v -2.5052 3.4769 -0.2598
v -2.5155 3.4598 0.7592
v -2.4608 3.3832 0.7565
v -2.8275 3.8063 0.4310
v -2.2830 3.0648 0.4538
v -2.4218 3.3833 -0.2407
v -2.4118 3.3156 0.7300
v -2.8575 3.8299 0.2672
v -2.2727 3.0398 0.3441
v -2.3559 3.3041 -0.1890
v -2.8553 3.8196 0.1218
v -2.2695 3.0400 0.2206
v -2.9236 3.4251 0.8484
v -2.8024 3.2915 0.9151
v -3.2037 3.5436 -0.1573
v -3.2552 3.5114 -0.0185
v -2.5061 2.6330 -0.0031
v -2.5317 2.7106 -0.1382
v -3.0549 3.4062 0.7290
v -3.1193 3.4090 -0.2570
v -2.5649 2.7968 -0.2358
v -2.4820 2.8013 0.7134
v -2.4596 2.7076 0.6050
v -3.0141 3.3230 -0.3810
v -2.6116 2.8730 -0.3078
v -2.5196 2.8873 0.8046
v -2.8949 3.1928 -0.4188
v -2.7056 3.1701 0.9371
v -2.6315 3.0650 0.9226
v -3.1690 3.6412 0.5524
v -2.4527 2.6306 0.4767
v -2.7797 3.0655 -0.4157
v -2.5705 2.9722 0.8768
v -3.2428 3.5400 0.3397
v -2.4609 2.5956 0.3263
v -2.6805 2.9573 -0.3610
v -3.2698 3.6608 0.1431
v -2.4814 2.5960 0.1594
v 2.4778 3.7971 0.8389
v 2.5905 3.9340 0.7535
v 2.7948 4.1307 -0.1737
v 2.7217 4.0558 -0.3056
v 2.0455 3.2055 -0.1852
v 2.0408 3.1245 -0.0447
v 2.7060 4.0646 0.6134
v 2.6183 3.9529 -0.4124
v 2.0642 3.2944 -0.2877
v 2.0857 3.2020 0.5773
v 2.1246 3.2988 0.6830
v 2.4956 3.8303 -0.4801
v 2.0998 3.3708 -0.3671
v 2.1765 3.3858 0.7693
v 2.3692 3.6971 -0.4997
v 2.3073 3.5664 0.8717
v 2.3837 3.6732 0.8753
v 2.7952 4.1567 0.4174
v 2.0592 3.1221 0.4492
v 2.2530 3.5665 -0.4784
v 2.2389 3.4720 0.8347
v 2.8371 4.1896 0.1889
v 2.0448 3.0872 0.2963
v 2.1610 3.4559 -0.4312
v 2.8341 4.1752 -0.0140
v 2.0404 3.0875 0.1239
v 2.5854 3.5574 0.6616
v 2.6662 3.6555 0.6004
v 2.8126 3.7965 -0.0641
v 2.7603 3.7428 -0.1587
v 2.2756 3.1334 -0.0724
v 2.2722 3.0754 0.0283
v 2.7490 3.7491 0.5000
v 2.6861 3.6691 -0.2352
v 2.2890 3.1971 -0.1459
v 2.3044 3.1309 0.4741
v 2.3323 3.2003 0.5498
v 2.5982 3.5812 -0.2837
v 2.3146 3.2519 -0.2028
v 2.3695 3.2626 0.6117
v 2.5076 3.4857 -0.2978
v 2.4633 3.3921 0.6851
v 2.5180 3.4686 0.6877
v 2.8130 3.8151 0.3595
v 2.2855 3.0736 0.3823
v 2.4243 3.3921 -0.2825
v 2.4142 3.3244 0.6586
v 2.8429 3.8387 0.1958
v 2.2751 3.0486 0.2727
v 2.3584 3.3129 -0.2487
v 2.8408 3.8284 0.0503
v 2.2720 3.0488 0.1491
v 2.7146 3.3904 0.6532
v 2.7954 3.4885 0.5920
v 2.9417 3.6295 -0.0725
v 2.8894 3.5758 -0.1671
v 2.4048 2.9664 -0.0808
v 2.4014 2.9083 0.0199
v 2.8781 3.5821 0.4916
v 2.8152 3.5020 -0.2437
v 2.4181 3.0301 -0.1543
v 2.4336 2.9638 0.4657
v 2.4615 3.0333 0.5414
v 2.7273 3.4141 -0.2921
v 2.4437 3.0849 -0.2112
v 2.4986 3.0956 0.6033
v 2.6368 3.3187 -0.3062
v 2.5924 3.2250 0.6767
v 2.6471 3.3016 0.6793
v 2.9421 3.6481 0.3511
v 2.4146 2.9066 0.3739
v 2.5534 3.2251 -0.2909
v 2.5434 3.1574 0.6501
v 2.9721 3.6717 0.1874
v 2.4043 2.8816 0.2643
v 2.4875 3.1459 -0.2571
v 2.9699 3.6613 0.0419
v 2.4011 2.8818 0.1407
v 3.0083 3.2035 0.8084
v 3.1246 3.3447 0.8052
v 3.3349 3.5477 -0.1534
v 3.2592 3.3913 -0.2904
v 2.5596 2.5892 -0.1646
v 2.5541 2.5072 -0.0193
v 3.2431 3.4125 0.6597
v 3.1524 3.3637 -0.4005
v 2.5790 2.6804 -0.2719
v 2.6012 2.5860 0.6237
v 2.6416 2.6851 0.7336
v 3.0258 3.2368 -0.4019
v 2.6164 2.7610 -0.3546
v 2.6953 2.7761 0.8231
v 2.8953 3.0992 -0.4910
v 2.8309 2.9640 0.9288
v 2.9107 3.0751 0.9323
v 3.3347 3.5732 0.4572
v 2.5737 2.5047 0.4907
v 2.7753 2.9645 -0.4696
v 2.7598 2.8659 0.8905
v 3.3783 3.5324 0.2232
v 2.5587 2.4676 0.3322
v 2.6801 2.8501 -0.4210
v 3.3756 3.5940 0.0133
v 2.5538 2.4680 0.1544
vt 0.2767 0.7477
vt 0.2694 0.7254
vt 0.2823 0.7181
vt 0.2884 0.7416
vt 0.2205 0.7849
vt 0.2112 0.7664
vt 0.2266 0.7624
vt 0.2407 0.7834
vt 0.2511 0.7688
vt 0.2406 0.7499
vt 0.2557 0.7366
vt 0.2644 0.7563
vt 0.2938 0.7130
vt 0.2977 0.7398
vt 0.1924 0.7427
vt 0.2115 0.7337
vt 0.2275 0.7225
vt 0.2387 0.7117
vt 0.2734 0.6948
vt 0.2854 0.6804
vt 0.2579 0.7029
vt 0.1952 0.7139
vt 0.2156 0.7087
vt 0.2283 0.6975
vt 0.2432 0.6861
vt 0.2565 0.6785
vt 0.1877 0.7262
vt 0.2682 0.6633
vt 0.1954 0.6991
vt 0.2065 0.6900
vt 0.2152 0.6786
vt 0.2247 0.6669
vt 0.2362 0.6450
vt 0.2533 0.6527
vt 0.2033 0.6527
vt 0.2138 0.6465
vt 0.2232 0.6440
vt 0.1755 0.7325
vt 0.1735 0.7196
vt 0.1921 0.6639
vt 0.1751 0.7045
vt 0.1829 0.6781
vt 0.2367 0.8185
vt 0.2228 0.8202
vt 0.2327 0.8519
vt 0.2223 0.8553
vt 0.2344 0.8796
vt 0.2226 0.8874
vt 0.1669 0.6903
vt 0.1755 0.6784
vt 0.1615 0.7261
vt 0.1529 0.7182
vt 0.1342 0.7105
vt 0.1379 0.6950
vt 0.3009 0.6822
vt 0.3048 0.7128
vt 0.3062 0.7393
vt 0.3130 0.6814
vt 0.3130 0.7120
vt 0.3130 0.7388
vt 0.1152 0.7051
vt 0.1199 0.6909
vt 0.0964 0.6947
vt 0.1007 0.6822
vt 0.5379 0.2891
vt 0.5314 0.2783
vt 0.5493 0.2664
vt 0.5563 0.2790
vt 0.5738 0.2556
vt 0.5800 0.2696
vt 0.5954 0.2506
vt 0.6071 0.2649
vt 0.6080 0.2382
vt 0.6302 0.2670
vt 0.6413 0.2475
vt 0.6432 0.2619
vt 0.6665 0.2527
vt 0.6669 0.2675
vt 0.6889 0.2539
vt 0.6875 0.2686
vt 0.7024 0.2530
vt 0.7024 0.2680
vt 0.2395 0.9112
vt 0.2240 0.9217
vt 0.2380 0.9516
vt 0.2238 0.9592
vt 0.5985 0.0406
vt 0.6106 0.0304
vt 0.6155 0.0514
vt 0.6033 0.0593
vt 0.6265 0.0696
vt 0.6082 0.0744
vt 0.6358 0.0892
vt 0.6127 0.0977
vt 0.6352 0.1221
vt 0.6154 0.1207
vt 0.6333 0.1515
vt 0.6184 0.1497
vt 0.6360 0.1808
vt 0.6201 0.1794
vt 0.6404 0.2085
vt 0.6197 0.2057
vt 0.6437 0.2267
vt 0.6175 0.2245
vt 0.2779 0.7783
vt 0.2655 0.7861
vt 0.3066 0.7667
vt 0.2984 0.7693
vt 0.2524 0.7961
vt 0.2893 0.7725
vt 0.3130 0.7665
vt 0.2888 0.8076
vt 0.2769 0.8126
vt 0.3063 0.8036
vt 0.2981 0.8043
vt 0.3130 0.8034
vt 0.2633 0.8210
vt 0.2491 0.8294
vt 0.2755 0.8449
vt 0.2615 0.8549
vt 0.2473 0.8645
vt 0.2878 0.8387
vt 0.3059 0.8342
vt 0.2975 0.8347
vt 0.3130 0.8340
vt 0.1375 0.7455
vt 0.1192 0.7358
vt 0.1480 0.7528
vt 0.1909 0.8115
vt 0.1867 0.7942
vt 0.5903 0.0747
vt 0.5859 0.0608
vt 0.1717 0.7812
vt 0.1589 0.7633
vt 0.1019 0.7259
vt 0.0857 0.7095
vt 0.5977 0.1948
vt 0.5973 0.1694
vt 0.2066 0.9599
vt 0.2068 0.9267
vt 0.5995 0.1420
vt 0.5970 0.1181
vt 0.5562 0.2353
vt 0.5689 0.2313
vt 0.2038 0.8654
vt 0.1974 0.8348
vt 0.5949 0.0961
vt 0.5229 0.2622
vt 0.5363 0.2485
vt 0.5902 0.2113
vt 0.5834 0.2243
vt 0.5819 0.0443
vt 0.2049 0.8952
vt 0.6867 0.2279
vt 0.7024 0.2279
vt 0.6629 0.2271
vt 0.6862 0.2090
vt 0.7024 0.2085
vt 0.6613 0.2073
vt 0.6849 0.1807
vt 0.7024 0.1802
vt 0.6581 0.1792
vt 0.6810 0.1514
vt 0.7024 0.1511
vt 0.6547 0.1503
vt 0.6781 0.1244
vt 0.7024 0.1247
vt 0.6531 0.1240
vt 0.6717 0.1032
vt 0.7024 0.1079
vt 0.6528 0.0984
vt 0.1776 0.6529
vt 0.1861 0.6471
vt 0.6097 0.2920
vt 0.5843 0.2961
vt 0.7024 0.2950
vt 0.6874 0.2953
vt 0.2584 0.6379
vt 0.2728 0.6453
vt 0.2895 0.6569
vt 0.3022 0.6592
vt 0.5620 0.3038
vt 0.5437 0.3114
vt 0.6673 0.2943
vt 0.6496 0.2937
vt 0.1296 0.6669
vt 0.1462 0.6699
vt 0.2287 0.6310
vt 0.2413 0.6318
vt 0.6318 0.2936
vt 0.2172 0.6324
vt 0.2056 0.6369
vt 0.1685 0.6628
vt 0.1936 0.6441
vt 0.3130 0.6586
vt 0.1110 0.6609
vt 0.2451 0.6202
vt 0.2618 0.6221
vt 0.5908 0.3359
vt 0.5674 0.3410
vt 0.1832 0.6262
vt 0.1901 0.6255
vt 0.2746 0.6242
vt 0.6183 0.3323
vt 0.1583 0.6311
vt 0.1773 0.6257
vt 0.2200 0.6207
vt 0.2327 0.6197
vt 0.6403 0.3327
vt 0.2909 0.6265
vt 0.3031 0.6271
vt 0.2091 0.6211
vt 0.6519 0.3338
vt 0.3130 0.6269
vt 0.1967 0.6230
vt 0.6691 0.3342
vt 0.1418 0.6313
vt 0.6885 0.3347
vt 0.1241 0.6269
vt 0.7024 0.3346
vt 0.5491 0.3461
vt 0.1787 0.6097
vt 0.1845 0.6103
vt 0.2442 0.6099
vt 0.2615 0.6111
vt 0.5929 0.3618
vt 0.5690 0.3648
vt 0.1912 0.6103
vt 0.2743 0.6121
vt 0.6209 0.3597
vt 0.1627 0.6075
vt 0.2205 0.6093
vt 0.2323 0.6092
vt 0.6396 0.3596
vt 0.2908 0.6130
vt 0.3030 0.6133
vt 0.2097 0.6091
vt 0.6516 0.3598
vt 0.3130 0.6131
vt 0.1985 0.6094
vt 0.6689 0.3599
vt 0.1466 0.6078
vt 0.6884 0.3602
vt 0.1291 0.6051
vt 0.7024 0.3602
vt 0.5506 0.3673
vt 0.1636 0.5817
vt 0.1761 0.5822
vt 0.2195 0.5822
vt 0.2311 0.5824
vt 0.6375 0.3872
vt 0.6182 0.3873
vt 0.2896 0.5864
vt 0.3023 0.5867
vt 0.2088 0.5820
vt 0.6514 0.3874
vt 0.3128 0.5867
vt 0.1988 0.5822
vt 0.6686 0.3875
vt 0.1483 0.5822
vt 0.1908 0.5826
vt 0.6874 0.3875
vt 0.1316 0.5812
vt 0.2440 0.5832
vt 0.7024 0.3870
vt 0.2739 0.5856
vt 0.5693 0.3896
vt 0.5513 0.3900
vt 0.1839 0.5826
vt 0.2598 0.5844
vt 0.5922 0.3884
vt 0.1980 0.5547
vt 0.2080 0.5545
vt 0.6685 0.4175
vt 0.6512 0.4177
vt 0.1482 0.5544
vt 0.1633 0.5538
vt 0.1899 0.5549
vt 0.6874 0.4174
vt 0.1317 0.5546
vt 0.2304 0.5553
vt 0.2434 0.5561
vt 0.7024 0.4182
vt 0.2736 0.5581
vt 0.2895 0.5589
vt 0.5686 0.4171
vt 0.5507 0.4153
vt 0.1750 0.5544
vt 0.1829 0.5548
vt 0.2593 0.5572
vt 0.5917 0.4178
vt 0.6179 0.4176
vt 0.2187 0.5549
vt 0.6373 0.4176
vt 0.3023 0.5593
vt 0.3128 0.5590
vt 0.1304 0.5314
vt 0.1470 0.5302
vt 0.2286 0.5305
vt 0.2418 0.5314
vt 0.7024 0.4413
vt 0.6875 0.4426
vt 0.2729 0.5335
vt 0.2894 0.5344
vt 0.5649 0.4408
vt 0.5471 0.4371
vt 0.1732 0.5277
vt 0.1810 0.5276
vt 0.2581 0.5325
vt 0.5883 0.4426
vt 0.1879 0.5278
vt 0.6154 0.4430
vt 0.1618 0.5287
vt 0.2168 0.5299
vt 0.6355 0.4430
vt 0.3027 0.5347
vt 0.2060 0.5291
vt 0.6500 0.4431
vt 0.3130 0.5358
vt 0.1959 0.5281
vt 0.6680 0.4429
vt 0.1701 0.4979
vt 0.1778 0.4982
vt 0.2381 0.5008
vt 0.2549 0.5020
vt 0.5805 0.4730
vt 0.5566 0.4700
vt 0.1846 0.4983
vt 0.2703 0.5032
vt 0.6088 0.4740
vt 0.1590 0.4978
vt 0.2127 0.4990
vt 0.2246 0.4997
vt 0.6303 0.4742
vt 0.2876 0.5043
vt 0.3018 0.5047
vt 0.2020 0.4984
vt 0.6458 0.4744
vt 0.3130 0.5045
vt 0.1925 0.4983
vt 0.6652 0.4739
vt 0.1444 0.4993
vt 0.6862 0.4732
vt 0.1276 0.5009
vt 0.7024 0.4729
vt 0.5388 0.4648
vt 0.6070 0.5052
vt 0.5777 0.5033
vt 0.1543 0.4698
vt 0.1658 0.4692
vt 0.2106 0.4712
vt 0.2229 0.4719
vt 0.6290 0.5058
vt 0.2875 0.4762
vt 0.3021 0.4766
vt 0.1994 0.4704
vt 0.6449 0.5062
vt 0.3130 0.4776
vt 0.1891 0.4696
vt 0.6647 0.5055
vt 0.1387 0.4714
vt 0.1808 0.4693
vt 0.6863 0.5044
vt 0.1205 0.4728
vt 0.2367 0.4729
vt 0.7024 0.5029
vt 0.2697 0.4752
vt 0.5532 0.4985
vt 0.5346 0.4919
vt 0.1737 0.4692
vt 0.2539 0.4741
vt 0.2070 0.4398
vt 0.2199 0.4406
vt 0.6285 0.5433
vt 0.6063 0.5424
vt 0.2866 0.4439
vt 0.3016 0.4441
vt 0.1952 0.4391
vt 0.6445 0.5438
vt 0.3130 0.4439
vt 0.1841 0.4385
vt 0.6644 0.5430
vt 0.1297 0.4383
vt 0.1467 0.4375
vt 0.1753 0.4382
vt 0.6860 0.5418
vt 0.1101 0.4396
vt 0.2343 0.4416
vt 0.7024 0.5415
vt 0.2683 0.4435
vt 0.5510 0.5330
vt 0.5315 0.5248
vt 0.1591 0.4377
vt 0.1677 0.4380
vt 0.2521 0.4427
vt 0.5766 0.5394
vt 0.1679 0.4073
vt 0.1771 0.4075
vt 0.6848 0.5781
vt 0.6631 0.5795
vt 0.0967 0.4078
vt 0.1176 0.4064
vt 0.2143 0.4089
vt 0.2296 0.4098
vt 0.7024 0.5787
vt 0.2653 0.4116
vt 0.2843 0.4118
vt 0.5497 0.5674
vt 0.5298 0.5578
vt 0.1502 0.4064
vt 0.1597 0.4069
vt 0.2483 0.4108
vt 0.5757 0.5749
vt 0.6054 0.5787
vt 0.1359 0.4057
vt 0.2007 0.4080
vt 0.6275 0.5798
vt 0.3000 0.4120
vt 0.1883 0.4074
vt 0.6435 0.5804
vt 0.3130 0.4109
vt 0.1082 0.3809
vt 0.1277 0.3798
vt 0.1621 0.3809
vt 0.1717 0.3811
vt 0.6844 0.6063
vt 0.6626 0.6077
vt 0.0862 0.3824
vt 0.2103 0.3835
vt 0.2263 0.3845
vt 0.7024 0.6031
vt 0.2634 0.3864
vt 0.2829 0.3868
vt 0.5479 0.5943
vt 0.5270 0.5838
vt 0.1431 0.3799
vt 0.1535 0.3805
vt 0.2455 0.3856
vt 0.5742 0.6024
vt 0.6040 0.6068
vt 0.1961 0.3826
vt 0.6264 0.6081
vt 0.2993 0.3869
vt 0.1831 0.3817
vt 0.6428 0.6084
vt 0.3130 0.3894
vt 0.5552 0.1921
vt 0.5595 0.1766
vt 0.1551 0.7982
vt 0.1448 0.7834
vt 0.5681 0.0652
vt 0.5636 0.0471
vt 0.0897 0.7328
vt 0.0773 0.7171
vt 0.5510 0.2031
vt 0.1731 0.8545
vt 0.1682 0.8334
vt 0.5717 0.0793
vt 0.5157 0.2534
vt 0.5258 0.2379
vt 0.1790 0.8806
vt 0.5724 0.0946
vt 0.5374 0.2217
vt 0.1825 0.9040
vt 0.5725 0.1112
vt 0.5454 0.2119
vt 0.1335 0.7722
vt 0.1212 0.7622
vt 0.5697 0.1315
vt 0.5642 0.1561
vt 0.1612 0.8126
vt 0.1854 0.9310
vt 0.1054 0.7478
vt 0.1878 0.9589
vt 0.1186 0.7964
vt 0.1089 0.7817
vt 0.5448 0.1490
vt 0.5460 0.1316
vt 0.1425 0.8427
vt 0.1365 0.8282
vt 0.1586 0.9292
vt 0.1563 0.9065
vt 0.0991 0.7674
vt 0.0881 0.7504
vt 0.5414 0.1686
vt 0.1288 0.8133
vt 0.1565 0.9574
vt 0.0791 0.7363
vt 0.5376 0.1854
vt 0.5381 0.0733
vt 0.5344 0.0575
vt 0.0699 0.7205
vt 0.5336 0.1979
vt 0.1482 0.8604
vt 0.5403 0.0852
vt 0.5100 0.2474
vt 0.5161 0.2326
vt 0.1528 0.8824
vt 0.5433 0.0978
vt 0.5224 0.2196
vt 0.5452 0.1143
vt 0.5284 0.2085
vt 0.0941 0.7979
vt 0.0866 0.7843
vt 0.5232 0.1551
vt 0.5234 0.1387
vt 0.1157 0.8407
vt 0.1093 0.8280
vt 0.1297 0.9261
vt 0.1284 0.9040
vt 0.0799 0.7710
vt 0.0734 0.7571
vt 0.5212 0.1736
vt 0.1024 0.8140
vt 0.1267 0.9535
vt 0.0673 0.7430
vt 0.5183 0.1892
vt 0.5121 0.0847
vt 0.5076 0.0700
vt 0.0606 0.7266
vt 0.5148 0.2001
vt 0.1212 0.8582
vt 0.5158 0.0946
vt 0.4999 0.2453
vt 0.5029 0.2308
vt 0.1253 0.8800
vt 0.5186 0.1073
vt 0.5068 0.2190
vt 0.5214 0.1226
vt 0.5109 0.2092
vt 0.4895 0.2156
vt 0.4918 0.2077
vt 0.0655 0.7990
vt 0.0611 0.7875
vt 0.4954 0.1673
vt 0.4942 0.1517
vt 0.0808 0.8359
vt 0.0757 0.8247
vt 0.0921 0.9175
vt 0.0915 0.8957
vt 0.0575 0.7762
vt 0.0541 0.7639
vt 0.4951 0.1843
vt 0.0708 0.8126
vt 0.0891 0.9441
vt 0.0508 0.7508
vt 0.4937 0.1981
vt 0.4793 0.1004
vt 0.4745 0.0869
vt 0.0474 0.7351
vt 0.0856 0.8517
vt 0.4836 0.1096
vt 0.4851 0.2476
vt 0.4856 0.2344
vt 0.0892 0.8722
vt 0.4869 0.1218
vt 0.4873 0.2242
vt 0.4908 0.1364
vt 0.0244 0.8651
vt 0.0228 0.8471
vt 0.4316 0.1476
vt 0.4273 0.1364
vt 0.4469 0.2438
vt 0.4472 0.2345
vt 0.0250 0.8865
vt 0.4370 0.1605
vt 0.4479 0.2270
vt 0.0126 0.7923
vt 0.0115 0.7826
vt 0.4420 0.1737
vt 0.4485 0.2201
vt 0.0142 0.8020
vt 0.4453 0.1868
vt 0.0205 0.8334
vt 0.0180 0.8234
vt 0.0244 0.9073
vt 0.0104 0.7718
vt 0.4475 0.2008
vt 0.0160 0.8132
vt 0.0222 0.9334
vt 0.0095 0.7599
vt 0.4485 0.2121
vt 0.4227 0.1278
vt 0.4177 0.1147
vt 0.0082 0.7445
vt 0.4478 0.2563
vt 0.3493 0.7477
vt 0.3376 0.7416
vt 0.3437 0.7181
vt 0.3566 0.7254
vt 0.4055 0.7849
vt 0.3853 0.7834
vt 0.3994 0.7624
vt 0.4148 0.7664
vt 0.3749 0.7688
vt 0.3616 0.7563
vt 0.3704 0.7366
vt 0.3854 0.7499
vt 0.3283 0.7398
vt 0.3322 0.7130
vt 0.4146 0.7337
vt 0.4336 0.7427
vt 0.3873 0.7117
vt 0.3985 0.7225
vt 0.3406 0.6804
vt 0.3526 0.6948
vt 0.3681 0.7029
vt 0.4104 0.7087
vt 0.4308 0.7139
vt 0.3828 0.6861
vt 0.3977 0.6975
vt 0.3695 0.6785
vt 0.4383 0.7262
vt 0.3578 0.6633
vt 0.4195 0.6900
vt 0.4306 0.6991
vt 0.4013 0.6669
vt 0.4108 0.6786
vt 0.3898 0.6450
vt 0.3727 0.6527
vt 0.4122 0.6465
vt 0.4227 0.6527
vt 0.4028 0.6440
vt 0.4525 0.7196
vt 0.4505 0.7325
vt 0.4339 0.6639
vt 0.4509 0.7045
vt 0.4431 0.6781
vt 0.4032 0.8202
vt 0.3893 0.8185
vt 0.4037 0.8553
vt 0.3933 0.8519
vt 0.4034 0.8874
vt 0.3916 0.8796
vt 0.4505 0.6784
vt 0.4591 0.6903
vt 0.4731 0.7182
vt 0.4645 0.7261
vt 0.4881 0.6950
vt 0.4918 0.7105
vt 0.3213 0.7128
vt 0.3251 0.6822
vt 0.3198 0.7393
vt 0.5061 0.6909
vt 0.5108 0.7051
vt 0.5253 0.6822
vt 0.5296 0.6947
vt 0.8668 0.2891
vt 0.8485 0.2790
vt 0.8554 0.2664
vt 0.8733 0.2783
vt 0.8247 0.2696
vt 0.8310 0.2556
vt 0.7976 0.2649
vt 0.8094 0.2506
vt 0.7745 0.2670
vt 0.7967 0.2382
vt 0.7615 0.2619
vt 0.7634 0.2475
vt 0.7379 0.2675
vt 0.7382 0.2527
vt 0.7172 0.2686
vt 0.7158 0.2539
vt 0.4020 0.9217
vt 0.3865 0.9112
vt 0.4022 0.9592
vt 0.3880 0.9516
vt 0.8063 0.0406
vt 0.8014 0.0593
vt 0.7892 0.0514
vt 0.7941 0.0304
vt 0.7965 0.0744
vt 0.7782 0.0696
vt 0.7921 0.0977
vt 0.7689 0.0892
vt 0.7893 0.1207
vt 0.7695 0.1221
vt 0.7864 0.1497
vt 0.7714 0.1515
vt 0.7847 0.1794
vt 0.7687 0.1808
vt 0.7850 0.2057
vt 0.7643 0.2085
vt 0.7872 0.2245
vt 0.7611 0.2267
vt 0.3606 0.7861
vt 0.3481 0.7783
vt 0.3276 0.7693
vt 0.3195 0.7667
vt 0.3736 0.7961
vt 0.3367 0.7725
vt 0.3491 0.8126
vt 0.3372 0.8076
vt 0.3279 0.8043
vt 0.3198 0.8036
vt 0.3627 0.8210
vt 0.3769 0.8294
vt 0.3645 0.8549
vt 0.3505 0.8449
vt 0.3787 0.8645
vt 0.3382 0.8387
vt 0.3285 0.8347
vt 0.3201 0.8342
vt 0.5068 0.7358
vt 0.4885 0.7455
vt 0.4780 0.7528
vt 0.4393 0.7942
vt 0.4351 0.8115
vt 0.8188 0.0608
vt 0.8145 0.0747
vt 0.4671 0.7633
vt 0.4543 0.7812
vt 0.5403 0.7095
vt 0.5241 0.7259
vt 0.8074 0.1694
vt 0.8070 0.1948
vt 0.4192 0.9267
vt 0.4194 0.9599
vt 0.8077 0.1181
vt 0.8052 0.1420
vt 0.8358 0.2313
vt 0.8485 0.2353
vt 0.4286 0.8348
vt 0.4222 0.8654
vt 0.8098 0.0961
vt 0.8684 0.2485
vt 0.8819 0.2622
vt 0.8145 0.2113
vt 0.8213 0.2243
vt 0.8228 0.0443
vt 0.4211 0.8952
vt 0.7180 0.2279
vt 0.7418 0.2271
vt 0.7185 0.2090
vt 0.7434 0.2073
vt 0.7198 0.1807
vt 0.7467 0.1792
vt 0.7237 0.1514
vt 0.7500 0.1503
vt 0.7266 0.1244
vt 0.7516 0.1240
vt 0.7330 0.1032
vt 0.7519 0.0984
vt 0.4399 0.6471
vt 0.4484 0.6529
vt 0.8205 0.2961
vt 0.7950 0.2920
vt 0.7173 0.2953
vt 0.3532 0.6453
vt 0.3676 0.6379
vt 0.3239 0.6592
vt 0.3365 0.6569
vt 0.8610 0.3114
vt 0.8427 0.3038
vt 0.7551 0.2937
vt 0.7374 0.2943
vt 0.4799 0.6699
vt 0.4964 0.6668
vt 0.3847 0.6318
vt 0.3973 0.6310
vt 0.7729 0.2936
vt 0.4088 0.6324
vt 0.4204 0.6369
vt 0.4576 0.6628
vt 0.4324 0.6441
vt 0.5150 0.6609
vt 0.3642 0.6221
vt 0.3809 0.6202
vt 0.8373 0.3410
vt 0.8139 0.3359
vt 0.4359 0.6255
vt 0.4428 0.6262
vt 0.3515 0.6242
vt 0.7864 0.3323
vt 0.4488 0.6257
vt 0.4677 0.6311
vt 0.3933 0.6197
vt 0.4060 0.6207
vt 0.7644 0.3327
vt 0.3230 0.6271
vt 0.3351 0.6265
vt 0.4169 0.6211
vt 0.7528 0.3338
vt 0.4293 0.6230
vt 0.7356 0.3342
vt 0.4842 0.6313
vt 0.7162 0.3347
vt 0.5019 0.6269
vt 0.8556 0.3461
vt 0.4415 0.6103
vt 0.4473 0.6097
vt 0.3645 0.6111
vt 0.3818 0.6099
vt 0.8357 0.3648
vt 0.8118 0.3618
vt 0.4348 0.6103
vt 0.3517 0.6121
vt 0.7838 0.3597
vt 0.4633 0.6075
vt 0.3937 0.6092
vt 0.4056 0.6093
vt 0.7651 0.3596
vt 0.3230 0.6133
vt 0.3352 0.6130
vt 0.4163 0.6091
vt 0.7531 0.3598
vt 0.4275 0.6094
vt 0.7359 0.3599
vt 0.4794 0.6078
vt 0.7163 0.3602
vt 0.4969 0.6051
vt 0.8541 0.3673
vt 0.4499 0.5822
vt 0.4624 0.5817
vt 0.3949 0.5824
vt 0.4066 0.5822
vt 0.7865 0.3873
vt 0.7672 0.3872
vt 0.3237 0.5867
vt 0.3364 0.5864
vt 0.4173 0.5820
vt 0.7533 0.3874
vt 0.3132 0.5867
vt 0.3132 0.5590
vt 0.3237 0.5593
vt 0.3237 0.5867
vt 0.4272 0.5822
vt 0.7362 0.3875
vt 0.4777 0.5822
vt 0.4352 0.5826
vt 0.7173 0.3875
vt 0.4944 0.5812
vt 0.3820 0.5832
vt 0.3521 0.5856
vt 0.8534 0.3900
vt 0.8354 0.3896
vt 0.4422 0.5826
vt 0.3662 0.5844
vt 0.8125 0.3884
vt 0.4180 0.5545
vt 0.4280 0.5547
vt 0.7535 0.4177
vt 0.7362 0.4175
vt 0.4627 0.5538
vt 0.4778 0.5544
vt 0.4361 0.5549
vt 0.7173 0.4174
vt 0.4943 0.5546
vt 0.3826 0.5561
vt 0.3956 0.5553
vt 0.3365 0.5589
vt 0.3524 0.5581
vt 0.8540 0.4153
vt 0.8361 0.4171
vt 0.4431 0.5548
vt 0.4510 0.5544
vt 0.3667 0.5572
vt 0.8131 0.4178
vt 0.7868 0.4176
vt 0.4073 0.5549
vt 0.7674 0.4176
vt 0.3233 0.5347
vt 0.4790 0.5302
vt 0.4956 0.5314
vt 0.3842 0.5314
vt 0.3974 0.5305
vt 0.7172 0.4426
vt 0.3366 0.5344
vt 0.3531 0.5335
vt 0.8576 0.4371
vt 0.8398 0.4408
vt 0.4450 0.5276
vt 0.4528 0.5277
vt 0.3679 0.5325
vt 0.8164 0.4426
vt 0.4381 0.5278
vt 0.7894 0.4430
vt 0.4642 0.5287
vt 0.4092 0.5299
vt 0.7692 0.4430
vt 0.4200 0.5291
vt 0.7547 0.4431
vt 0.4301 0.5281
vt 0.7368 0.4429
vt 0.4482 0.4982
vt 0.4559 0.4979
vt 0.3711 0.5020
vt 0.3879 0.5008
vt 0.8481 0.4700
vt 0.8242 0.4730
vt 0.4414 0.4983
vt 0.3557 0.5032
vt 0.7959 0.4740
vt 0.4670 0.4978
vt 0.4014 0.4997
vt 0.4133 0.4990
vt 0.7745 0.4742
vt 0.3242 0.5047
vt 0.3384 0.5043
vt 0.4240 0.4984
vt 0.7589 0.4744
vt 0.4336 0.4983
vt 0.7395 0.4739
vt 0.4816 0.4993
vt 0.7185 0.4732
vt 0.4984 0.5009
vt 0.8659 0.4648
vt 0.8270 0.5033
vt 0.7977 0.5052
vt 0.4603 0.4692
vt 0.4717 0.4698
vt 0.4031 0.4719
vt 0.4154 0.4712
vt 0.7757 0.5058
vt 0.3239 0.4766
vt 0.3385 0.4762
vt 0.4266 0.4704
vt 0.7598 0.5062
vt 0.4369 0.4696
vt 0.7400 0.5055
vt 0.4873 0.4714
vt 0.4452 0.4693
vt 0.7184 0.5044
vt 0.5055 0.4728
vt 0.3893 0.4729
vt 0.3563 0.4752
vt 0.8701 0.4919
vt 0.8515 0.4985
vt 0.4523 0.4692
vt 0.3721 0.4741
vt 0.4061 0.4406
vt 0.4190 0.4398
vt 0.7984 0.5424
vt 0.7762 0.5433
vt 0.3244 0.4441
vt 0.3394 0.4439
vt 0.4308 0.4391
vt 0.7602 0.5438
vt 0.4419 0.4385
vt 0.7404 0.5430
vt 0.4794 0.4375
vt 0.4963 0.4383
vt 0.4507 0.4382
vt 0.7187 0.5418
vt 0.5159 0.4396
vt 0.3917 0.4416
vt 0.3577 0.4435
vt 0.8732 0.5248
vt 0.8538 0.5330
vt 0.4583 0.4380
vt 0.4669 0.4377
vt 0.3739 0.4427
vt 0.8282 0.5394
vt 0.4489 0.4075
vt 0.4581 0.4073
vt 0.7416 0.5795
vt 0.7199 0.5781
vt 0.5085 0.4064
vt 0.5293 0.4078
vt 0.3964 0.4098
vt 0.4117 0.4089
vt 0.3417 0.4118
vt 0.3607 0.4116
vt 0.8750 0.5578
vt 0.8550 0.5674
vt 0.4663 0.4069
vt 0.4758 0.4064
vt 0.3777 0.4108
vt 0.8290 0.5749
vt 0.7993 0.5787
vt 0.4901 0.4057
vt 0.4253 0.4080
vt 0.7772 0.5798
vt 0.3260 0.4120
vt 0.4377 0.4074
vt 0.7613 0.5804
vt 0.4983 0.3798
vt 0.5178 0.3809
vt 0.4543 0.3811
vt 0.4639 0.3809
vt 0.7421 0.6077
vt 0.7203 0.6063
vt 0.5398 0.3824
vt 0.3997 0.3845
vt 0.4157 0.3835
vt 0.3431 0.3868
vt 0.3626 0.3864
vt 0.8777 0.5838
vt 0.8568 0.5943
vt 0.4725 0.3805
vt 0.4829 0.3799
vt 0.3805 0.3856
vt 0.8305 0.6024
vt 0.8007 0.6068
vt 0.4299 0.3826
vt 0.7783 0.6081
vt 0.3267 0.3869
vt 0.4429 0.3817
vt 0.7619 0.6084
vt 0.8452 0.1766
vt 0.8495 0.1921
vt 0.4812 0.7834
vt 0.4709 0.7982
vt 0.8412 0.0471
vt 0.8366 0.0652
vt 0.5487 0.7171
vt 0.5363 0.7328
vt 0.8537 0.2031
vt 0.4578 0.8334
vt 0.4529 0.8545
vt 0.8330 0.0793
vt 0.8789 0.2379
vt 0.8890 0.2534
vt 0.4470 0.8806
vt 0.8323 0.0946
vt 0.8673 0.2217
vt 0.4435 0.9040
vt 0.8322 0.1112
vt 0.8593 0.2119
vt 0.5048 0.7622
vt 0.4925 0.7722
vt 0.8350 0.1315
vt 0.8405 0.1561
vt 0.4648 0.8126
vt 0.4406 0.9310
vt 0.5206 0.7478
vt 0.4382 0.9589
vt 0.5171 0.7817
vt 0.5074 0.7964
vt 0.8587 0.1316
vt 0.8600 0.1490
vt 0.4895 0.8282
vt 0.4835 0.8427
vt 0.4697 0.9065
vt 0.4674 0.9292
vt 0.5379 0.7504
vt 0.5269 0.7674
vt 0.8633 0.1686
vt 0.4972 0.8133
vt 0.4695 0.9574
vt 0.5469 0.7363
vt 0.8671 0.1854
vt 0.8703 0.0575
vt 0.8666 0.0733
vt 0.5561 0.7205
vt 0.8711 0.1979
vt 0.4778 0.8604
vt 0.8644 0.0852
vt 0.8886 0.2326
vt 0.8947 0.2474
vt 0.4733 0.8824
vt 0.8614 0.0978
vt 0.8823 0.2196
vt 0.8596 0.1143
vt 0.8763 0.2085
vt 0.5394 0.7843
vt 0.5319 0.7979
vt 0.8813 0.1387
vt 0.8815 0.1551
vt 0.5167 0.8280
vt 0.5103 0.8407
vt 0.4976 0.9040
vt 0.4963 0.9261
vt 0.5526 0.7571
vt 0.5461 0.7710
vt 0.8835 0.1736
vt 0.5236 0.8140
vt 0.4993 0.9535
vt 0.5587 0.7430
vt 0.8864 0.1892
vt 0.8971 0.0700
vt 0.8926 0.0847
vt 0.5654 0.7266
vt 0.8900 0.2001
vt 0.5048 0.8582
vt 0.8889 0.0946
vt 0.9018 0.2308
vt 0.9049 0.2453
vt 0.5007 0.8800
vt 0.8861 0.1073
vt 0.8979 0.2190
vt 0.8833 0.1226
vt 0.8938 0.2092
vt 0.9130 0.2077
vt 0.9152 0.2156
vt 0.5649 0.7875
vt 0.5605 0.7990
vt 0.9105 0.1517
vt 0.9094 0.1673
vt 0.5503 0.8247
vt 0.5452 0.8359
vt 0.5345 0.8957
vt 0.5339 0.9175
vt 0.5719 0.7639
vt 0.5685 0.7762
vt 0.9096 0.1843
vt 0.5553 0.8126
vt 0.5369 0.9441
vt 0.5752 0.7508
vt 0.9110 0.1981
vt 0.9302 0.0869
vt 0.9254 0.1004
vt 0.5787 0.7351
vt 0.5404 0.8517
vt 0.9211 0.1096
vt 0.9191 0.2344
vt 0.9196 0.2476
vt 0.5368 0.8722
vt 0.9178 0.1218
vt 0.9174 0.2242
vt 0.9139 0.1364
vt 0.6032 0.8471
vt 0.6016 0.8651
vt 0.9774 0.1364
vt 0.9731 0.1476
vt 0.9575 0.2345
vt 0.9578 0.2438
vt 0.6010 0.8865
vt 0.9677 0.1605
vt 0.9568 0.2270
vt 0.6146 0.7826
vt 0.6134 0.7923
vt 0.9627 0.1737
vt 0.9562 0.2201
vt 0.6118 0.8020
vt 0.9594 0.1868
vt 0.6081 0.8234
vt 0.6055 0.8334
vt 0.6016 0.9073
vt 0.6156 0.7718
vt 0.9572 0.2008
vt 0.6100 0.8132
vt 0.6038 0.9334
vt 0.6165 0.7599
vt 0.9563 0.2121
vt 0.9870 0.1147
vt 0.9820 0.1278
vt 0.6178 0.7445
vt 0.9569 0.2563
f 1/1 2/2 3/3 4/4
f 5/5 6/6 7/7 8/8
f 9/9 10/10 11/11 12/12
f 4/4 3/3 13/13 14/14
f 8/8 7/7 10/10 9/9
f 12/12 11/11 2/2 1/1
f 6/6 15/15 16/16 7/7
f 10/10 17/17 18/18 11/11
f 3/3 19/19 20/20 13/13
f 7/7 16/16 17/17 10/10
f 11/11 18/18 21/21 2/2
f 2/2 21/21 19/19 3/3
f 16/16 22/22 23/23 17/17
f 18/18 24/24 25/25 21/21
f 21/21 25/25 26/26 19/19
f 15/15 27/27 22/22 16/16
f 17/17 23/23 24/24 18/18
f 19/19 26/26 28/28 20/20
f 22/22 29/29 30/30 23/23
f 24/24 31/31 32/32 25/25
f 25/25 32/32 33/33 26/26
f 23/23 30/30 31/31 24/24
f 26/26 33/33 34/34 28/28
f 31/31 35/35 36/36 32/32
f 32/32 36/36 37/37 33/33
f 15/15 38/38 39/39 27/27
f 30/30 40/40 35/35 31/31
f 27/27 39/39 41/41 22/22
f 22/22 41/41 42/42 29/29
f 29/29 42/42 40/40 30/30
f 5/5 8/8 43/43 44/44
f 44/44 43/43 45/45 46/46
f 46/46 45/45 47/47 48/48
f 42/42 41/41 49/49 50/50
f 39/39 38/38 51/51 52/52
f 41/41 39/39 52/52 49/49
f 49/49 52/52 53/53 54/54
f 13/13 20/20 55/55 56/56
f 14/14 13/13 56/56 57/57
f 56/56 55/55 58/58 59/59
f 57/57 56/56 59/59 60/60
f 54/54 53/53 61/61 62/62
f 62/62 61/61 63/63 64/64
f 64/65 63/66 65/67 66/68
f 66/68 65/67 67/69 68/70
f 68/70 67/69 69/71 70/72
f 70/72 69/71 71/73 72/74
f 72/74 71/73 73/75 74/76
f 74/76 73/75 75/77 76/78
f 76/78 75/77 77/79 78/80
f 78/80 77/79 79/81 80/82
f 48/48 47/47 81/83 82/84
f 82/84 81/83 83/85 84/86
f 84/87 83/88 85/89 86/90
f 86/90 85/89 87/91 88/92
f 88/92 87/91 89/93 90/94
f 90/94 89/93 91/95 92/96
f 92/96 91/95 93/97 94/98
f 94/98 93/97 95/99 96/100
f 96/100 95/99 97/101 98/102
f 98/102 97/101 99/103 100/104
f 73/75 71/73 100/104 99/103
f 12/12 1/1 101/105 102/106
f 14/14 57/57 103/107 104/108
f 9/9 12/12 102/106 105/109
f 1/1 4/4 106/110 101/105
f 57/57 60/60 107/111 103/107
f 4/4 14/14 104/108 106/110
f 101/105 106/110 108/112 109/113
f 104/108 103/107 110/114 111/115
f 106/110 104/108 111/115 108/112
f 103/107 107/111 112/116 110/114
f 102/106 101/105 109/113 113/117
f 105/109 102/106 113/117 114/118
f 113/117 109/113 115/119 116/120
f 114/118 113/117 116/120 117/121
f 109/113 108/112 118/122 115/119
f 111/115 110/114 119/123 120/124
f 108/112 111/115 120/124 118/122
f 110/114 112/116 121/125 119/123
f 53/53 52/52 122/126 123/127
f 52/52 51/51 124/128 122/126
f 6/6 5/5 125/129 126/130
f 86/90 88/92 127/131 128/132
f 38/38 15/15 129/133 130/134
f 63/63 61/61 131/135 132/136
f 96/100 98/102 133/137 134/138
f 82/84 84/86 135/139 136/140
f 92/96 94/98 137/141 138/142
f 69/71 67/69 139/143 140/144
f 44/44 46/46 141/145 142/146
f 88/92 90/94 143/147 127/131
f 65/67 63/66 132/148 144/149
f 98/102 100/104 145/150 133/137
f 51/51 38/38 130/134 124/128
f 15/15 6/6 126/130 129/133
f 100/104 71/73 146/151 145/150
f 84/87 86/90 128/132 135/152
f 61/61 53/53 123/127 131/135
f 94/98 96/100 134/138 137/141
f 71/73 69/71 140/144 146/151
f 46/46 48/48 147/153 141/145
f 48/48 82/84 136/140 147/153
f 90/94 92/96 138/142 143/147
f 5/5 44/44 142/146 125/129
f 67/69 65/67 144/149 139/143
f 79/81 77/79 148/154 149/155
f 77/79 75/77 150/156 148/154
f 149/155 148/154 151/157 152/158
f 148/154 150/156 153/159 151/157
f 152/158 151/157 154/160 155/161
f 151/157 153/159 156/162 154/160
f 155/161 154/160 157/163 158/164
f 154/160 156/162 159/165 157/163
f 158/164 157/163 160/166 161/167
f 157/163 159/165 162/168 160/166
f 161/167 160/166 163/169 164/170
f 160/166 162/168 165/171 163/169
f 75/77 73/75 99/103 150/156
f 97/101 153/159 150/156 99/103
f 95/99 156/162 153/159 97/101
f 93/97 159/165 156/162 95/99
f 91/95 162/168 159/165 93/97
f 89/93 165/171 162/168 91/95
f 42/42 50/50 166/172 167/173
f 68/70 70/72 168/174 169/175
f 78/80 80/82 170/176 171/177
f 28/28 34/34 172/178 173/179
f 55/55 20/20 174/180 175/181
f 64/65 66/68 176/182 177/183
f 74/76 76/78 178/184 179/185
f 54/54 62/62 180/186 181/187
f 33/33 37/37 182/188 183/189
f 70/72 72/74 184/190 168/174
f 37/37 36/36 185/191 182/188
f 20/20 28/28 173/179 174/180
f 36/36 35/35 186/192 185/191
f 66/68 68/70 169/175 176/182
f 76/78 78/80 171/177 178/184
f 49/49 54/54 181/187 187/193
f 50/50 49/49 187/193 166/172
f 35/35 40/40 188/194 186/192
f 58/58 55/55 175/181 189/195
f 62/62 64/64 177/196 180/186
f 72/74 74/76 179/185 184/190
f 34/34 33/33 183/189 172/178
f 40/40 42/42 167/173 188/194
f 172/178 183/189 190/197 191/198
f 176/182 169/175 192/199 193/200
f 167/173 166/172 194/201 195/202
f 173/179 172/178 191/198 196/203
f 169/175 168/174 197/204 192/199
f 187/193 181/187 198/205 199/206
f 182/188 185/191 200/207 201/208
f 168/174 184/190 202/209 197/204
f 175/181 174/180 203/210 204/211
f 185/191 186/192 205/212 200/207
f 184/190 179/185 206/213 202/209
f 189/195 175/181 204/211 207/214
f 186/192 188/194 208/215 205/212
f 179/185 178/184 209/216 206/213
f 181/187 180/186 210/217 198/205
f 188/194 167/173 195/202 208/215
f 178/184 171/177 211/218 209/216
f 180/186 177/196 212/219 210/217
f 183/189 182/188 201/208 190/197
f 171/177 170/176 213/220 211/218
f 174/180 173/179 196/203 203/210
f 177/183 176/182 193/200 212/221
f 166/172 187/193 199/206 194/201
f 9/9 105/109 43/43 8/8
f 43/43 105/109 114/118 45/45
f 45/45 114/118 117/121 47/47
f 194/201 199/206 214/222 215/223
f 191/198 190/197 216/224 217/225
f 193/200 192/199 218/226 219/227
f 195/202 194/201 215/223 220/228
f 196/203 191/198 217/225 221/229
f 192/199 197/204 222/230 218/226
f 199/206 198/205 223/231 214/222
f 201/208 200/207 224/232 225/233
f 197/204 202/209 226/234 222/230
f 204/211 203/210 227/235 228/236
f 200/207 205/212 229/237 224/232
f 202/209 206/213 230/238 226/234
f 207/214 204/211 228/236 231/239
f 205/212 208/215 232/240 229/237
f 206/213 209/216 233/241 230/238
f 198/205 210/217 234/242 223/231
f 208/215 195/202 220/228 232/240
f 209/216 211/218 235/243 233/241
f 210/217 212/219 236/244 234/242
f 190/197 201/208 225/233 216/224
f 211/218 213/220 237/245 235/243
f 203/210 196/203 221/229 227/235
f 212/221 193/200 219/227 236/246
f 214/222 223/231 238/247 239/248
f 225/233 224/232 240/249 241/250
f 222/230 226/234 242/251 243/252
f 228/236 227/235 244/253 245/254
f 224/232 229/237 246/255 240/249
f 226/234 230/238 247/256 242/251
f 231/239 228/236 245/254 248/257
f 229/237 232/240 249/258 246/255
f 230/238 233/241 250/259 247/256
f 223/231 234/242 251/260 238/247
f 232/240 220/228 252/261 249/258
f 233/241 235/243 253/262 250/259
f 234/242 236/244 254/263 251/260
f 216/224 225/233 241/250 255/264
f 235/243 237/245 256/265 253/262
f 227/235 221/229 257/266 244/253
f 236/246 219/227 258/267 254/268
f 215/223 214/222 239/248 259/269
f 217/225 216/224 255/264 260/270
f 219/227 218/226 261/271 258/267
f 220/228 215/223 259/269 252/261
f 221/229 217/225 260/270 257/266
f 218/226 222/230 243/252 261/271
f 246/255 249/258 262/272 263/273
f 247/256 250/259 264/274 265/275
f 238/247 251/260 266/276 267/277
f 249/258 252/261 268/278 262/272
f 250/259 253/262 269/279 264/274
f 251/260 254/263 270/280 266/276
f 255/264 241/250 271/281 272/282
f 253/262 256/265 273/283 269/279
f 244/253 257/266 274/284 275/285
f 254/268 258/267 276/286 270/287
f 259/269 239/248 277/288 278/289
f 260/270 255/264 272/282 279/290
f 258/267 261/271 280/291 276/286
f 252/261 259/269 278/289 268/278
f 257/266 260/270 279/290 274/284
f 261/271 243/252 281/292 280/291
f 239/248 238/247 267/277 277/288
f 241/250 240/249 282/293 271/281
f 243/252 242/251 283/294 281/292
f 245/254 244/253 275/285 284/295
f 240/249 246/255 263/273 282/293
f 242/251 247/256 265/275 283/294
f 248/257 245/254 284/295 285/296
f 266/276 270/280 286/297 287/298
f 272/282 271/281 288/299 289/300
f 269/279 273/283 290/301 291/302
f 275/285 274/284 292/303 293/304
f 270/287 276/286 294/305 286/306
f 278/289 277/288 295/307 296/308
f 279/290 272/282 289/300 297/309
f 276/286 280/291 298/310 294/305
f 268/278 278/289 296/308 299/311
f 274/284 279/290 297/309 292/303
f 280/291 281/292 300/312 298/310
f 277/288 267/277 301/313 295/307
f 271/281 282/293 302/314 288/299
f 281/292 283/294 303/315 300/312
f 284/295 275/285 293/304 304/316
f 282/293 263/273 305/317 302/314
f 283/294 265/275 306/318 303/315
f 285/296 284/295 304/316 307/319
f 263/273 262/272 308/320 305/317
f 265/275 264/274 309/321 306/318
f 267/277 266/276 287/298 301/313
f 262/272 268/278 299/311 308/320
f 264/274 269/279 291/302 309/321
f 296/308 295/307 310/322 311/323
f 297/309 289/300 312/324 313/325
f 294/305 298/310 314/326 315/327
f 299/311 296/308 311/323 316/328
f 292/303 297/309 313/325 317/329
f 298/310 300/312 318/330 314/326
f 295/307 301/313 319/331 310/322
f 288/299 302/314 320/332 321/333
f 300/312 303/315 322/334 318/330
f 304/316 293/304 323/335 324/336
f 302/314 305/317 325/337 320/332
f 303/315 306/318 326/338 322/334
f 307/319 304/316 324/336 327/339
f 305/317 308/320 328/340 325/337
f 306/318 309/321 329/341 326/338
f 301/313 287/298 330/342 319/331
f 308/320 299/311 316/328 328/340
f 309/321 291/302 331/343 329/341
f 287/298 286/297 332/344 330/342
f 289/300 288/299 321/333 312/324
f 291/302 290/301 333/345 331/343
f 293/304 292/303 317/329 323/335
f 286/306 294/305 315/327 332/346
f 314/326 318/330 334/347 335/348
f 310/322 319/331 336/349 337/350
f 321/333 320/332 338/351 339/352
f 318/330 322/334 340/353 334/347
f 324/336 323/335 341/354 342/355
f 320/332 325/337 343/356 338/351
f 322/334 326/338 344/357 340/353
f 327/339 324/336 342/355 345/358
f 325/337 328/340 346/359 343/356
f 326/338 329/341 347/360 344/357
f 319/331 330/342 348/361 336/349
f 328/340 316/328 349/362 346/359
f 329/341 331/343 350/363 347/360
f 330/342 332/344 351/364 348/361
f 312/324 321/333 339/352 352/365
f 331/343 333/345 353/366 350/363
f 323/335 317/329 354/367 341/354
f 332/346 315/327 355/368 351/369
f 311/323 310/322 337/350 356/370
f 313/325 312/324 352/365 357/371
f 315/327 314/326 335/348 355/368
f 316/328 311/323 356/370 349/362
f 317/329 313/325 357/371 354/367
f 339/352 338/351 358/372 359/373
f 334/347 340/353 360/374 361/375
f 342/355 341/354 362/376 363/377
f 338/351 343/356 364/378 358/372
f 340/353 344/357 365/379 360/374
f 345/358 342/355 363/377 366/380
f 343/356 346/359 367/381 364/378
f 344/357 347/360 368/382 365/379
f 336/349 348/361 369/383 370/384
f 346/359 349/362 371/385 367/381
f 347/360 350/363 372/386 368/382
f 348/361 351/364 373/387 369/383
f 352/365 339/352 359/373 374/388
f 350/363 353/366 375/389 372/386
f 341/354 354/367 376/390 362/376
f 351/369 355/368 377/391 373/392
f 356/370 337/350 378/393 379/394
f 357/371 352/365 374/388 380/395
f 355/368 335/348 381/396 377/391
f 349/362 356/370 379/394 371/385
f 354/367 357/371 380/395 376/390
f 335/348 334/347 361/375 381/396
f 337/350 336/349 370/384 378/393
f 367/381 371/385 382/397 383/398
f 368/382 372/386 384/399 385/400
f 369/383 373/387 386/401 387/402
f 374/388 359/373 388/403 389/404
f 372/386 375/389 390/405 384/399
f 362/376 376/390 391/406 392/407
f 373/392 377/391 393/408 386/409
f 379/394 378/393 394/410 395/411
f 380/395 374/388 389/404 396/412
f 377/391 381/396 397/413 393/408
f 371/385 379/394 395/411 382/397
f 376/390 380/395 396/412 391/406
f 381/396 361/375 398/414 397/413
f 378/393 370/384 399/415 394/410
f 359/373 358/372 400/416 388/403
f 361/375 360/374 401/417 398/414
f 363/377 362/376 392/407 402/418
f 358/372 364/378 403/419 400/416
f 360/374 365/379 404/420 401/417
f 366/380 363/377 402/418 405/421
f 364/378 367/381 383/398 403/419
f 365/379 368/382 385/400 404/420
f 370/384 369/383 387/402 399/415
f 399/415 387/402 406/422 407/423
f 383/398 382/397 408/424 409/425
f 385/400 384/399 410/426 411/427
f 387/402 386/401 412/428 406/422
f 389/404 388/403 413/429 414/430
f 384/399 390/405 415/431 410/426
f 392/407 391/406 416/432 417/433
f 386/409 393/408 418/434 412/435
f 395/411 394/410 419/436 420/437
f 396/412 389/404 414/430 421/438
f 393/408 397/413 422/439 418/434
f 382/397 395/411 420/437 408/424
f 391/406 396/412 421/438 416/432
f 397/413 398/414 423/440 422/439
f 394/410 399/415 407/423 419/436
f 388/403 400/416 424/441 413/429
f 398/414 401/417 425/442 423/440
f 402/418 392/407 417/433 426/443
f 400/416 403/419 427/444 424/441
f 401/417 404/420 428/445 425/442
f 405/421 402/418 426/443 429/446
f 403/419 383/398 409/425 427/444
f 404/420 385/400 411/427 428/445
f 133/137 145/150 430/447 431/448
f 130/134 129/133 432/449 433/450
f 135/152 128/132 434/451 435/452
f 132/136 131/135 436/453 437/454
f 145/150 146/151 438/455 430/447
f 125/129 142/146 439/456 440/457
f 128/132 127/131 441/458 434/451
f 144/149 132/148 437/459 442/460
f 142/146 141/145 443/461 439/456
f 127/131 143/147 444/462 441/458
f 139/143 144/149 442/460 445/463
f 141/145 147/153 446/464 443/461
f 143/147 138/142 447/465 444/462
f 140/144 139/143 445/463 448/466
f 122/126 124/128 449/467 450/468
f 138/142 137/141 451/469 447/465
f 146/151 140/144 448/466 438/455
f 124/128 130/134 433/450 449/467
f 137/141 134/138 452/470 451/469
f 126/130 125/129 440/457 453/471
f 147/153 136/140 454/472 446/464
f 123/127 122/126 450/468 455/473
f 134/138 133/137 431/448 452/470
f 129/133 126/130 453/471 432/449
f 136/140 135/139 435/474 454/472
f 131/135 123/127 455/473 436/453
f 449/467 433/450 456/475 457/476
f 451/469 452/470 458/477 459/478
f 453/471 440/457 460/479 461/480
f 446/464 454/472 462/481 463/482
f 455/473 450/468 464/483 465/484
f 452/470 431/448 466/485 458/477
f 432/449 453/471 461/480 467/486
f 454/472 435/474 468/487 462/481
f 436/453 455/473 465/484 469/488
f 431/448 430/447 470/489 466/485
f 433/450 432/449 467/486 456/475
f 435/452 434/451 471/490 468/491
f 437/454 436/453 469/488 472/492
f 430/447 438/455 473/493 470/489
f 440/457 439/456 474/494 460/479
f 434/451 441/458 475/495 471/490
f 442/460 437/459 472/496 476/497
f 439/456 443/461 477/498 474/494
f 441/458 444/462 478/499 475/495
f 445/463 442/460 476/497 479/500
f 443/461 446/464 463/482 477/498
f 444/462 447/465 480/501 478/499
f 448/466 445/463 479/500 481/502
f 450/468 449/467 457/476 464/483
f 447/465 451/469 459/478 480/501
f 438/455 448/466 481/502 473/493
f 457/476 456/475 482/503 483/504
f 459/478 458/477 484/505 485/506
f 461/480 460/479 486/507 487/508
f 463/482 462/481 488/509 489/510
f 465/484 464/483 490/511 491/512
f 458/477 466/485 492/513 484/505
f 467/486 461/480 487/508 493/514
f 462/481 468/487 494/515 488/509
f 469/488 465/484 491/512 495/516
f 466/485 470/489 496/517 492/513
f 456/475 467/486 493/514 482/503
f 468/491 471/490 497/518 494/519
f 472/492 469/488 495/516 498/520
f 470/489 473/493 499/521 496/517
f 460/479 474/494 500/522 486/507
f 471/490 475/495 501/523 497/518
f 476/497 472/496 498/524 502/525
f 474/494 477/498 503/526 500/522
f 475/495 478/499 504/527 501/523
f 479/500 476/497 502/525 505/528
f 477/498 463/482 489/510 503/526
f 478/499 480/501 506/529 504/527
f 481/502 479/500 505/528 507/530
f 464/483 457/476 483/504 490/511
f 480/501 459/478 485/506 506/529
f 473/493 481/502 507/530 499/521
f 499/521 507/530 508/531 509/532
f 483/504 482/503 510/533 511/534
f 485/506 484/505 512/535 513/536
f 487/508 486/507 514/537 515/538
f 489/510 488/509 516/539 517/540
f 491/512 490/511 518/541 519/542
f 484/505 492/513 520/543 512/535
f 493/514 487/508 515/538 521/544
f 488/509 494/515 522/545 516/539
f 495/516 491/512 519/542 523/546
f 492/513 496/517 524/547 520/543
f 482/503 493/514 521/544 510/533
f 494/519 497/518 525/548 522/549
f 498/520 495/516 523/546 526/550
f 496/517 499/521 509/532 524/547
f 486/507 500/522 527/551 514/537
f 497/518 501/523 528/552 525/548
f 502/525 498/524 526/553 529/554
f 500/522 503/526 530/555 527/551
f 501/523 504/527 531/556 528/552
f 505/528 502/525 529/554 532/557
f 503/526 489/510 517/540 530/555
f 504/527 506/529 533/558 531/556
f 507/530 505/528 532/557 508/531
f 490/511 483/504 511/534 518/541
f 506/529 485/506 513/536 533/558
f 527/551 530/555 534/559 535/560
f 528/552 531/556 536/561 537/562
f 532/557 529/554 538/563 539/564
f 530/555 517/540 540/565 534/559
f 531/556 533/558 541/566 536/561
f 508/531 532/557 539/564 542/567
f 518/541 511/534 543/568 544/569
f 533/558 513/536 545/570 541/566
f 509/532 508/531 542/567 546/571
f 511/534 510/533 547/572 543/568
f 513/536 512/535 548/573 545/570
f 515/538 514/537 549/574 550/575
f 517/540 516/539 551/576 540/565
f 519/542 518/541 544/569 552/577
f 512/535 520/543 553/578 548/573
f 521/544 515/538 550/575 554/579
f 516/539 522/545 555/580 551/576
f 523/546 519/542 552/577 556/581
f 520/543 524/547 557/582 553/578
f 510/533 521/544 554/579 547/572
f 522/549 525/548 558/583 555/584
f 526/550 523/546 556/581 559/585
f 524/547 509/532 546/571 557/582
f 514/537 527/551 535/560 549/574
f 525/548 528/552 537/562 558/583
f 529/554 526/553 559/586 538/563
f 560/587 561/588 562/589 563/590
f 564/591 565/592 566/593 567/594
f 568/595 569/596 570/597 571/598
f 561/588 572/599 573/600 562/589
f 565/592 568/595 571/598 566/593
f 569/596 560/587 563/590 570/597
f 567/594 566/593 574/601 575/602
f 571/598 570/597 576/603 577/604
f 562/589 573/600 578/605 579/606
f 566/593 571/598 577/604 574/601
f 570/597 563/590 580/607 576/603
f 563/590 562/589 579/606 580/607
f 574/601 577/604 581/608 582/609
f 576/603 580/607 583/610 584/611
f 580/607 579/606 585/612 583/610
f 575/602 574/601 582/609 586/613
f 577/604 576/603 584/611 581/608
f 579/606 578/605 587/614 585/612
f 582/609 581/608 588/615 589/616
f 584/611 583/610 590/617 591/618
f 583/610 585/612 592/619 590/617
f 581/608 584/611 591/618 588/615
f 585/612 587/614 593/620 592/619
f 591/618 590/617 594/621 595/622
f 590/617 592/619 596/623 594/621
f 575/602 586/613 597/624 598/625
f 588/615 591/618 595/622 599/626
f 586/613 582/609 600/627 597/624
f 582/609 589/616 601/628 600/627
f 589/616 588/615 599/626 601/628
f 564/591 602/629 603/630 565/592
f 602/629 604/631 605/632 603/630
f 604/631 606/633 607/634 605/632
f 601/628 608/635 609/636 600/627
f 597/624 610/637 611/638 598/625
f 600/627 609/636 610/637 597/624
f 609/636 612/639 613/640 610/637
f 573/600 614/641 615/642 578/605
f 572/599 616/643 614/641 573/600
f 614/641 59/59 58/58 615/642
f 616/643 60/60 59/59 614/641
f 612/639 617/644 618/645 613/640
f 617/644 619/646 620/647 618/645
f 619/648 621/649 622/650 620/651
f 621/649 623/652 624/653 622/650
f 623/652 625/654 626/655 624/653
f 625/654 627/656 628/657 626/655
f 627/656 629/658 630/659 628/657
f 629/658 631/660 632/661 630/659
f 631/660 633/662 634/663 632/661
f 633/662 80/82 79/81 634/663
f 606/633 635/664 636/665 607/634
f 635/664 637/666 638/667 636/665
f 637/668 639/669 640/670 638/671
f 639/669 641/672 642/673 640/670
f 641/672 643/674 644/675 642/673
f 643/674 645/676 646/677 644/675
f 645/676 647/678 648/679 646/677
f 647/678 649/680 650/681 648/679
f 649/680 651/682 652/683 650/681
f 651/682 653/684 654/685 652/683
f 630/659 654/685 653/684 628/657
f 569/596 655/686 656/687 560/587
f 572/599 657/688 658/689 616/643
f 568/595 659/690 655/686 569/596
f 560/587 656/687 660/691 561/588
f 616/643 658/689 107/111 60/60
f 561/588 660/691 657/688 572/599
f 656/687 661/692 662/693 660/691
f 657/688 663/694 664/695 658/689
f 660/691 662/693 663/694 657/688
f 658/689 664/695 112/116 107/111
f 655/686 665/696 661/692 656/687
f 659/690 666/697 665/696 655/686
f 665/696 667/698 668/699 661/692
f 666/697 669/700 667/698 665/696
f 661/692 668/699 670/701 662/693
f 663/694 671/702 672/703 664/695
f 662/693 670/701 671/702 663/694
f 664/695 672/703 121/125 112/116
f 613/640 673/704 674/705 610/637
f 610/637 674/705 675/706 611/638
f 567/594 676/707 677/708 564/591
f 639/669 678/709 679/710 641/672
f 598/625 680/711 681/712 575/602
f 620/647 682/713 683/714 618/645
f 649/680 684/715 685/716 651/682
f 635/664 686/717 687/718 637/666
f 645/676 688/719 689/720 647/678
f 626/655 690/721 691/722 624/653
f 602/629 692/723 693/724 604/631
f 641/672 679/710 694/725 643/674
f 622/650 695/726 682/727 620/651
f 651/682 685/716 696/728 653/684
f 611/638 675/706 680/711 598/625
f 575/602 681/712 676/707 567/594
f 653/684 696/728 697/729 628/657
f 637/668 687/730 678/709 639/669
f 618/645 683/714 673/704 613/640
f 647/678 689/720 684/715 649/680
f 628/657 697/729 690/721 626/655
f 604/631 693/724 698/731 606/633
f 606/633 698/731 686/717 635/664
f 643/674 694/725 688/719 645/676
f 564/591 677/708 692/723 602/629
f 624/653 691/722 695/726 622/650
f 79/81 149/155 699/732 634/663
f 634/663 699/732 700/733 632/661
f 149/155 152/158 701/734 699/732
f 699/732 701/734 702/735 700/733
f 152/158 155/161 703/736 701/734
f 701/734 703/736 704/737 702/735
f 155/161 158/164 705/738 703/736
f 703/736 705/738 706/739 704/737
f 158/164 161/167 707/740 705/738
f 705/738 707/740 708/741 706/739
f 161/167 164/170 709/742 707/740
f 707/740 709/742 710/743 708/741
f 632/661 700/733 654/685 630/659
f 652/683 654/685 700/733 702/735
f 650/681 652/683 702/735 704/737
f 648/679 650/681 704/737 706/739
f 646/677 648/679 706/739 708/741
f 644/675 646/677 708/741 710/743
f 601/628 711/744 712/745 608/635
f 623/652 713/746 714/747 625/654
f 633/662 715/748 170/176 80/82
f 587/614 716/749 717/750 593/620
f 615/642 718/751 719/752 578/605
f 619/648 720/753 721/754 621/649
f 629/658 722/755 723/756 631/660
f 612/639 724/757 725/758 617/644
f 592/619 726/759 727/760 596/623
f 625/654 714/747 728/761 627/656
f 596/623 727/760 729/762 594/621
f 578/605 719/752 716/749 587/614
f 594/621 729/762 730/763 595/622
f 621/649 721/754 713/746 623/652
f 631/660 723/756 715/748 633/662
f 609/636 731/764 724/757 612/639
f 608/635 712/745 731/764 609/636
f 595/622 730/763 732/765 599/626
f 58/58 189/195 718/751 615/642
f 617/644 725/758 720/766 619/646
f 627/656 728/761 722/755 629/658
f 593/620 717/750 726/759 592/619
f 599/626 732/765 711/744 601/628
f 717/750 733/767 734/768 726/759
f 721/754 735/769 736/770 713/746
f 711/744 737/771 738/772 712/745
f 716/749 739/773 733/767 717/750
f 713/746 736/770 740/774 714/747
f 731/764 741/775 742/776 724/757
f 727/760 743/777 744/778 729/762
f 714/747 740/774 745/779 728/761
f 718/751 746/780 747/781 719/752
f 729/762 744/778 748/782 730/763
f 728/761 745/779 749/783 722/755
f 189/195 207/214 746/780 718/751
f 730/763 748/782 750/784 732/765
f 722/755 749/783 751/785 723/756
f 724/757 742/776 752/786 725/758
f 732/765 750/784 737/771 711/744
f 723/756 751/785 753/787 715/748
f 725/758 752/786 754/788 720/766
f 726/759 734/768 743/777 727/760
f 715/748 753/787 213/220 170/176
f 719/752 747/781 739/773 716/749
f 720/753 754/789 735/769 721/754
f 712/745 738/772 741/775 731/764
f 568/595 565/592 603/630 659/690
f 603/630 605/632 666/697 659/690
f 605/632 607/634 669/700 666/697
f 738/772 755/790 756/791 741/775
f 733/767 757/792 758/793 734/768
f 735/769 759/794 760/795 736/770
f 737/771 761/796 755/790 738/772
f 739/773 762/797 757/792 733/767
f 736/770 760/795 763/798 740/774
f 741/775 756/791 764/799 742/776
f 743/777 765/800 766/801 744/778
f 740/774 763/798 767/802 745/779
f 746/780 768/803 769/804 747/781
f 744/778 766/801 770/805 748/782
f 745/779 767/802 771/806 749/783
f 207/214 231/239 768/803 746/780
f 748/782 770/805 772/807 750/784
f 749/783 771/806 773/808 751/785
f 742/776 764/799 774/809 752/786
f 750/784 772/807 761/796 737/771
f 751/785 773/808 775/810 753/787
f 752/786 774/809 776/811 754/788
f 734/768 758/793 765/800 743/777
f 753/787 775/810 237/245 213/220
f 747/781 769/804 762/797 739/773
f 754/789 776/812 759/794 735/769
f 756/791 777/813 778/814 764/799
f 765/800 779/815 780/816 766/801
f 763/798 781/817 782/818 767/802
f 768/803 783/819 784/820 769/804
f 766/801 780/816 785/821 770/805
f 767/802 782/818 786/822 771/806
f 248/823 285/824 787/825 783/826
f 770/805 785/821 788/827 772/807
f 771/806 786/822 789/828 773/808
f 764/799 778/814 790/829 774/809
f 772/807 788/827 791/830 761/796
f 773/808 789/828 792/831 775/810
f 774/809 790/829 793/832 776/811
f 758/793 794/833 779/815 765/800
f 775/810 792/831 256/265 237/245
f 769/804 784/820 795/834 762/797
f 776/812 793/835 796/836 759/794
f 755/790 797/837 777/813 756/791
f 757/792 798/838 794/833 758/793
f 759/794 796/836 799/839 760/795
f 761/796 791/830 797/837 755/790
f 762/797 795/834 798/838 757/792
f 760/795 799/839 781/817 763/798
f 785/821 800/840 801/841 788/827
f 786/822 802/842 803/843 789/828
f 778/814 804/844 805/845 790/829
f 788/827 801/841 806/846 791/830
f 789/828 803/843 807/847 792/831
f 790/829 805/845 808/848 793/832
f 794/833 809/849 810/850 779/815
f 792/831 807/847 273/283 256/265
f 784/820 811/851 812/852 795/834
f 793/835 808/853 813/854 796/836
f 797/837 814/855 815/856 777/813
f 798/838 816/857 809/849 794/833
f 796/836 813/854 817/858 799/839
f 791/830 806/846 814/855 797/837
f 795/834 812/852 816/857 798/838
f 799/839 817/858 818/859 781/817
f 777/813 815/856 804/844 778/814
f 779/815 810/850 819/860 780/816
f 781/817 818/859 820/861 782/818
f 783/819 787/825 811/851 784/820
f 780/816 819/860 800/840 785/821
f 782/818 820/861 802/842 786/822
f 285/824 307/319 821/862 787/825
f 805/845 822/863 823/864 808/848
f 809/849 824/865 825/866 810/850
f 807/847 826/867 290/301 273/283
f 811/851 827/868 828/869 812/852
f 808/853 823/870 829/871 813/854
f 814/855 830/872 831/873 815/856
f 816/857 832/874 824/865 809/849
f 813/854 829/871 833/875 817/858
f 806/846 834/876 830/872 814/855
f 812/852 828/869 832/874 816/857
f 817/858 833/875 835/877 818/859
f 815/856 831/873 836/878 804/844
f 810/850 825/866 837/879 819/860
f 818/859 835/877 838/880 820/861
f 787/825 821/862 827/868 811/851
f 819/860 837/879 839/881 800/840
f 820/861 838/880 840/882 802/842
f 800/840 839/881 841/883 801/841
f 802/842 840/882 842/884 803/843
f 804/844 836/878 822/863 805/845
f 801/841 841/883 834/876 806/846
f 803/843 842/884 826/867 807/847
f 830/872 843/885 844/886 831/873
f 832/874 845/887 846/888 824/865
f 829/871 847/889 848/890 833/875
f 834/876 849/891 843/885 830/872
f 828/869 850/892 845/887 832/874
f 833/875 848/890 851/893 835/877
f 831/873 844/886 852/894 836/878
f 825/866 853/895 854/896 837/879
f 835/877 851/893 855/897 838/880
f 821/862 856/898 857/899 827/868
f 837/879 854/896 858/900 839/881
f 838/880 855/897 859/901 840/882
f 307/319 327/339 856/898 821/862
f 839/881 858/900 860/902 841/883
f 840/882 859/901 861/903 842/884
f 836/878 852/894 862/904 822/863
f 841/883 860/902 849/891 834/876
f 842/884 861/903 863/905 826/867
f 822/863 862/904 864/906 823/864
f 824/865 846/888 853/895 825/866
f 826/867 863/905 333/345 290/301
f 827/868 857/899 850/892 828/869
f 823/870 864/907 847/889 829/871
f 848/890 865/908 866/909 851/893
f 844/886 867/910 868/911 852/894
f 853/895 869/912 870/913 854/896
f 851/893 866/909 871/914 855/897
f 856/898 872/915 873/916 857/899
f 854/896 870/913 874/917 858/900
f 855/897 871/914 875/918 859/901
f 327/339 345/358 872/915 856/898
f 858/900 874/917 876/919 860/902
f 859/901 875/918 877/920 861/903
f 852/894 868/911 878/921 862/904
f 860/902 876/919 879/922 849/891
f 861/903 877/920 880/923 863/905
f 862/904 878/921 881/924 864/906
f 846/888 882/925 869/912 853/895
f 863/905 880/923 353/366 333/345
f 857/899 873/916 883/926 850/892
f 864/907 881/927 884/928 847/889
f 843/885 885/929 867/910 844/886
f 845/887 886/930 882/925 846/888
f 847/889 884/928 865/908 848/890
f 849/891 879/922 885/929 843/885
f 850/892 883/926 886/930 845/887
f 869/912 887/931 888/932 870/913
f 866/909 889/933 890/934 871/914
f 872/915 891/935 892/936 873/916
f 870/913 888/932 893/937 874/917
f 871/914 890/934 894/938 875/918
f 345/358 366/380 891/935 872/915
f 874/917 893/937 895/939 876/919
f 875/918 894/938 896/940 877/920
f 868/911 897/941 898/942 878/921
f 876/919 895/939 899/943 879/922
f 877/920 896/940 900/944 880/923
f 878/921 898/942 901/945 881/924
f 882/925 902/946 887/931 869/912
f 880/923 900/944 375/389 353/366
f 873/916 892/936 903/947 883/926
f 881/927 901/948 904/949 884/928
f 885/929 905/950 906/951 867/910
f 886/930 907/952 902/946 882/925
f 884/928 904/949 908/953 865/908
f 879/922 899/943 905/950 885/929
f 883/926 903/947 907/952 886/930
f 865/908 908/953 889/933 866/909
f 867/910 906/951 897/941 868/911
f 895/939 909/954 910/955 899/943
f 896/940 911/956 912/957 900/944
f 898/942 913/958 914/959 901/945
f 902/946 915/960 916/961 887/931
f 900/944 912/957 390/405 375/389
f 892/936 917/962 918/963 903/947
f 901/948 914/964 919/965 904/949
f 905/950 920/966 921/967 906/951
f 907/952 922/968 915/960 902/946
f 904/949 919/965 923/969 908/953
f 899/943 910/955 920/966 905/950
f 903/947 918/963 922/968 907/952
f 908/953 923/969 924/970 889/933
f 906/951 921/967 925/971 897/941
f 887/931 916/961 926/972 888/932
f 889/933 924/970 927/973 890/934
f 891/935 928/974 917/962 892/936
f 888/932 926/972 929/975 893/937
f 890/934 927/973 930/976 894/938
f 366/380 405/421 928/974 891/935
f 893/937 929/975 909/954 895/939
f 894/938 930/976 911/956 896/940
f 897/941 925/971 913/958 898/942
f 925/971 931/977 932/978 913/958
f 909/954 933/979 934/980 910/955
f 911/956 935/981 936/982 912/957
f 913/958 932/978 937/983 914/959
f 915/960 938/984 939/985 916/961
f 912/957 936/982 415/431 390/405
f 917/962 940/986 941/987 918/963
f 914/964 937/988 942/989 919/965
f 920/966 943/990 944/991 921/967
f 922/968 945/992 938/984 915/960
f 919/965 942/989 946/993 923/969
f 910/955 934/980 943/990 920/966
f 918/963 941/987 945/992 922/968
f 923/969 946/993 947/994 924/970
f 921/967 944/991 931/977 925/971
f 916/961 939/985 948/995 926/972
f 924/970 947/994 949/996 927/973
f 928/974 950/997 940/986 917/962
f 926/972 948/995 951/998 929/975
f 927/973 949/996 952/999 930/976
f 405/421 429/446 950/997 928/974
f 929/975 951/998 933/979 909/954
f 930/976 952/999 935/981 911/956
f 685/716 953/1000 954/1001 696/728
f 680/711 955/1002 956/1003 681/712
f 687/730 957/1004 958/1005 678/709
f 682/713 959/1006 960/1007 683/714
f 696/728 954/1001 961/1008 697/729
f 677/708 962/1009 963/1010 692/723
f 678/709 958/1005 964/1011 679/710
f 695/726 965/1012 959/1013 682/727
f 692/723 963/1010 966/1014 693/724
f 679/710 964/1011 967/1015 694/725
f 691/722 968/1016 965/1012 695/726
f 693/724 966/1014 969/1017 698/731
f 694/725 967/1015 970/1018 688/719
f 690/721 971/1019 968/1016 691/722
f 674/705 972/1020 973/1021 675/706
f 688/719 970/1018 974/1022 689/720
f 697/729 961/1008 971/1019 690/721
f 675/706 973/1021 955/1002 680/711
f 689/720 974/1022 975/1023 684/715
f 676/707 976/1024 962/1009 677/708
f 698/731 969/1017 977/1025 686/717
f 673/704 978/1026 972/1020 674/705
f 684/715 975/1023 953/1000 685/716
f 681/712 956/1003 976/1024 676/707
f 686/717 977/1025 957/1027 687/718
f 683/714 960/1007 978/1026 673/704
f 973/1021 979/1028 980/1029 955/1002
f 974/1022 981/1030 982/1031 975/1023
f 976/1024 983/1032 984/1033 962/1009
f 969/1017 985/1034 986/1035 977/1025
f 978/1026 987/1036 988/1037 972/1020
f 975/1023 982/1031 989/1038 953/1000
f 956/1003 990/1039 983/1032 976/1024
f 977/1025 986/1035 991/1040 957/1027
f 960/1007 992/1041 987/1036 978/1026
f 953/1000 989/1038 993/1042 954/1001
f 955/1002 980/1029 990/1039 956/1003
f 957/1004 991/1043 994/1044 958/1005
f 959/1006 995/1045 992/1041 960/1007
f 954/1001 993/1042 996/1046 961/1008
f 962/1009 984/1033 997/1047 963/1010
f 958/1005 994/1044 998/1048 964/1011
f 965/1012 999/1049 995/1050 959/1013
f 963/1010 997/1047 1000/1051 966/1014
f 964/1011 998/1048 1001/1052 967/1015
f 968/1016 1002/1053 999/1049 965/1012
f 966/1014 1000/1051 985/1034 969/1017
f 967/1015 1001/1052 1003/1054 970/1018
f 971/1019 1004/1055 1002/1053 968/1016
f 972/1020 988/1037 979/1028 973/1021
f 970/1018 1003/1054 981/1030 974/1022
f 961/1008 996/1046 1004/1055 971/1019
f 979/1028 1005/1056 1006/1057 980/1029
f 981/1030 1007/1058 1008/1059 982/1031
f 983/1032 1009/1060 1010/1061 984/1033
f 985/1034 1011/1062 1012/1063 986/1035
f 987/1036 1013/1064 1014/1065 988/1037
f 982/1031 1008/1059 1015/1066 989/1038
f 990/1039 1016/1067 1009/1060 983/1032
f 986/1035 1012/1063 1017/1068 991/1040
f 992/1041 1018/1069 1013/1064 987/1036
f 989/1038 1015/1066 1019/1070 993/1042
f 980/1029 1006/1057 1016/1067 990/1039
f 991/1043 1017/1071 1020/1072 994/1044
f 995/1045 1021/1073 1018/1069 992/1041
f 993/1042 1019/1070 1022/1074 996/1046
f 984/1033 1010/1061 1023/1075 997/1047
f 994/1044 1020/1072 1024/1076 998/1048
f 999/1049 1025/1077 1021/1078 995/1050
f 997/1047 1023/1075 1026/1079 1000/1051
f 998/1048 1024/1076 1027/1080 1001/1052
f 1002/1053 1028/1081 1025/1077 999/1049
f 1000/1051 1026/1079 1011/1062 985/1034
f 1001/1052 1027/1080 1029/1082 1003/1054
f 1004/1055 1030/1083 1028/1081 1002/1053
f 988/1037 1014/1065 1005/1056 979/1028
f 1003/1054 1029/1082 1007/1058 981/1030
f 996/1046 1022/1074 1030/1083 1004/1055
f 1022/1074 1031/1084 1032/1085 1030/1083
f 1005/1056 1033/1086 1034/1087 1006/1057
f 1007/1058 1035/1088 1036/1089 1008/1059
f 1009/1060 1037/1090 1038/1091 1010/1061
f 1011/1062 1039/1092 1040/1093 1012/1063
f 1013/1064 1041/1094 1042/1095 1014/1065
f 1008/1059 1036/1089 1043/1096 1015/1066
f 1016/1067 1044/1097 1037/1090 1009/1060
f 1012/1063 1040/1093 1045/1098 1017/1068
f 1018/1069 1046/1099 1041/1094 1013/1064
f 1015/1066 1043/1096 1047/1100 1019/1070
f 1006/1057 1034/1087 1044/1097 1016/1067
f 1017/1071 1045/1101 1048/1102 1020/1072
f 1021/1073 1049/1103 1046/1099 1018/1069
f 1019/1070 1047/1100 1031/1084 1022/1074
f 1010/1061 1038/1091 1050/1104 1023/1075
f 1020/1072 1048/1102 1051/1105 1024/1076
f 1025/1077 1052/1106 1049/1107 1021/1078
f 1023/1075 1050/1104 1053/1108 1026/1079
f 1024/1076 1051/1105 1054/1109 1027/1080
f 1028/1081 1055/1110 1052/1106 1025/1077
f 1026/1079 1053/1108 1039/1092 1011/1062
f 1027/1080 1054/1109 1056/1111 1029/1082
f 1030/1083 1032/1085 1055/1110 1028/1081
f 1014/1065 1042/1095 1033/1086 1005/1056
f 1029/1082 1056/1111 1035/1088 1007/1058
f 1050/1104 1057/1112 1058/1113 1053/1108
f 1051/1105 1059/1114 1060/1115 1054/1109
f 1055/1110 1061/1116 1062/1117 1052/1106
f 1053/1108 1058/1113 1063/1118 1039/1092
f 1054/1109 1060/1115 1064/1119 1056/1111
f 1032/1085 1065/1120 1061/1116 1055/1110
f 1042/1095 1066/1121 1067/1122 1033/1086
f 1056/1111 1064/1119 1068/1123 1035/1088
f 1031/1084 1069/1124 1065/1120 1032/1085
f 1033/1086 1067/1122 1070/1125 1034/1087
f 1035/1088 1068/1123 1071/1126 1036/1089
f 1037/1090 1072/1127 1073/1128 1038/1091
f 1039/1092 1063/1118 1074/1129 1040/1093
f 1041/1094 1075/1130 1066/1121 1042/1095
f 1036/1089 1071/1126 1076/1131 1043/1096
f 1044/1097 1077/1132 1072/1127 1037/1090
f 1040/1093 1074/1129 1078/1133 1045/1098
f 1046/1099 1079/1134 1075/1130 1041/1094
f 1043/1096 1076/1131 1080/1135 1047/1100
f 1034/1087 1070/1125 1077/1132 1044/1097
f 1045/1101 1078/1136 1081/1137 1048/1102
f 1049/1103 1082/1138 1079/1134 1046/1099
f 1047/1100 1080/1135 1069/1124 1031/1084
f 1038/1091 1073/1128 1057/1112 1050/1104
f 1048/1102 1081/1137 1059/1114 1051/1105
f 1052/1106 1062/1117 1082/1139 1049/1107
f 231/239 248/823 783/826 768/803
f 934/980 933/979 1109/979 1110/980
f 425/442 428/445 1105/445 1102/442
f 426/443 417/433 1094/433 1103/443
f 951/998 948/995 1124/995 1127/998
f 416/432 421/438 1098/438 1093/432
f 936/982 935/981 1111/981 1112/982
f 935/981 952/999 1128/999 1111/981
f 428/445 411/427 1088/427 1105/445
f 424/441 427/444 1104/444 1101/441
f 411/427 410/426 1087/426 1088/427
f 952/999 949/996 1125/996 1128/999
f 941/987 940/986 1116/986 1117/987
f 949/996 947/994 1123/994 1125/996
f 419/436 407/423 1084/423 1096/436
f 932/978 931/977 1107/977 1108/978
f 429/446 426/443 1103/443 1106/446
f 422/439 423/440 1100/440 1099/439
f 412/435 418/434 1095/434 1089/435
f 414/430 413/429 1090/429 1091/430
f 418/434 422/439 1099/439 1095/434
f 407/423 406/422 1083/422 1084/423
f 406/422 412/428 1089/428 1083/422
f 937/983 932/978 1108/978 1113/983
f 943/990 934/980 1110/980 1119/990
f 933/979 951/998 1127/998 1109/979
f 408/424 420/437 1097/437 1085/424
f 942/989 937/988 1113/988 1118/989
f 423/440 425/442 1102/442 1100/440
f 945/992 941/987 1117/987 1121/992
f 409/425 408/424 1085/424 1086/425
f 417/433 416/432 1093/432 1094/433
f 938/984 945/992 1121/992 1114/984
f 413/429 424/441 1101/441 1090/429
f 427/444 409/425 1086/425 1104/444
f 940/986 950/997 1126/997 1116/986
f 950/997 429/446 1106/446 1126/997
f 948/995 939/985 1115/985 1124/995
f 944/991 943/990 1119/990 1120/991
f 421/438 414/430 1091/430 1098/438
f 420/437 419/436 1096/436 1097/437
f 931/977 944/991 1120/991 1107/977
f 946/993 942/989 1118/989 1122/993
f 415/431 936/982 1112/982 1092/431
f 410/426 415/431 1092/431 1087/426
f 939/985 938/984 1114/984 1115/985
f 947/994 946/993 1122/993 1123/994
f 1091/430 1090/429 1136/429 1137/430
f 1125/996 1123/994 1169/994 1171/996
f 1121/992 1117/987 1163/987 1167/992
f 1095/434 1099/439 1145/439 1141/434
f 1108/978 1107/977 1153/977 1154/978
f 1109/979 1127/998 1173/998 1155/979
f 1115/985 1114/984 1160/984 1161/985
f 1097/437 1096/436 1142/436 1143/437
f 1100/440 1102/442 1148/442 1146/440
f 1127/998 1124/995 1170/995 1173/998
f 1102/442 1105/445 1151/445 1148/442
f 1111/981 1128/999 1174/999 1157/981
f 1113/983 1108/978 1154/978 1159/983
f 1118/989 1113/988 1159/988 1164/989
f 1122/993 1118/989 1164/989 1168/993
f 1093/432 1098/438 1144/438 1139/432
f 1124/995 1115/985 1161/985 1170/995
f 1103/443 1094/433 1140/433 1149/443
f 1083/422 1089/428 1135/428 1129/422
f 1092/431 1112/982 1158/982 1138/431
f 1110/980 1109/979 1155/979 1156/980
f 1119/990 1110/980 1156/980 1165/990
f 1090/429 1101/441 1147/441 1136/429
f 1098/438 1091/430 1137/430 1144/438
f 1099/439 1100/440 1146/440 1145/439
f 1112/982 1111/981 1157/981 1158/982
f 1106/446 1103/443 1149/443 1152/446
f 1087/426 1092/431 1138/431 1133/426
f 1126/997 1106/446 1152/446 1172/997
f 1104/444 1086/425 1132/425 1150/444
f 1086/425 1085/424 1131/424 1132/425
f 1085/424 1097/437 1143/437 1131/424
f 1101/441 1104/444 1150/444 1147/441
f 1096/436 1084/423 1130/423 1142/436
f 1114/984 1121/992 1167/992 1160/984
f 1105/445 1088/427 1134/427 1151/445
f 1088/427 1087/426 1133/426 1134/427
f 1117/987 1116/986 1162/986 1163/987
f 1116/986 1126/997 1172/997 1162/986
f 1094/433 1093/432 1139/432 1140/433
f 1084/423 1083/422 1129/422 1130/423
f 1120/991 1119/990 1165/990 1166/991
f 1107/977 1120/991 1166/991 1153/977
f 1123/994 1122/993 1168/993 1169/994
f 1089/435 1095/434 1141/434 1135/435
f 1128/999 1125/996 1171/996 1174/999
f 544/569 543/568 1184/568 1185/569
f 550/575 549/574 1190/574 1191/575
f 542/567 539/564 1180/564 1183/567
f 558/583 537/562 1178/562 1199/583
f 541/566 545/570 1186/570 1182/566
f 551/576 555/580 1196/580 1192/576
f 546/571 542/567 1183/567 1187/571
f 540/565 551/576 1192/576 1181/565
f 545/570 548/573 1189/573 1186/570
f 547/572 554/579 1195/579 1188/572
f 537/562 536/561 1177/561 1178/562
f 552/577 544/569 1185/569 1193/577
f 538/563 559/586 1200/586 1179/563
f 557/582 546/571 1187/571 1198/582
f 536/561 541/566 1182/566 1177/561
f 554/579 550/575 1191/575 1195/579
f 543/568 547/572 1188/572 1184/568
f 555/584 558/583 1199/583 1196/584
f 535/560 534/559 1175/559 1176/560
f 548/573 553/578 1194/578 1189/573
f 553/578 557/582 1198/582 1194/578
f 556/581 552/577 1193/577 1197/581
f 549/574 535/560 1176/560 1190/574
f 539/564 538/563 1179/563 1180/564
f 559/585 556/581 1197/581 1200/585
f 534/559 540/565 1181/565 1175/559
f 1200/585 1197/581 1223/581 1226/585
f 1181/565 1192/576 1218/576 1207/565
f 1198/582 1187/571 1213/571 1224/582
f 1195/579 1191/575 1217/575 1221/579
f 1187/571 1183/567 1209/567 1213/571
f 1193/577 1185/569 1211/569 1219/577
f 1175/559 1181/565 1207/565 1201/559
f 1185/569 1184/568 1210/568 1211/569
f 1183/567 1180/564 1206/564 1209/567
f 1189/573 1194/578 1220/578 1215/573
f 1196/584 1199/583 1225/583 1222/584
f 1182/566 1186/570 1212/570 1208/566
f 1199/583 1178/562 1204/562 1225/583
f 1177/561 1182/566 1208/566 1203/561
f 1179/563 1200/586 1226/586 1205/563
f 1178/562 1177/561 1203/561 1204/562
f 1184/568 1188/572 1214/572 1210/568
f 1188/572 1195/579 1221/579 1214/572
f 1190/574 1176/560 1202/560 1216/574
f 1176/560 1175/559 1201/559 1202/560
f 1197/581 1193/577 1219/577 1223/581
f 1191/575 1190/574 1216/574 1217/575
f 1192/576 1196/580 1222/580 1218/576
f 1186/570 1189/573 1215/573 1212/570
f 1194/578 1198/582 1224/582 1220/578
f 1180/564 1179/563 1205/563 1206/564
f 1206/564 1205/563 1231/563 1232/564
f 1226/585 1223/581 1249/581 1252/585
f 1207/565 1218/576 1244/576 1233/565
f 1224/582 1213/571 1239/571 1250/582
f 1221/579 1217/575 1243/575 1247/579
f 1213/571 1209/567 1235/567 1239/571
f 1219/577 1211/569 1237/569 1245/577
f 1201/559 1207/565 1233/565 1227/559
f 1211/569 1210/568 1236/568 1237/569
f 1209/567 1206/564 1232/564 1235/567
f 1215/573 1220/578 1246/578 1241/573
f 1222/584 1225/583 1251/583 1248/584
f 1208/566 1212/570 1238/570 1234/566
f 1225/583 1204/562 1230/562 1251/583
f 1203/561 1208/566 1234/566 1229/561
f 1205/563 1226/586 1252/586 1231/563
f 1204/562 1203/561 1229/561 1230/562
f 1210/568 1214/572 1240/572 1236/568
f 1214/572 1221/579 1247/579 1240/572
f 1216/574 1202/560 1228/560 1242/574
f 1202/560 1201/559 1227/559 1228/560
f 1223/581 1219/577 1245/577 1249/581
f 1217/575 1216/574 1242/574 1243/575
f 1218/576 1222/580 1248/580 1244/576
f 1212/570 1215/573 1241/573 1238/570
f 1220/578 1224/582 1250/582 1246/578
f 1076/1131 1071/1126 1267/1126 1272/1131
f 1058/1113 1057/1112 1253/1112 1254/1113
f 1066/1121 1075/1130 1271/1130 1262/1121
f 1079/1134 1082/1138 1278/1138 1275/1134
f 1082/1139 1062/1117 1258/1117 1278/1139
f 1067/1122 1066/1121 1262/1121 1263/1122
f 1080/1135 1076/1131 1272/1131 1276/1135
f 1078/1133 1074/1129 1270/1129 1274/1133
f 1065/1120 1069/1124 1265/1124 1261/1120
f 1059/1114 1081/1137 1277/1137 1255/1114
f 1069/1124 1080/1135 1276/1135 1265/1124
f 1057/1112 1073/1128 1269/1128 1253/1112
f 1064/1119 1060/1115 1256/1115 1260/1119
f 1063/1118 1058/1113 1254/1113 1259/1118
f 1062/1117 1061/1116 1257/1116 1258/1117
f 1075/1130 1079/1134 1275/1134 1271/1130
f 1061/1116 1065/1120 1261/1120 1257/1116
f 1060/1115 1059/1114 1255/1114 1256/1115
f 1070/1125 1067/1122 1263/1122 1266/1125
f 1073/1128 1072/1127 1268/1127 1269/1128
f 1074/1129 1063/1118 1259/1118 1270/1129
f 1077/1132 1070/1125 1266/1125 1273/1132
f 1072/1127 1077/1132 1273/1132 1268/1127
f 1068/1123 1064/1119 1260/1119 1264/1123
f 1081/1137 1078/1136 1274/1136 1277/1137
f 1071/1126 1068/1123 1264/1123 1267/1126
f 1258/1117 1257/1116 1283/1116 1284/1117
f 1270/1129 1259/1118 1285/1118 1296/1129
f 1275/1134 1278/1138 1304/1138 1301/1134
f 1276/1135 1272/1131 1298/1131 1302/1135
f 1261/1120 1265/1124 1291/1124 1287/1120
f 1259/1118 1254/1113 1280/1113 1285/1118
f 1277/1137 1274/1136 1300/1136 1303/1137
f 1255/1114 1277/1137 1303/1137 1281/1114
f 1262/1121 1271/1130 1297/1130 1288/1121
f 1278/1139 1258/1117 1284/1117 1304/1139
f 1271/1130 1275/1134 1301/1134 1297/1130
f 1257/1116 1261/1120 1287/1120 1283/1116
f 1268/1127 1273/1132 1299/1132 1294/1127
f 1264/1123 1260/1119 1286/1119 1290/1123
f 1265/1124 1276/1135 1302/1135 1291/1124
f 1266/1125 1263/1122 1289/1122 1292/1125
f 1267/1126 1264/1123 1290/1123 1293/1126
f 1253/1112 1269/1128 1295/1128 1279/1112
f 1256/1115 1255/1114 1281/1114 1282/1115
f 1254/1113 1253/1112 1279/1112 1280/1113
f 1272/1131 1267/1126 1293/1126 1298/1131
f 1274/1133 1270/1129 1296/1129 1300/1133
f 1260/1119 1256/1115 1282/1115 1286/1119
f 1263/1122 1262/1121 1288/1121 1289/1122
f 1273/1132 1266/1125 1292/1125 1299/1132
f 1269/1128 1268/1127 1294/1127 1295/1128
f 1295/1128 1294/1127 1320/1127 1321/1128
f 1284/1117 1283/1116 1309/1116 1310/1117
f 1296/1129 1285/1118 1311/1118 1322/1129
f 1301/1134 1304/1138 1330/1138 1327/1134
f 1302/1135 1298/1131 1324/1131 1328/1135
f 1287/1120 1291/1124 1317/1124 1313/1120
f 1285/1118 1280/1113 1306/1113 1311/1118
f 1303/1137 1300/1136 1326/1136 1329/1137
f 1281/1114 1303/1137 1329/1137 1307/1114
f 1288/1121 1297/1130 1323/1130 1314/1121
f 1304/1139 1284/1117 1310/1117 1330/1139
f 1297/1130 1301/1134 1327/1134 1323/1130
f 1283/1116 1287/1120 1313/1120 1309/1116
f 1294/1127 1299/1132 1325/1132 1320/1127
f 1290/1123 1286/1119 1312/1119 1316/1123
f 1291/1124 1302/1135 1328/1135 1317/1124
f 1292/1125 1289/1122 1315/1122 1318/1125
f 1293/1126 1290/1123 1316/1123 1319/1126
f 1279/1112 1295/1128 1321/1128 1305/1112
f 1282/1115 1281/1114 1307/1114 1308/1115
f 1280/1113 1279/1112 1305/1112 1306/1113
f 1298/1131 1293/1126 1319/1126 1324/1131
f 1300/1133 1296/1129 1322/1129 1326/1133
f 1286/1119 1282/1115 1308/1115 1312/1119
f 1289/1122 1288/1121 1314/1121 1315/1122
f 1299/1132 1292/1125 1318/1125 1325/1132
f 1321/1128 1320/1127 1346/1127 1347/1128
f 1310/1117 1309/1116 1335/1116 1336/1117
f 1322/1129 1311/1118 1337/1118 1348/1129
f 1327/1134 1330/1138 1356/1138 1353/1134
f 1328/1135 1324/1131 1350/1131 1354/1135
f 1313/1120 1317/1124 1343/1124 1339/1120
f 1311/1118 1306/1113 1332/1113 1337/1118
f 1329/1137 1326/1136 1352/1136 1355/1137
f 1307/1114 1329/1137 1355/1137 1333/1114
f 1314/1121 1323/1130 1349/1130 1340/1121
f 1330/1139 1310/1117 1336/1117 1356/1139
f 1323/1130 1327/1134 1353/1134 1349/1130
f 1309/1116 1313/1120 1339/1120 1335/1116
f 1320/1127 1325/1132 1351/1132 1346/1127
f 1316/1123 1312/1119 1338/1119 1342/1123
f 1317/1124 1328/1135 1354/1135 1343/1124
f 1318/1125 1315/1122 1341/1122 1344/1125
f 1319/1126 1316/1123 1342/1123 1345/1126
f 1305/1112 1321/1128 1347/1128 1331/1112
f 1308/1115 1307/1114 1333/1114 1334/1115
f 1306/1113 1305/1112 1331/1112 1332/1113
f 1324/1131 1319/1126 1345/1126 1350/1131
f 1326/1133 1322/1129 1348/1129 1352/1133
f 1312/1119 1308/1115 1334/1115 1338/1119
f 1315/1122 1314/1121 1340/1121 1341/1122
f 1325/1132 1318/1125 1344/1125 1351/1132